<?xml version="1.0" encoding="utf-8" standalone="no"?>
<!DOCTYPE svg PUBLIC "-//W3C//DTD SVG 1.1//EN"
  "http://www.w3.org/Graphics/SVG/1.1/DTD/svg11.dtd">
<!-- Created with matplotlib (http://matplotlib.org/) -->
<svg height="432pt" version="1.1" viewBox="0 0 576 432" width="576pt" xmlns="http://www.w3.org/2000/svg" xmlns:xlink="http://www.w3.org/1999/xlink">
 <defs>
  <style type="text/css">
*{stroke-linecap:butt;stroke-linejoin:round;stroke-miterlimit:100000;}
  </style>
 </defs>
 <g id="figure_1">
  <g id="patch_1">
   <path d="M 0 432 
L 576 432 
L 576 0 
L 0 0 
z
" style="fill:#ffffff;"/>
  </g>
  <g id="axes_1">
   <g id="patch_2">
    <path d="M 52.8975 386.64 
L 553.4775 386.64 
L 553.4775 28.76 
L 52.8975 28.76 
z
" style="fill:#ffffff;"/>
   </g>
   <g id="line2d_1">
    <path clip-path="url(#pa4d3fdc455)" d="M 52.8975 386.468273 
L 52.960057 386.468273 
L 53.022614 386.468273 
L 53.147727 386.296545 
L 53.210284 386.296545 
L 53.335398 288.068445 
L 254.330592 288.068445 
L 254.455705 230.654235 
L 326.521209 230.654235 
L 326.646323 204.494421 
L 378.193176 204.494421 
L 378.31829 185.718887 
L 448.444531 185.718887 
L 448.569644 172.667601 
L 492.734788 172.667601 
L 492.859902 163.852258 
L 502.681329 163.852258 
L 502.806443 161.505317 
L 511.814631 161.505317 
L 511.939744 160.646679 
L 513.065768 160.646679 
L 513.190882 160.131497 
L 515.755713 160.131497 
L 515.880827 159.95977 
L 516.256168 159.95977 
L 516.381282 159.616315 
L 516.506395 159.616315 
L 516.631509 135.7462 
L 526.76572 135.7462 
L 526.890834 78.389232 
L 545.720449 78.389232 
L 545.845563 62.87652 
L 549.849202 62.87652 
L 549.974316 53.603237 
L 552.789375 53.603237 
L 552.914488 51.027326 
L 552.977045 51.027326 
L 553.164716 49.653506 
L 553.289829 49.653506 
L 553.414943 49.481779 
L 553.414943 49.481779 
" style="fill:none;stroke:#0000ff;stroke-linecap:square;"/>
   </g>
   <g id="line2d_2">
    <path clip-path="url(#pa4d3fdc455)" d="M 52.8975 320.410448 
L 52.960057 320.410448 
L 53.085171 291.846449 
L 53.147727 291.846449 
L 53.272841 244.163461 
L 169.941387 244.163461 
L 170.0665 187.493404 
L 197.028507 187.493404 
L 197.153621 169.576507 
L 243.320584 169.576507 
L 243.445698 146.507786 
L 278.164756 146.507786 
L 278.289869 134.60135 
L 333.652691 134.60135 
L 333.777805 128.132949 
L 341.84764 128.132949 
L 341.972754 123.038369 
L 413.9757 123.038369 
L 414.100814 102.259347 
L 433.993896 102.259347 
L 434.11901 55.263269 
L 458.578742 55.263269 
L 458.703856 41.467831 
L 510.43838 41.467831 
L 510.563494 34.083551 
L 514.81736 34.083551 
L 514.942474 28.76 
L 553.414943 28.76 
L 553.414943 28.76 
" style="fill:none;stroke:#0000ff;stroke-dasharray:6.000000,6.000000;stroke-dashoffset:0.0;"/>
   </g>
   <g id="line2d_3">
    <path clip-path="url(#pa4d3fdc455)" d="M 52.8975 386.582758 
L 53.147727 386.296545 
L 53.460512 386.296545 
L 53.585625 386.067575 
L 53.648182 386.067575 
L 53.835853 385.95309 
L 53.89841 385.95309 
L 54.023523 385.151695 
L 55.08699 385.151695 
L 55.212104 346.627505 
L 121.021921 346.627505 
L 121.397263 345.024715 
L 124.337435 345.024715 
L 124.462549 344.795745 
L 125.150674 344.795745 
L 125.213231 344.68126 
L 125.338345 343.937108 
L 125.588572 343.937108 
L 125.713686 322.700147 
L 154.051944 322.700147 
L 154.239614 322.471177 
L 154.990297 322.471177 
L 155.115411 322.242207 
L 155.177967 322.242207 
L 155.303081 321.38357 
L 155.428195 321.38357 
L 155.553309 318.693173 
L 155.991207 318.693173 
L 156.11632 312.62547 
L 162.684791 312.62547 
L 162.809904 312.16753 
L 163.247802 312.16753 
L 163.310359 311.995803 
L 163.435473 311.423378 
L 164.186155 311.423378 
L 164.311269 309.133679 
L 164.749167 309.133679 
L 164.936838 309.019194 
L 165.312179 309.019194 
L 165.437293 308.732981 
L 166.500759 308.732981 
L 166.625873 305.985342 
L 169.941387 305.985342 
L 170.0665 304.840493 
L 274.09856 304.840493 
L 274.223673 304.268068 
L 275.662481 304.268068 
L 275.787595 304.09634 
L 277.601744 304.09634 
L 277.789415 303.981855 
L 277.914528 303.981855 
L 278.039642 303.581158 
L 278.289869 303.581158 
L 278.47754 303.466673 
L 280.354246 303.466673 
L 280.47936 300.719034 
L 296.181132 300.661791 
L 296.306245 300.261094 
L 297.557383 300.261094 
L 297.682496 300.089367 
L 297.932724 300.089367 
L 298.120394 299.974882 
L 299.308975 299.974882 
L 299.434088 299.803154 
L 299.80943 299.745912 
L 300.059657 299.459699 
L 300.184771 298.830032 
L 300.685226 298.830032 
L 300.872896 297.914152 
L 301.18568 297.914152 
L 301.310794 297.341727 
L 302.749602 297.341727 
L 302.874716 297.112758 
L 303.437727 297.112758 
L 303.562841 296.71206 
L 304.000739 296.71206 
L 304.125853 288.068445 
L 333.214793 288.068445 
L 333.339907 287.038081 
L 333.840362 287.038081 
L 333.965476 279.940013 
L 336.342636 279.940013 
L 336.46775 279.596558 
L 337.593773 279.596558 
L 337.718887 277.593071 
L 338.094228 277.593071 
L 338.281899 275.933039 
L 338.594683 275.933039 
L 338.719797 263.225208 
L 350.793271 263.225208 
L 350.918385 262.423813 
L 351.043499 259.160992 
L 359.426118 259.160992 
L 359.551232 255.611958 
L 362.116063 255.611958 
L 362.241177 254.638836 
L 362.741631 254.638836 
L 362.866745 254.238138 
L 362.991859 250.574619 
L 384.386305 250.574619 
L 384.511419 250.059437 
L 384.636533 250.059437 
L 384.761646 249.830467 
L 386.200454 249.773225 
L 386.325568 232.886692 
L 415.539622 232.886692 
L 415.664736 232.37151 
L 415.727293 232.37151 
L 415.852406 231.856328 
L 416.040077 231.799085 
L 416.227747 231.799085 
L 416.352861 230.825963 
L 416.477975 230.825963 
L 416.603089 230.654235 
L 425.861504 230.654235 
L 425.986618 229.509386 
L 427.050084 229.509386 
L 427.175198 226.761747 
L 427.237755 226.761747 
L 427.487982 225.044472 
L 431.053723 225.044472 
L 431.11628 224.586532 
L 431.366508 220.465074 
L 436.058272 220.465074 
L 436.183386 219.434709 
L 441.438162 219.434709 
L 441.563276 217.14501 
L 444.253221 217.14501 
L 444.378335 216.973282 
L 444.628562 216.973282 
L 444.753676 212.565611 
L 449.820782 212.565611 
L 449.945895 211.878701 
L 450.321237 211.878701 
L 450.508907 210.962821 
L 450.571464 210.962821 
L 450.634021 210.504882 
L 450.759135 204.494421 
L 502.305988 204.494421 
L 502.431102 202.948874 
L 503.119227 202.948874 
L 503.244341 194.076289 
L 503.932466 194.076289 
L 504.05758 193.446622 
L 511.752074 193.446622 
L 511.877188 192.988682 
L 512.189972 192.988682 
L 512.315086 189.897588 
L 512.878097 189.897588 
L 513.065768 187.378919 
L 513.315995 187.378919 
L 513.441109 185.718887 
L 520.134693 185.718887 
L 520.259807 184.574037 
L 522.19907 184.574037 
L 522.324183 182.284338 
L 522.449297 172.667601 
L 528.454756 172.667601 
L 528.704983 162.134984 
L 528.830097 135.7462 
L 537.33783 135.7462 
L 537.462944 116.398241 
L 543.343289 116.398241 
L 543.468402 110.84572 
L 544.156528 110.84572 
L 544.281641 78.389232 
L 548.285281 78.389232 
L 548.410394 74.725713 
L 549.411304 74.725713 
L 549.536418 62.87652 
L 550.850112 62.87652 
L 551.100339 53.603237 
L 553.352386 53.603237 
L 553.414943 51.027326 
L 553.414943 51.027326 
" style="fill:none;stroke:#ff0000;stroke-linecap:square;"/>
   </g>
   <g id="line2d_4">
    <path clip-path="url(#pa4d3fdc455)" d="M 52.8975 351.206903 
L 52.960057 351.092418 
L 53.085171 351.092418 
L 53.147727 347.314415 
L 53.335398 306.61501 
L 89.618377 306.61501 
L 89.743491 305.412917 
L 89.806048 305.412917 
L 89.931162 304.210825 
L 92.183209 304.153583 
L 92.621107 303.180461 
L 92.683663 303.180461 
L 92.871334 302.379066 
L 92.933891 302.379066 
L 92.996448 302.264581 
L 93.184118 299.974882 
L 93.246675 299.974882 
L 93.371789 299.230729 
L 93.622016 299.230729 
L 93.809687 298.77279 
L 93.997358 297.914152 
L 94.059914 297.742425 
L 94.185028 291.903692 
L 94.310142 291.903692 
L 94.435256 283.088349 
L 94.497812 283.088349 
L 94.622926 270.323276 
L 102.192306 270.323276 
L 102.31742 270.094306 
L 102.442534 270.094306 
L 102.505091 269.865336 
L 102.817875 264.083845 
L 103.506 264.026603 
L 103.631114 263.28245 
L 103.818785 263.28245 
L 103.943898 262.824511 
L 105.320149 262.824511 
L 105.570377 262.137601 
L 106.133389 262.137601 
L 106.258502 260.363084 
L 106.50873 260.363084 
L 106.633843 259.218234 
L 170.441841 259.218234 
L 170.754626 256.756807 
L 170.817183 256.756807 
L 170.942296 255.955413 
L 174.445481 255.955413 
L 174.695708 254.409866 
L 175.321277 254.352623 
L 175.571504 253.894683 
L 175.821731 252.864319 
L 175.946845 252.807076 
L 176.071959 252.349136 
L 176.384743 252.349136 
L 176.509857 249.65874 
L 177.010312 249.65874 
L 177.197982 249.544255 
L 177.323096 248.800102 
L 177.760994 248.800102 
L 177.886108 247.769738 
L 180.200712 247.712495 
L 180.263269 247.540768 
L 180.388382 246.682131 
L 180.513496 246.624888 
L 180.63861 245.766251 
L 181.889747 245.766251 
L 182.014861 245.480038 
L 185.705715 245.480038 
L 185.768272 245.365553 
L 185.893386 243.419309 
L 189.646798 243.419309 
L 189.771911 243.247582 
L 190.147253 243.247582 
L 190.272366 241.015125 
L 190.334923 241.015125 
L 190.585151 240.614427 
L 206.724821 240.614427 
L 206.849934 240.385457 
L 208.351299 240.385457 
L 208.476413 238.381971 
L 215.858122 238.381971 
L 215.983236 237.752303 
L 216.233464 237.752303 
L 216.358577 237.179878 
L 216.733918 237.179878 
L 216.859032 237.008151 
L 218.172726 237.008151 
L 218.29784 234.890179 
L 220.362216 234.890179 
L 220.48733 234.088784 
L 220.612444 234.088784 
L 220.737557 233.28739 
L 221.48824 233.28739 
L 221.738467 232.772207 
L 222.426593 232.714965 
L 222.551706 232.085298 
L 222.67682 231.741843 
L 243.695925 231.741843 
L 243.758482 231.512873 
L 243.883596 227.677626 
L 243.946153 227.505899 
L 244.071267 226.647262 
L 244.19638 226.647262 
L 244.384051 225.387927 
L 244.696835 223.38444 
L 245.510074 223.38444 
L 245.635188 209.989699 
L 253.517353 209.989699 
L 253.642466 209.30279 
L 254.080364 209.016577 
L 254.142921 208.61588 
L 254.268035 207.127575 
L 254.330592 207.127575 
L 254.393149 206.268938 
L 254.518262 200.08675 
L 258.271674 200.08675 
L 258.459345 199.972265 
L 258.521901 199.972265 
L 258.647015 199.457083 
L 259.460254 199.457083 
L 259.647925 197.281868 
L 259.960709 197.281868 
L 260.085823 196.995656 
L 265.278042 196.995656 
L 265.465713 196.881171 
L 265.653384 196.823928 
L 265.778497 196.594958 
L 266.153838 196.594958 
L 266.278952 196.365988 
L 267.780317 196.365988 
L 267.905431 194.534229 
L 268.280772 194.534229 
L 268.468442 193.332137 
L 269.90725 193.332137 
L 270.032364 182.971248 
L 273.09765 182.971248 
L 273.285321 181.139488 
L 273.347877 180.738791 
L 273.660662 172.495873 
L 291.051469 172.495873 
L 291.176583 172.152418 
L 292.365163 172.152418 
L 292.615391 171.866206 
L 295.305336 171.866206 
L 295.430449 171.179296 
L 295.80579 171.122054 
L 295.868347 171.007569 
L 296.056018 169.576507 
L 342.222981 169.576507 
L 342.348095 169.290294 
L 342.785993 169.290294 
L 342.911107 169.118567 
L 348.916565 169.118567 
L 349.041679 168.946839 
L 349.166793 168.946839 
L 349.291906 168.4889 
L 349.41702 168.4889 
L 349.604691 168.374415 
L 349.980032 168.374415 
L 350.167702 167.916475 
L 350.355373 166.313685 
L 351.60651 166.256443 
L 351.919295 164.653653 
L 353.60833 164.653653 
L 353.733444 164.367441 
L 355.422479 164.367441 
L 355.547592 162.764651 
L 355.610149 162.592924 
L 355.735263 161.963257 
L 364.430667 161.906014 
L 364.55578 161.219104 
L 364.743451 161.161862 
L 380.632894 161.161862 
L 380.758007 160.360467 
L 381.633803 160.303225 
L 381.758917 159.7308 
L 383.010054 159.7308 
L 383.135168 159.444587 
L 383.197725 159.444587 
L 383.322839 159.27286 
L 383.573066 159.27286 
L 383.69818 159.04389 
L 384.511419 159.04389 
L 384.636533 158.81492 
L 385.950227 158.81492 
L 386.075341 158.700435 
L 386.263011 157.212131 
L 386.325568 157.212131 
L 386.450682 155.609341 
L 388.07716 155.609341 
L 388.202274 154.922431 
L 388.327388 154.922431 
L 388.452501 153.548612 
L 394.207732 153.548612 
L 394.332846 153.376884 
L 394.395403 153.376884 
L 394.520517 153.090672 
L 395.45887 153.090672 
L 395.583983 152.403762 
L 396.209552 152.403762 
L 396.272109 152.232035 
L 396.397223 151.144427 
L 400.400862 151.144427 
L 400.525975 150.9727 
L 418.542351 150.915457 
L 418.855136 150.74373 
L 418.980249 150.74373 
L 419.230477 149.713365 
L 419.793489 149.713365 
L 419.918602 148.625758 
L 421.545081 148.625758 
L 421.670194 141.29872 
L 426.049175 141.29872 
L 426.174288 140.898023 
L 426.236845 140.898023 
L 426.361959 137.749687 
L 427.550539 137.749687 
L 427.675653 137.406232 
L 427.800767 137.406232 
L 427.92588 134.257895 
L 428.113551 134.257895 
L 428.238665 132.597863 
L 428.864233 132.597863 
L 428.989347 129.048829 
L 432.179747 129.048829 
L 432.429974 126.415675 
L 432.617645 126.415675 
L 432.742759 122.580429 
L 432.805316 122.580429 
L 432.930429 119.890032 
L 433.055543 119.890032 
L 433.180657 117.428605 
L 441.187935 117.428605 
L 441.313049 102.259347 
L 452.573284 102.259347 
L 452.698397 101.057255 
L 453.386523 101.000013 
L 453.511636 100.084133 
L 453.699307 100.084133 
L 453.824421 99.683436 
L 453.886978 99.683436 
L 454.012091 98.595829 
L 454.137205 98.595829 
L 454.262319 97.222009 
L 454.825331 97.222009 
L 454.950444 89.437031 
L 463.770962 89.437031 
L 463.833518 89.265304 
L 463.958632 88.578394 
L 465.272326 88.578394 
L 465.39744 86.17421 
L 465.522554 86.116967 
L 465.647667 85.71627 
L 466.273236 85.71627 
L 466.460907 85.601785 
L 489.794616 85.601785 
L 489.982286 85.25833 
L 490.232514 85.201088 
L 490.545298 84.628663 
L 490.732969 84.628663 
L 490.858082 82.796903 
L 491.546208 82.796903 
L 491.733878 82.682418 
L 491.796435 82.682418 
L 491.921549 81.423084 
L 494.48638 81.423084 
L 494.611494 55.263269 
L 501.742976 55.263269 
L 501.86809 54.805329 
L 503.494568 54.805329 
L 503.619682 51.313538 
L 506.372184 51.313538 
L 506.559854 50.454901 
L 506.684968 46.848624 
L 506.747525 46.848624 
L 506.872639 45.58929 
L 507.873548 45.58929 
L 507.998662 41.467831 
L 523.074866 41.467831 
L 523.262536 40.265739 
L 523.512764 40.265739 
L 523.700434 39.636072 
L 523.888105 38.319495 
L 524.200889 38.319495 
L 524.326003 34.083551 
L 525.889924 34.083551 
L 526.077595 28.76 
L 553.414943 28.76 
L 553.414943 28.76 
" style="fill:none;stroke:#ff0000;stroke-dasharray:6.000000,6.000000;stroke-dashoffset:0.0;"/>
   </g>
   <g id="patch_3">
    <path d="M 52.8975 28.76 
L 553.4775 28.76 
" style="fill:none;stroke:#000000;stroke-linecap:square;stroke-linejoin:miter;"/>
   </g>
   <g id="patch_4">
    <path d="M 553.4775 386.64 
L 553.4775 28.76 
" style="fill:none;stroke:#000000;stroke-linecap:square;stroke-linejoin:miter;"/>
   </g>
   <g id="patch_5">
    <path d="M 52.8975 386.64 
L 553.4775 386.64 
" style="fill:none;stroke:#000000;stroke-linecap:square;stroke-linejoin:miter;"/>
   </g>
   <g id="patch_6">
    <path d="M 52.8975 386.64 
L 52.8975 28.76 
" style="fill:none;stroke:#000000;stroke-linecap:square;stroke-linejoin:miter;"/>
   </g>
   <g id="matplotlib.axis_1">
    <g id="xtick_1">
     <g id="line2d_5">
      <path clip-path="url(#pa4d3fdc455)" d="M 52.8975 386.64 
L 52.8975 28.76 
" style="fill:none;stroke:#000000;stroke-dasharray:1.000000,3.000000;stroke-dashoffset:0.0;stroke-width:0.5;"/>
     </g>
     <g id="line2d_6">
      <defs>
       <path d="M 0 0 
L 0 -4 
" id="mf862ee0138" style="stroke:#000000;stroke-width:0.5;"/>
      </defs>
      <g>
       <use style="stroke:#000000;stroke-width:0.5;" x="52.8975" xlink:href="#mf862ee0138" y="386.64"/>
      </g>
     </g>
     <g id="line2d_7">
      <defs>
       <path d="M 0 0 
L 0 4 
" id="mf8f5ed5f7b" style="stroke:#000000;stroke-width:0.5;"/>
      </defs>
      <g>
       <use style="stroke:#000000;stroke-width:0.5;" x="52.8975" xlink:href="#mf8f5ed5f7b" y="28.76"/>
      </g>
     </g>
     <g id="text_1">
      <!-- 0.0 -->
      <defs>
       <path d="M 31.78125 66.40625 
Q 24.171875 66.40625 20.328125 58.90625 
Q 16.5 51.421875 16.5 36.375 
Q 16.5 21.390625 20.328125 13.890625 
Q 24.171875 6.390625 31.78125 6.390625 
Q 39.453125 6.390625 43.28125 13.890625 
Q 47.125 21.390625 47.125 36.375 
Q 47.125 51.421875 43.28125 58.90625 
Q 39.453125 66.40625 31.78125 66.40625 
M 31.78125 74.21875 
Q 44.046875 74.21875 50.515625 64.515625 
Q 56.984375 54.828125 56.984375 36.375 
Q 56.984375 17.96875 50.515625 8.265625 
Q 44.046875 -1.421875 31.78125 -1.421875 
Q 19.53125 -1.421875 13.0625 8.265625 
Q 6.59375 17.96875 6.59375 36.375 
Q 6.59375 54.828125 13.0625 64.515625 
Q 19.53125 74.21875 31.78125 74.21875 
" id="BitstreamVeraSans-Roman-30"/>
       <path d="M 10.6875 12.40625 
L 21 12.40625 
L 21 0 
L 10.6875 0 
z
" id="BitstreamVeraSans-Roman-2e"/>
      </defs>
      <g transform="translate(43.355625 399.758125)scale(0.12 -0.12)">
       <use xlink:href="#BitstreamVeraSans-Roman-30"/>
       <use x="63.623046875" xlink:href="#BitstreamVeraSans-Roman-2e"/>
       <use x="95.41015625" xlink:href="#BitstreamVeraSans-Roman-30"/>
      </g>
     </g>
    </g>
    <g id="xtick_2">
     <g id="line2d_8">
      <path clip-path="url(#pa4d3fdc455)" d="M 153.0135 386.64 
L 153.0135 28.76 
" style="fill:none;stroke:#000000;stroke-dasharray:1.000000,3.000000;stroke-dashoffset:0.0;stroke-width:0.5;"/>
     </g>
     <g id="line2d_9">
      <g>
       <use style="stroke:#000000;stroke-width:0.5;" x="153.0135" xlink:href="#mf862ee0138" y="386.64"/>
      </g>
     </g>
     <g id="line2d_10">
      <g>
       <use style="stroke:#000000;stroke-width:0.5;" x="153.0135" xlink:href="#mf8f5ed5f7b" y="28.76"/>
      </g>
     </g>
     <g id="text_2">
      <!-- 0.2 -->
      <defs>
       <path d="M 19.1875 8.296875 
L 53.609375 8.296875 
L 53.609375 0 
L 7.328125 0 
L 7.328125 8.296875 
Q 12.9375 14.109375 22.625 23.890625 
Q 32.328125 33.6875 34.8125 36.53125 
Q 39.546875 41.84375 41.421875 45.53125 
Q 43.3125 49.21875 43.3125 52.78125 
Q 43.3125 58.59375 39.234375 62.25 
Q 35.15625 65.921875 28.609375 65.921875 
Q 23.96875 65.921875 18.8125 64.3125 
Q 13.671875 62.703125 7.8125 59.421875 
L 7.8125 69.390625 
Q 13.765625 71.78125 18.9375 73 
Q 24.125 74.21875 28.421875 74.21875 
Q 39.75 74.21875 46.484375 68.546875 
Q 53.21875 62.890625 53.21875 53.421875 
Q 53.21875 48.921875 51.53125 44.890625 
Q 49.859375 40.875 45.40625 35.40625 
Q 44.1875 33.984375 37.640625 27.21875 
Q 31.109375 20.453125 19.1875 8.296875 
" id="BitstreamVeraSans-Roman-32"/>
      </defs>
      <g transform="translate(143.471625 399.758125)scale(0.12 -0.12)">
       <use xlink:href="#BitstreamVeraSans-Roman-30"/>
       <use x="63.623046875" xlink:href="#BitstreamVeraSans-Roman-2e"/>
       <use x="95.41015625" xlink:href="#BitstreamVeraSans-Roman-32"/>
      </g>
     </g>
    </g>
    <g id="xtick_3">
     <g id="line2d_11">
      <path clip-path="url(#pa4d3fdc455)" d="M 253.1295 386.64 
L 253.1295 28.76 
" style="fill:none;stroke:#000000;stroke-dasharray:1.000000,3.000000;stroke-dashoffset:0.0;stroke-width:0.5;"/>
     </g>
     <g id="line2d_12">
      <g>
       <use style="stroke:#000000;stroke-width:0.5;" x="253.1295" xlink:href="#mf862ee0138" y="386.64"/>
      </g>
     </g>
     <g id="line2d_13">
      <g>
       <use style="stroke:#000000;stroke-width:0.5;" x="253.1295" xlink:href="#mf8f5ed5f7b" y="28.76"/>
      </g>
     </g>
     <g id="text_3">
      <!-- 0.4 -->
      <defs>
       <path d="M 37.796875 64.3125 
L 12.890625 25.390625 
L 37.796875 25.390625 
z
M 35.203125 72.90625 
L 47.609375 72.90625 
L 47.609375 25.390625 
L 58.015625 25.390625 
L 58.015625 17.1875 
L 47.609375 17.1875 
L 47.609375 0 
L 37.796875 0 
L 37.796875 17.1875 
L 4.890625 17.1875 
L 4.890625 26.703125 
z
" id="BitstreamVeraSans-Roman-34"/>
      </defs>
      <g transform="translate(243.587625 399.758125)scale(0.12 -0.12)">
       <use xlink:href="#BitstreamVeraSans-Roman-30"/>
       <use x="63.623046875" xlink:href="#BitstreamVeraSans-Roman-2e"/>
       <use x="95.41015625" xlink:href="#BitstreamVeraSans-Roman-34"/>
      </g>
     </g>
    </g>
    <g id="xtick_4">
     <g id="line2d_14">
      <path clip-path="url(#pa4d3fdc455)" d="M 353.2455 386.64 
L 353.2455 28.76 
" style="fill:none;stroke:#000000;stroke-dasharray:1.000000,3.000000;stroke-dashoffset:0.0;stroke-width:0.5;"/>
     </g>
     <g id="line2d_15">
      <g>
       <use style="stroke:#000000;stroke-width:0.5;" x="353.2455" xlink:href="#mf862ee0138" y="386.64"/>
      </g>
     </g>
     <g id="line2d_16">
      <g>
       <use style="stroke:#000000;stroke-width:0.5;" x="353.2455" xlink:href="#mf8f5ed5f7b" y="28.76"/>
      </g>
     </g>
     <g id="text_4">
      <!-- 0.6 -->
      <defs>
       <path d="M 33.015625 40.375 
Q 26.375 40.375 22.484375 35.828125 
Q 18.609375 31.296875 18.609375 23.390625 
Q 18.609375 15.53125 22.484375 10.953125 
Q 26.375 6.390625 33.015625 6.390625 
Q 39.65625 6.390625 43.53125 10.953125 
Q 47.40625 15.53125 47.40625 23.390625 
Q 47.40625 31.296875 43.53125 35.828125 
Q 39.65625 40.375 33.015625 40.375 
M 52.59375 71.296875 
L 52.59375 62.3125 
Q 48.875 64.0625 45.09375 64.984375 
Q 41.3125 65.921875 37.59375 65.921875 
Q 27.828125 65.921875 22.671875 59.328125 
Q 17.53125 52.734375 16.796875 39.40625 
Q 19.671875 43.65625 24.015625 45.921875 
Q 28.375 48.1875 33.59375 48.1875 
Q 44.578125 48.1875 50.953125 41.515625 
Q 57.328125 34.859375 57.328125 23.390625 
Q 57.328125 12.15625 50.6875 5.359375 
Q 44.046875 -1.421875 33.015625 -1.421875 
Q 20.359375 -1.421875 13.671875 8.265625 
Q 6.984375 17.96875 6.984375 36.375 
Q 6.984375 53.65625 15.1875 63.9375 
Q 23.390625 74.21875 37.203125 74.21875 
Q 40.921875 74.21875 44.703125 73.484375 
Q 48.484375 72.75 52.59375 71.296875 
" id="BitstreamVeraSans-Roman-36"/>
      </defs>
      <g transform="translate(343.703625 399.758125)scale(0.12 -0.12)">
       <use xlink:href="#BitstreamVeraSans-Roman-30"/>
       <use x="63.623046875" xlink:href="#BitstreamVeraSans-Roman-2e"/>
       <use x="95.41015625" xlink:href="#BitstreamVeraSans-Roman-36"/>
      </g>
     </g>
    </g>
    <g id="xtick_5">
     <g id="line2d_17">
      <path clip-path="url(#pa4d3fdc455)" d="M 453.3615 386.64 
L 453.3615 28.76 
" style="fill:none;stroke:#000000;stroke-dasharray:1.000000,3.000000;stroke-dashoffset:0.0;stroke-width:0.5;"/>
     </g>
     <g id="line2d_18">
      <g>
       <use style="stroke:#000000;stroke-width:0.5;" x="453.3615" xlink:href="#mf862ee0138" y="386.64"/>
      </g>
     </g>
     <g id="line2d_19">
      <g>
       <use style="stroke:#000000;stroke-width:0.5;" x="453.3615" xlink:href="#mf8f5ed5f7b" y="28.76"/>
      </g>
     </g>
     <g id="text_5">
      <!-- 0.8 -->
      <defs>
       <path d="M 31.78125 34.625 
Q 24.75 34.625 20.71875 30.859375 
Q 16.703125 27.09375 16.703125 20.515625 
Q 16.703125 13.921875 20.71875 10.15625 
Q 24.75 6.390625 31.78125 6.390625 
Q 38.8125 6.390625 42.859375 10.171875 
Q 46.921875 13.96875 46.921875 20.515625 
Q 46.921875 27.09375 42.890625 30.859375 
Q 38.875 34.625 31.78125 34.625 
M 21.921875 38.8125 
Q 15.578125 40.375 12.03125 44.71875 
Q 8.5 49.078125 8.5 55.328125 
Q 8.5 64.0625 14.71875 69.140625 
Q 20.953125 74.21875 31.78125 74.21875 
Q 42.671875 74.21875 48.875 69.140625 
Q 55.078125 64.0625 55.078125 55.328125 
Q 55.078125 49.078125 51.53125 44.71875 
Q 48 40.375 41.703125 38.8125 
Q 48.828125 37.15625 52.796875 32.3125 
Q 56.78125 27.484375 56.78125 20.515625 
Q 56.78125 9.90625 50.3125 4.234375 
Q 43.84375 -1.421875 31.78125 -1.421875 
Q 19.734375 -1.421875 13.25 4.234375 
Q 6.78125 9.90625 6.78125 20.515625 
Q 6.78125 27.484375 10.78125 32.3125 
Q 14.796875 37.15625 21.921875 38.8125 
M 18.3125 54.390625 
Q 18.3125 48.734375 21.84375 45.5625 
Q 25.390625 42.390625 31.78125 42.390625 
Q 38.140625 42.390625 41.71875 45.5625 
Q 45.3125 48.734375 45.3125 54.390625 
Q 45.3125 60.0625 41.71875 63.234375 
Q 38.140625 66.40625 31.78125 66.40625 
Q 25.390625 66.40625 21.84375 63.234375 
Q 18.3125 60.0625 18.3125 54.390625 
" id="BitstreamVeraSans-Roman-38"/>
      </defs>
      <g transform="translate(443.819625 399.758125)scale(0.12 -0.12)">
       <use xlink:href="#BitstreamVeraSans-Roman-30"/>
       <use x="63.623046875" xlink:href="#BitstreamVeraSans-Roman-2e"/>
       <use x="95.41015625" xlink:href="#BitstreamVeraSans-Roman-38"/>
      </g>
     </g>
    </g>
    <g id="xtick_6">
     <g id="line2d_20">
      <path clip-path="url(#pa4d3fdc455)" d="M 553.4775 386.64 
L 553.4775 28.76 
" style="fill:none;stroke:#000000;stroke-dasharray:1.000000,3.000000;stroke-dashoffset:0.0;stroke-width:0.5;"/>
     </g>
     <g id="line2d_21">
      <g>
       <use style="stroke:#000000;stroke-width:0.5;" x="553.4775" xlink:href="#mf862ee0138" y="386.64"/>
      </g>
     </g>
     <g id="line2d_22">
      <g>
       <use style="stroke:#000000;stroke-width:0.5;" x="553.4775" xlink:href="#mf8f5ed5f7b" y="28.76"/>
      </g>
     </g>
     <g id="text_6">
      <!-- 1.0 -->
      <defs>
       <path d="M 12.40625 8.296875 
L 28.515625 8.296875 
L 28.515625 63.921875 
L 10.984375 60.40625 
L 10.984375 69.390625 
L 28.421875 72.90625 
L 38.28125 72.90625 
L 38.28125 8.296875 
L 54.390625 8.296875 
L 54.390625 0 
L 12.40625 0 
z
" id="BitstreamVeraSans-Roman-31"/>
      </defs>
      <g transform="translate(543.935625 399.758125)scale(0.12 -0.12)">
       <use xlink:href="#BitstreamVeraSans-Roman-31"/>
       <use x="63.623046875" xlink:href="#BitstreamVeraSans-Roman-2e"/>
       <use x="95.41015625" xlink:href="#BitstreamVeraSans-Roman-30"/>
      </g>
     </g>
    </g>
    <g id="text_7">
     <!-- Ratio of indirect Callsites -->
     <defs>
      <path id="BitstreamVeraSans-Roman-20"/>
      <path d="M 54.890625 33.015625 
L 54.890625 0 
L 45.90625 0 
L 45.90625 32.71875 
Q 45.90625 40.484375 42.875 44.328125 
Q 39.84375 48.1875 33.796875 48.1875 
Q 26.515625 48.1875 22.3125 43.546875 
Q 18.109375 38.921875 18.109375 30.90625 
L 18.109375 0 
L 9.078125 0 
L 9.078125 54.6875 
L 18.109375 54.6875 
L 18.109375 46.1875 
Q 21.34375 51.125 25.703125 53.5625 
Q 30.078125 56 35.796875 56 
Q 45.21875 56 50.046875 50.171875 
Q 54.890625 44.34375 54.890625 33.015625 
" id="BitstreamVeraSans-Roman-6e"/>
      <path d="M 41.109375 46.296875 
Q 39.59375 47.171875 37.8125 47.578125 
Q 36.03125 48 33.890625 48 
Q 26.265625 48 22.1875 43.046875 
Q 18.109375 38.09375 18.109375 28.8125 
L 18.109375 0 
L 9.078125 0 
L 9.078125 54.6875 
L 18.109375 54.6875 
L 18.109375 46.1875 
Q 20.953125 51.171875 25.484375 53.578125 
Q 30.03125 56 36.53125 56 
Q 37.453125 56 38.578125 55.875 
Q 39.703125 55.765625 41.0625 55.515625 
z
" id="BitstreamVeraSans-Roman-72"/>
      <path d="M 30.609375 48.390625 
Q 23.390625 48.390625 19.1875 42.75 
Q 14.984375 37.109375 14.984375 27.296875 
Q 14.984375 17.484375 19.15625 11.84375 
Q 23.34375 6.203125 30.609375 6.203125 
Q 37.796875 6.203125 41.984375 11.859375 
Q 46.1875 17.53125 46.1875 27.296875 
Q 46.1875 37.015625 41.984375 42.703125 
Q 37.796875 48.390625 30.609375 48.390625 
M 30.609375 56 
Q 42.328125 56 49.015625 48.375 
Q 55.71875 40.765625 55.71875 27.296875 
Q 55.71875 13.875 49.015625 6.21875 
Q 42.328125 -1.421875 30.609375 -1.421875 
Q 18.84375 -1.421875 12.171875 6.21875 
Q 5.515625 13.875 5.515625 27.296875 
Q 5.515625 40.765625 12.171875 48.375 
Q 18.84375 56 30.609375 56 
" id="BitstreamVeraSans-Roman-6f"/>
      <path d="M 64.40625 67.28125 
L 64.40625 56.890625 
Q 59.421875 61.53125 53.78125 63.8125 
Q 48.140625 66.109375 41.796875 66.109375 
Q 29.296875 66.109375 22.65625 58.46875 
Q 16.015625 50.828125 16.015625 36.375 
Q 16.015625 21.96875 22.65625 14.328125 
Q 29.296875 6.6875 41.796875 6.6875 
Q 48.140625 6.6875 53.78125 8.984375 
Q 59.421875 11.28125 64.40625 15.921875 
L 64.40625 5.609375 
Q 59.234375 2.09375 53.4375 0.328125 
Q 47.65625 -1.421875 41.21875 -1.421875 
Q 24.65625 -1.421875 15.125 8.703125 
Q 5.609375 18.84375 5.609375 36.375 
Q 5.609375 53.953125 15.125 64.078125 
Q 24.65625 74.21875 41.21875 74.21875 
Q 47.75 74.21875 53.53125 72.484375 
Q 59.328125 70.75 64.40625 67.28125 
" id="BitstreamVeraSans-Roman-43"/>
      <path d="M 44.390625 34.1875 
Q 47.5625 33.109375 50.5625 29.59375 
Q 53.5625 26.078125 56.59375 19.921875 
L 66.609375 0 
L 56 0 
L 46.6875 18.703125 
Q 43.0625 26.03125 39.671875 28.421875 
Q 36.28125 30.8125 30.421875 30.8125 
L 19.671875 30.8125 
L 19.671875 0 
L 9.8125 0 
L 9.8125 72.90625 
L 32.078125 72.90625 
Q 44.578125 72.90625 50.734375 67.671875 
Q 56.890625 62.453125 56.890625 51.90625 
Q 56.890625 45.015625 53.6875 40.46875 
Q 50.484375 35.9375 44.390625 34.1875 
M 19.671875 64.796875 
L 19.671875 38.921875 
L 32.078125 38.921875 
Q 39.203125 38.921875 42.84375 42.21875 
Q 46.484375 45.515625 46.484375 51.90625 
Q 46.484375 58.296875 42.84375 61.546875 
Q 39.203125 64.796875 32.078125 64.796875 
z
" id="BitstreamVeraSans-Roman-52"/>
      <path d="M 9.421875 54.6875 
L 18.40625 54.6875 
L 18.40625 0 
L 9.421875 0 
z
M 9.421875 75.984375 
L 18.40625 75.984375 
L 18.40625 64.59375 
L 9.421875 64.59375 
z
" id="BitstreamVeraSans-Roman-69"/>
      <path d="M 9.421875 75.984375 
L 18.40625 75.984375 
L 18.40625 0 
L 9.421875 0 
z
" id="BitstreamVeraSans-Roman-6c"/>
      <path d="M 56.203125 29.59375 
L 56.203125 25.203125 
L 14.890625 25.203125 
Q 15.484375 15.921875 20.484375 11.0625 
Q 25.484375 6.203125 34.421875 6.203125 
Q 39.59375 6.203125 44.453125 7.46875 
Q 49.3125 8.734375 54.109375 11.28125 
L 54.109375 2.78125 
Q 49.265625 0.734375 44.1875 -0.34375 
Q 39.109375 -1.421875 33.890625 -1.421875 
Q 20.796875 -1.421875 13.15625 6.1875 
Q 5.515625 13.8125 5.515625 26.8125 
Q 5.515625 40.234375 12.765625 48.109375 
Q 20.015625 56 32.328125 56 
Q 43.359375 56 49.78125 48.890625 
Q 56.203125 41.796875 56.203125 29.59375 
M 47.21875 32.234375 
Q 47.125 39.59375 43.09375 43.984375 
Q 39.0625 48.390625 32.421875 48.390625 
Q 24.90625 48.390625 20.390625 44.140625 
Q 15.875 39.890625 15.1875 32.171875 
z
" id="BitstreamVeraSans-Roman-65"/>
      <path d="M 45.40625 46.390625 
L 45.40625 75.984375 
L 54.390625 75.984375 
L 54.390625 0 
L 45.40625 0 
L 45.40625 8.203125 
Q 42.578125 3.328125 38.25 0.953125 
Q 33.9375 -1.421875 27.875 -1.421875 
Q 17.96875 -1.421875 11.734375 6.484375 
Q 5.515625 14.40625 5.515625 27.296875 
Q 5.515625 40.1875 11.734375 48.09375 
Q 17.96875 56 27.875 56 
Q 33.9375 56 38.25 53.625 
Q 42.578125 51.265625 45.40625 46.390625 
M 14.796875 27.296875 
Q 14.796875 17.390625 18.875 11.75 
Q 22.953125 6.109375 30.078125 6.109375 
Q 37.203125 6.109375 41.296875 11.75 
Q 45.40625 17.390625 45.40625 27.296875 
Q 45.40625 37.203125 41.296875 42.84375 
Q 37.203125 48.484375 30.078125 48.484375 
Q 22.953125 48.484375 18.875 42.84375 
Q 14.796875 37.203125 14.796875 27.296875 
" id="BitstreamVeraSans-Roman-64"/>
      <path d="M 18.3125 70.21875 
L 18.3125 54.6875 
L 36.8125 54.6875 
L 36.8125 47.703125 
L 18.3125 47.703125 
L 18.3125 18.015625 
Q 18.3125 11.328125 20.140625 9.421875 
Q 21.96875 7.515625 27.59375 7.515625 
L 36.8125 7.515625 
L 36.8125 0 
L 27.59375 0 
Q 17.1875 0 13.234375 3.875 
Q 9.28125 7.765625 9.28125 18.015625 
L 9.28125 47.703125 
L 2.6875 47.703125 
L 2.6875 54.6875 
L 9.28125 54.6875 
L 9.28125 70.21875 
z
" id="BitstreamVeraSans-Roman-74"/>
      <path d="M 37.109375 75.984375 
L 37.109375 68.5 
L 28.515625 68.5 
Q 23.6875 68.5 21.796875 66.546875 
Q 19.921875 64.59375 19.921875 59.515625 
L 19.921875 54.6875 
L 34.71875 54.6875 
L 34.71875 47.703125 
L 19.921875 47.703125 
L 19.921875 0 
L 10.890625 0 
L 10.890625 47.703125 
L 2.296875 47.703125 
L 2.296875 54.6875 
L 10.890625 54.6875 
L 10.890625 58.5 
Q 10.890625 67.625 15.140625 71.796875 
Q 19.390625 75.984375 28.609375 75.984375 
z
" id="BitstreamVeraSans-Roman-66"/>
      <path d="M 34.28125 27.484375 
Q 23.390625 27.484375 19.1875 25 
Q 14.984375 22.515625 14.984375 16.5 
Q 14.984375 11.71875 18.140625 8.90625 
Q 21.296875 6.109375 26.703125 6.109375 
Q 34.1875 6.109375 38.703125 11.40625 
Q 43.21875 16.703125 43.21875 25.484375 
L 43.21875 27.484375 
z
M 52.203125 31.203125 
L 52.203125 0 
L 43.21875 0 
L 43.21875 8.296875 
Q 40.140625 3.328125 35.546875 0.953125 
Q 30.953125 -1.421875 24.3125 -1.421875 
Q 15.921875 -1.421875 10.953125 3.296875 
Q 6 8.015625 6 15.921875 
Q 6 25.140625 12.171875 29.828125 
Q 18.359375 34.515625 30.609375 34.515625 
L 43.21875 34.515625 
L 43.21875 35.40625 
Q 43.21875 41.609375 39.140625 45 
Q 35.0625 48.390625 27.6875 48.390625 
Q 23 48.390625 18.546875 47.265625 
Q 14.109375 46.140625 10.015625 43.890625 
L 10.015625 52.203125 
Q 14.9375 54.109375 19.578125 55.046875 
Q 24.21875 56 28.609375 56 
Q 40.484375 56 46.34375 49.84375 
Q 52.203125 43.703125 52.203125 31.203125 
" id="BitstreamVeraSans-Roman-61"/>
      <path d="M 44.28125 53.078125 
L 44.28125 44.578125 
Q 40.484375 46.53125 36.375 47.5 
Q 32.28125 48.484375 27.875 48.484375 
Q 21.1875 48.484375 17.84375 46.4375 
Q 14.5 44.390625 14.5 40.28125 
Q 14.5 37.15625 16.890625 35.375 
Q 19.28125 33.59375 26.515625 31.984375 
L 29.59375 31.296875 
Q 39.15625 29.25 43.1875 25.515625 
Q 47.21875 21.78125 47.21875 15.09375 
Q 47.21875 7.46875 41.1875 3.015625 
Q 35.15625 -1.421875 24.609375 -1.421875 
Q 20.21875 -1.421875 15.453125 -0.5625 
Q 10.6875 0.296875 5.421875 2 
L 5.421875 11.28125 
Q 10.40625 8.6875 15.234375 7.390625 
Q 20.0625 6.109375 24.8125 6.109375 
Q 31.15625 6.109375 34.5625 8.28125 
Q 37.984375 10.453125 37.984375 14.40625 
Q 37.984375 18.0625 35.515625 20.015625 
Q 33.0625 21.96875 24.703125 23.78125 
L 21.578125 24.515625 
Q 13.234375 26.265625 9.515625 29.90625 
Q 5.8125 33.546875 5.8125 39.890625 
Q 5.8125 47.609375 11.28125 51.796875 
Q 16.75 56 26.8125 56 
Q 31.78125 56 36.171875 55.265625 
Q 40.578125 54.546875 44.28125 53.078125 
" id="BitstreamVeraSans-Roman-73"/>
      <path d="M 48.78125 52.59375 
L 48.78125 44.1875 
Q 44.96875 46.296875 41.140625 47.34375 
Q 37.3125 48.390625 33.40625 48.390625 
Q 24.65625 48.390625 19.8125 42.84375 
Q 14.984375 37.3125 14.984375 27.296875 
Q 14.984375 17.28125 19.8125 11.734375 
Q 24.65625 6.203125 33.40625 6.203125 
Q 37.3125 6.203125 41.140625 7.25 
Q 44.96875 8.296875 48.78125 10.40625 
L 48.78125 2.09375 
Q 45.015625 0.34375 40.984375 -0.53125 
Q 36.96875 -1.421875 32.421875 -1.421875 
Q 20.0625 -1.421875 12.78125 6.34375 
Q 5.515625 14.109375 5.515625 27.296875 
Q 5.515625 40.671875 12.859375 48.328125 
Q 20.21875 56 33.015625 56 
Q 37.15625 56 41.109375 55.140625 
Q 45.0625 54.296875 48.78125 52.59375 
" id="BitstreamVeraSans-Roman-63"/>
     </defs>
     <g transform="translate(228.2334375 416.371875)scale(0.12 -0.12)">
      <use xlink:href="#BitstreamVeraSans-Roman-52"/>
      <use x="69.451171875" xlink:href="#BitstreamVeraSans-Roman-61"/>
      <use x="130.73046875" xlink:href="#BitstreamVeraSans-Roman-74"/>
      <use x="169.939453125" xlink:href="#BitstreamVeraSans-Roman-69"/>
      <use x="197.72265625" xlink:href="#BitstreamVeraSans-Roman-6f"/>
      <use x="258.904296875" xlink:href="#BitstreamVeraSans-Roman-20"/>
      <use x="290.69140625" xlink:href="#BitstreamVeraSans-Roman-6f"/>
      <use x="351.873046875" xlink:href="#BitstreamVeraSans-Roman-66"/>
      <use x="387.078125" xlink:href="#BitstreamVeraSans-Roman-20"/>
      <use x="418.865234375" xlink:href="#BitstreamVeraSans-Roman-69"/>
      <use x="446.6484375" xlink:href="#BitstreamVeraSans-Roman-6e"/>
      <use x="510.02734375" xlink:href="#BitstreamVeraSans-Roman-64"/>
      <use x="573.50390625" xlink:href="#BitstreamVeraSans-Roman-69"/>
      <use x="601.287109375" xlink:href="#BitstreamVeraSans-Roman-72"/>
      <use x="642.369140625" xlink:href="#BitstreamVeraSans-Roman-65"/>
      <use x="703.892578125" xlink:href="#BitstreamVeraSans-Roman-63"/>
      <use x="758.873046875" xlink:href="#BitstreamVeraSans-Roman-74"/>
      <use x="798.08203125" xlink:href="#BitstreamVeraSans-Roman-20"/>
      <use x="829.869140625" xlink:href="#BitstreamVeraSans-Roman-43"/>
      <use x="899.693359375" xlink:href="#BitstreamVeraSans-Roman-61"/>
      <use x="960.97265625" xlink:href="#BitstreamVeraSans-Roman-6c"/>
      <use x="988.755859375" xlink:href="#BitstreamVeraSans-Roman-6c"/>
      <use x="1016.5390625" xlink:href="#BitstreamVeraSans-Roman-73"/>
      <use x="1068.63867188" xlink:href="#BitstreamVeraSans-Roman-69"/>
      <use x="1096.421875" xlink:href="#BitstreamVeraSans-Roman-74"/>
      <use x="1135.63085938" xlink:href="#BitstreamVeraSans-Roman-65"/>
      <use x="1197.15429688" xlink:href="#BitstreamVeraSans-Roman-73"/>
     </g>
    </g>
   </g>
   <g id="matplotlib.axis_2">
    <g id="ytick_1">
     <g id="line2d_23">
      <path clip-path="url(#pa4d3fdc455)" d="M 52.8975 386.64 
L 553.4775 386.64 
" style="fill:none;stroke:#000000;stroke-dasharray:1.000000,3.000000;stroke-dashoffset:0.0;stroke-width:0.5;"/>
     </g>
     <g id="line2d_24">
      <defs>
       <path d="M 0 0 
L 4 0 
" id="m9cc7b2d444" style="stroke:#000000;stroke-width:0.5;"/>
      </defs>
      <g>
       <use style="stroke:#000000;stroke-width:0.5;" x="52.8975" xlink:href="#m9cc7b2d444" y="386.64"/>
      </g>
     </g>
     <g id="line2d_25">
      <defs>
       <path d="M 0 0 
L -4 0 
" id="me9f2f40708" style="stroke:#000000;stroke-width:0.5;"/>
      </defs>
      <g>
       <use style="stroke:#000000;stroke-width:0.5;" x="553.4775" xlink:href="#me9f2f40708" y="386.64"/>
      </g>
     </g>
     <g id="text_8">
      <!-- 0.0 -->
      <g transform="translate(29.81375 389.95125)scale(0.12 -0.12)">
       <use xlink:href="#BitstreamVeraSans-Roman-30"/>
       <use x="63.623046875" xlink:href="#BitstreamVeraSans-Roman-2e"/>
       <use x="95.41015625" xlink:href="#BitstreamVeraSans-Roman-30"/>
      </g>
     </g>
    </g>
    <g id="ytick_2">
     <g id="line2d_26">
      <path clip-path="url(#pa4d3fdc455)" d="M 52.8975 315.064 
L 553.4775 315.064 
" style="fill:none;stroke:#000000;stroke-dasharray:1.000000,3.000000;stroke-dashoffset:0.0;stroke-width:0.5;"/>
     </g>
     <g id="line2d_27">
      <g>
       <use style="stroke:#000000;stroke-width:0.5;" x="52.8975" xlink:href="#m9cc7b2d444" y="315.064"/>
      </g>
     </g>
     <g id="line2d_28">
      <g>
       <use style="stroke:#000000;stroke-width:0.5;" x="553.4775" xlink:href="#me9f2f40708" y="315.064"/>
      </g>
     </g>
     <g id="text_9">
      <!-- 0.2 -->
      <g transform="translate(29.81375 318.37525)scale(0.12 -0.12)">
       <use xlink:href="#BitstreamVeraSans-Roman-30"/>
       <use x="63.623046875" xlink:href="#BitstreamVeraSans-Roman-2e"/>
       <use x="95.41015625" xlink:href="#BitstreamVeraSans-Roman-32"/>
      </g>
     </g>
    </g>
    <g id="ytick_3">
     <g id="line2d_29">
      <path clip-path="url(#pa4d3fdc455)" d="M 52.8975 243.488 
L 553.4775 243.488 
" style="fill:none;stroke:#000000;stroke-dasharray:1.000000,3.000000;stroke-dashoffset:0.0;stroke-width:0.5;"/>
     </g>
     <g id="line2d_30">
      <g>
       <use style="stroke:#000000;stroke-width:0.5;" x="52.8975" xlink:href="#m9cc7b2d444" y="243.488"/>
      </g>
     </g>
     <g id="line2d_31">
      <g>
       <use style="stroke:#000000;stroke-width:0.5;" x="553.4775" xlink:href="#me9f2f40708" y="243.488"/>
      </g>
     </g>
     <g id="text_10">
      <!-- 0.4 -->
      <g transform="translate(29.81375 246.79925)scale(0.12 -0.12)">
       <use xlink:href="#BitstreamVeraSans-Roman-30"/>
       <use x="63.623046875" xlink:href="#BitstreamVeraSans-Roman-2e"/>
       <use x="95.41015625" xlink:href="#BitstreamVeraSans-Roman-34"/>
      </g>
     </g>
    </g>
    <g id="ytick_4">
     <g id="line2d_32">
      <path clip-path="url(#pa4d3fdc455)" d="M 52.8975 171.912 
L 553.4775 171.912 
" style="fill:none;stroke:#000000;stroke-dasharray:1.000000,3.000000;stroke-dashoffset:0.0;stroke-width:0.5;"/>
     </g>
     <g id="line2d_33">
      <g>
       <use style="stroke:#000000;stroke-width:0.5;" x="52.8975" xlink:href="#m9cc7b2d444" y="171.912"/>
      </g>
     </g>
     <g id="line2d_34">
      <g>
       <use style="stroke:#000000;stroke-width:0.5;" x="553.4775" xlink:href="#me9f2f40708" y="171.912"/>
      </g>
     </g>
     <g id="text_11">
      <!-- 0.6 -->
      <g transform="translate(29.81375 175.22325)scale(0.12 -0.12)">
       <use xlink:href="#BitstreamVeraSans-Roman-30"/>
       <use x="63.623046875" xlink:href="#BitstreamVeraSans-Roman-2e"/>
       <use x="95.41015625" xlink:href="#BitstreamVeraSans-Roman-36"/>
      </g>
     </g>
    </g>
    <g id="ytick_5">
     <g id="line2d_35">
      <path clip-path="url(#pa4d3fdc455)" d="M 52.8975 100.336 
L 553.4775 100.336 
" style="fill:none;stroke:#000000;stroke-dasharray:1.000000,3.000000;stroke-dashoffset:0.0;stroke-width:0.5;"/>
     </g>
     <g id="line2d_36">
      <g>
       <use style="stroke:#000000;stroke-width:0.5;" x="52.8975" xlink:href="#m9cc7b2d444" y="100.336"/>
      </g>
     </g>
     <g id="line2d_37">
      <g>
       <use style="stroke:#000000;stroke-width:0.5;" x="553.4775" xlink:href="#me9f2f40708" y="100.336"/>
      </g>
     </g>
     <g id="text_12">
      <!-- 0.8 -->
      <g transform="translate(29.81375 103.64725)scale(0.12 -0.12)">
       <use xlink:href="#BitstreamVeraSans-Roman-30"/>
       <use x="63.623046875" xlink:href="#BitstreamVeraSans-Roman-2e"/>
       <use x="95.41015625" xlink:href="#BitstreamVeraSans-Roman-38"/>
      </g>
     </g>
    </g>
    <g id="ytick_6">
     <g id="line2d_38">
      <path clip-path="url(#pa4d3fdc455)" d="M 52.8975 28.76 
L 553.4775 28.76 
" style="fill:none;stroke:#000000;stroke-dasharray:1.000000,3.000000;stroke-dashoffset:0.0;stroke-width:0.5;"/>
     </g>
     <g id="line2d_39">
      <g>
       <use style="stroke:#000000;stroke-width:0.5;" x="52.8975" xlink:href="#m9cc7b2d444" y="28.76"/>
      </g>
     </g>
     <g id="line2d_40">
      <g>
       <use style="stroke:#000000;stroke-width:0.5;" x="553.4775" xlink:href="#me9f2f40708" y="28.76"/>
      </g>
     </g>
     <g id="text_13">
      <!-- 1.0 -->
      <g transform="translate(29.81375 32.07125)scale(0.12 -0.12)">
       <use xlink:href="#BitstreamVeraSans-Roman-31"/>
       <use x="63.623046875" xlink:href="#BitstreamVeraSans-Roman-2e"/>
       <use x="95.41015625" xlink:href="#BitstreamVeraSans-Roman-30"/>
      </g>
     </g>
    </g>
    <g id="text_14">
     <!-- Ratio of Calltargets -->
     <defs>
      <path d="M 45.40625 27.984375 
Q 45.40625 37.75 41.375 43.109375 
Q 37.359375 48.484375 30.078125 48.484375 
Q 22.859375 48.484375 18.828125 43.109375 
Q 14.796875 37.75 14.796875 27.984375 
Q 14.796875 18.265625 18.828125 12.890625 
Q 22.859375 7.515625 30.078125 7.515625 
Q 37.359375 7.515625 41.375 12.890625 
Q 45.40625 18.265625 45.40625 27.984375 
M 54.390625 6.78125 
Q 54.390625 -7.171875 48.1875 -13.984375 
Q 42 -20.796875 29.203125 -20.796875 
Q 24.46875 -20.796875 20.265625 -20.09375 
Q 16.0625 -19.390625 12.109375 -17.921875 
L 12.109375 -9.1875 
Q 16.0625 -11.328125 19.921875 -12.34375 
Q 23.78125 -13.375 27.78125 -13.375 
Q 36.625 -13.375 41.015625 -8.765625 
Q 45.40625 -4.15625 45.40625 5.171875 
L 45.40625 9.625 
Q 42.625 4.78125 38.28125 2.390625 
Q 33.9375 0 27.875 0 
Q 17.828125 0 11.671875 7.65625 
Q 5.515625 15.328125 5.515625 27.984375 
Q 5.515625 40.671875 11.671875 48.328125 
Q 17.828125 56 27.875 56 
Q 33.9375 56 38.28125 53.609375 
Q 42.625 51.21875 45.40625 46.390625 
L 45.40625 54.6875 
L 54.390625 54.6875 
z
" id="BitstreamVeraSans-Roman-67"/>
     </defs>
     <g transform="translate(22.318125 265.5053125)rotate(-90.0)scale(0.12 -0.12)">
      <use xlink:href="#BitstreamVeraSans-Roman-52"/>
      <use x="69.451171875" xlink:href="#BitstreamVeraSans-Roman-61"/>
      <use x="130.73046875" xlink:href="#BitstreamVeraSans-Roman-74"/>
      <use x="169.939453125" xlink:href="#BitstreamVeraSans-Roman-69"/>
      <use x="197.72265625" xlink:href="#BitstreamVeraSans-Roman-6f"/>
      <use x="258.904296875" xlink:href="#BitstreamVeraSans-Roman-20"/>
      <use x="290.69140625" xlink:href="#BitstreamVeraSans-Roman-6f"/>
      <use x="351.873046875" xlink:href="#BitstreamVeraSans-Roman-66"/>
      <use x="387.078125" xlink:href="#BitstreamVeraSans-Roman-20"/>
      <use x="418.865234375" xlink:href="#BitstreamVeraSans-Roman-43"/>
      <use x="488.689453125" xlink:href="#BitstreamVeraSans-Roman-61"/>
      <use x="549.96875" xlink:href="#BitstreamVeraSans-Roman-6c"/>
      <use x="577.751953125" xlink:href="#BitstreamVeraSans-Roman-6c"/>
      <use x="605.53515625" xlink:href="#BitstreamVeraSans-Roman-74"/>
      <use x="644.744140625" xlink:href="#BitstreamVeraSans-Roman-61"/>
      <use x="706.0234375" xlink:href="#BitstreamVeraSans-Roman-72"/>
      <use x="747.12109375" xlink:href="#BitstreamVeraSans-Roman-67"/>
      <use x="810.59765625" xlink:href="#BitstreamVeraSans-Roman-65"/>
      <use x="872.12109375" xlink:href="#BitstreamVeraSans-Roman-74"/>
      <use x="911.330078125" xlink:href="#BitstreamVeraSans-Roman-73"/>
     </g>
    </g>
   </g>
   <g id="text_15">
    <!-- mysql O2 -->
    <defs>
     <path d="M 52 44.1875 
Q 55.375 50.25 60.0625 53.125 
Q 64.75 56 71.09375 56 
Q 79.640625 56 84.28125 50.015625 
Q 88.921875 44.046875 88.921875 33.015625 
L 88.921875 0 
L 79.890625 0 
L 79.890625 32.71875 
Q 79.890625 40.578125 77.09375 44.375 
Q 74.3125 48.1875 68.609375 48.1875 
Q 61.625 48.1875 57.5625 43.546875 
Q 53.515625 38.921875 53.515625 30.90625 
L 53.515625 0 
L 44.484375 0 
L 44.484375 32.71875 
Q 44.484375 40.625 41.703125 44.40625 
Q 38.921875 48.1875 33.109375 48.1875 
Q 26.21875 48.1875 22.15625 43.53125 
Q 18.109375 38.875 18.109375 30.90625 
L 18.109375 0 
L 9.078125 0 
L 9.078125 54.6875 
L 18.109375 54.6875 
L 18.109375 46.1875 
Q 21.1875 51.21875 25.484375 53.609375 
Q 29.78125 56 35.6875 56 
Q 41.65625 56 45.828125 52.96875 
Q 50 49.953125 52 44.1875 
" id="BitstreamVeraSans-Roman-6d"/>
     <path d="M 14.796875 27.296875 
Q 14.796875 17.390625 18.875 11.75 
Q 22.953125 6.109375 30.078125 6.109375 
Q 37.203125 6.109375 41.296875 11.75 
Q 45.40625 17.390625 45.40625 27.296875 
Q 45.40625 37.203125 41.296875 42.84375 
Q 37.203125 48.484375 30.078125 48.484375 
Q 22.953125 48.484375 18.875 42.84375 
Q 14.796875 37.203125 14.796875 27.296875 
M 45.40625 8.203125 
Q 42.578125 3.328125 38.25 0.953125 
Q 33.9375 -1.421875 27.875 -1.421875 
Q 17.96875 -1.421875 11.734375 6.484375 
Q 5.515625 14.40625 5.515625 27.296875 
Q 5.515625 40.1875 11.734375 48.09375 
Q 17.96875 56 27.875 56 
Q 33.9375 56 38.25 53.625 
Q 42.578125 51.265625 45.40625 46.390625 
L 45.40625 54.6875 
L 54.390625 54.6875 
L 54.390625 -20.796875 
L 45.40625 -20.796875 
z
" id="BitstreamVeraSans-Roman-71"/>
     <path d="M 39.40625 66.21875 
Q 28.65625 66.21875 22.328125 58.203125 
Q 16.015625 50.203125 16.015625 36.375 
Q 16.015625 22.609375 22.328125 14.59375 
Q 28.65625 6.59375 39.40625 6.59375 
Q 50.140625 6.59375 56.421875 14.59375 
Q 62.703125 22.609375 62.703125 36.375 
Q 62.703125 50.203125 56.421875 58.203125 
Q 50.140625 66.21875 39.40625 66.21875 
M 39.40625 74.21875 
Q 54.734375 74.21875 63.90625 63.9375 
Q 73.09375 53.65625 73.09375 36.375 
Q 73.09375 19.140625 63.90625 8.859375 
Q 54.734375 -1.421875 39.40625 -1.421875 
Q 24.03125 -1.421875 14.8125 8.828125 
Q 5.609375 19.09375 5.609375 36.375 
Q 5.609375 53.65625 14.8125 63.9375 
Q 24.03125 74.21875 39.40625 74.21875 
" id="BitstreamVeraSans-Roman-4f"/>
     <path d="M 32.171875 -5.078125 
Q 28.375 -14.84375 24.75 -17.8125 
Q 21.140625 -20.796875 15.09375 -20.796875 
L 7.90625 -20.796875 
L 7.90625 -13.28125 
L 13.1875 -13.28125 
Q 16.890625 -13.28125 18.9375 -11.515625 
Q 21 -9.765625 23.484375 -3.21875 
L 25.09375 0.875 
L 2.984375 54.6875 
L 12.5 54.6875 
L 29.59375 11.921875 
L 46.6875 54.6875 
L 56.203125 54.6875 
z
" id="BitstreamVeraSans-Roman-79"/>
    </defs>
    <g transform="translate(269.053875 23.76)scale(0.144 -0.144)">
     <use xlink:href="#BitstreamVeraSans-Roman-6d"/>
     <use x="97.412109375" xlink:href="#BitstreamVeraSans-Roman-79"/>
     <use x="156.591796875" xlink:href="#BitstreamVeraSans-Roman-73"/>
     <use x="208.69140625" xlink:href="#BitstreamVeraSans-Roman-71"/>
     <use x="272.16796875" xlink:href="#BitstreamVeraSans-Roman-6c"/>
     <use x="299.951171875" xlink:href="#BitstreamVeraSans-Roman-20"/>
     <use x="331.73828125" xlink:href="#BitstreamVeraSans-Roman-4f"/>
     <use x="410.44921875" xlink:href="#BitstreamVeraSans-Roman-32"/>
    </g>
   </g>
   <g id="legend_1">
    <g id="patch_7">
     <path d="M 446.6115 379.44 
L 546.2775 379.44 
L 546.2775 290.574 
L 446.6115 290.574 
z
" style="fill:#ffffff;stroke:#000000;stroke-linejoin:miter;"/>
    </g>
    <g id="line2d_41">
     <path d="M 456.6915 302.23575 
L 476.8515 302.23575 
" style="fill:none;stroke:#0000ff;stroke-linecap:square;"/>
    </g>
    <g id="line2d_42"/>
    <g id="text_16">
     <!-- count* -->
     <defs>
      <path d="M 47.015625 60.890625 
L 29.5 51.421875 
L 47.015625 41.890625 
L 44.1875 37.109375 
L 27.78125 47.015625 
L 27.78125 28.609375 
L 22.21875 28.609375 
L 22.21875 47.015625 
L 5.8125 37.109375 
L 2.984375 41.890625 
L 20.515625 51.421875 
L 2.984375 60.890625 
L 5.8125 65.71875 
L 22.21875 55.8125 
L 22.21875 74.21875 
L 27.78125 74.21875 
L 27.78125 55.8125 
L 44.1875 65.71875 
z
" id="BitstreamVeraSans-Roman-2a"/>
      <path d="M 8.5 21.578125 
L 8.5 54.6875 
L 17.484375 54.6875 
L 17.484375 21.921875 
Q 17.484375 14.15625 20.5 10.265625 
Q 23.53125 6.390625 29.59375 6.390625 
Q 36.859375 6.390625 41.078125 11.03125 
Q 45.3125 15.671875 45.3125 23.6875 
L 45.3125 54.6875 
L 54.296875 54.6875 
L 54.296875 0 
L 45.3125 0 
L 45.3125 8.40625 
Q 42.046875 3.421875 37.71875 1 
Q 33.40625 -1.421875 27.6875 -1.421875 
Q 18.265625 -1.421875 13.375 4.4375 
Q 8.5 10.296875 8.5 21.578125 
" id="BitstreamVeraSans-Roman-75"/>
     </defs>
     <g transform="translate(492.6915 307.27575)scale(0.144 -0.144)">
      <use xlink:href="#BitstreamVeraSans-Roman-63"/>
      <use x="54.98046875" xlink:href="#BitstreamVeraSans-Roman-6f"/>
      <use x="116.162109375" xlink:href="#BitstreamVeraSans-Roman-75"/>
      <use x="179.541015625" xlink:href="#BitstreamVeraSans-Roman-6e"/>
      <use x="242.919921875" xlink:href="#BitstreamVeraSans-Roman-74"/>
      <use x="282.12890625" xlink:href="#BitstreamVeraSans-Roman-2a"/>
     </g>
    </g>
    <g id="line2d_43">
     <path d="M 456.6915 323.37225 
L 476.8515 323.37225 
" style="fill:none;stroke:#0000ff;stroke-dasharray:6.000000,6.000000;stroke-dashoffset:0.0;"/>
    </g>
    <g id="line2d_44"/>
    <g id="text_17">
     <!-- count -->
     <g transform="translate(492.6915 328.41225)scale(0.144 -0.144)">
      <use xlink:href="#BitstreamVeraSans-Roman-63"/>
      <use x="54.98046875" xlink:href="#BitstreamVeraSans-Roman-6f"/>
      <use x="116.162109375" xlink:href="#BitstreamVeraSans-Roman-75"/>
      <use x="179.541015625" xlink:href="#BitstreamVeraSans-Roman-6e"/>
      <use x="242.919921875" xlink:href="#BitstreamVeraSans-Roman-74"/>
     </g>
    </g>
    <g id="line2d_45">
     <path d="M 456.6915 344.50875 
L 476.8515 344.50875 
" style="fill:none;stroke:#ff0000;stroke-linecap:square;"/>
    </g>
    <g id="line2d_46"/>
    <g id="text_18">
     <!-- type* -->
     <defs>
      <path d="M 18.109375 8.203125 
L 18.109375 -20.796875 
L 9.078125 -20.796875 
L 9.078125 54.6875 
L 18.109375 54.6875 
L 18.109375 46.390625 
Q 20.953125 51.265625 25.265625 53.625 
Q 29.59375 56 35.59375 56 
Q 45.5625 56 51.78125 48.09375 
Q 58.015625 40.1875 58.015625 27.296875 
Q 58.015625 14.40625 51.78125 6.484375 
Q 45.5625 -1.421875 35.59375 -1.421875 
Q 29.59375 -1.421875 25.265625 0.953125 
Q 20.953125 3.328125 18.109375 8.203125 
M 48.6875 27.296875 
Q 48.6875 37.203125 44.609375 42.84375 
Q 40.53125 48.484375 33.40625 48.484375 
Q 26.265625 48.484375 22.1875 42.84375 
Q 18.109375 37.203125 18.109375 27.296875 
Q 18.109375 17.390625 22.1875 11.75 
Q 26.265625 6.109375 33.40625 6.109375 
Q 40.53125 6.109375 44.609375 11.75 
Q 48.6875 17.390625 48.6875 27.296875 
" id="BitstreamVeraSans-Roman-70"/>
     </defs>
     <g transform="translate(492.6915 349.54875)scale(0.144 -0.144)">
      <use xlink:href="#BitstreamVeraSans-Roman-74"/>
      <use x="39.208984375" xlink:href="#BitstreamVeraSans-Roman-79"/>
      <use x="98.388671875" xlink:href="#BitstreamVeraSans-Roman-70"/>
      <use x="161.865234375" xlink:href="#BitstreamVeraSans-Roman-65"/>
      <use x="223.388671875" xlink:href="#BitstreamVeraSans-Roman-2a"/>
     </g>
    </g>
    <g id="line2d_47">
     <path d="M 456.6915 365.64525 
L 476.8515 365.64525 
" style="fill:none;stroke:#ff0000;stroke-dasharray:6.000000,6.000000;stroke-dashoffset:0.0;"/>
    </g>
    <g id="line2d_48"/>
    <g id="text_19">
     <!-- type -->
     <g transform="translate(492.6915 370.68525)scale(0.144 -0.144)">
      <use xlink:href="#BitstreamVeraSans-Roman-74"/>
      <use x="39.208984375" xlink:href="#BitstreamVeraSans-Roman-79"/>
      <use x="98.388671875" xlink:href="#BitstreamVeraSans-Roman-70"/>
      <use x="161.865234375" xlink:href="#BitstreamVeraSans-Roman-65"/>
     </g>
    </g>
   </g>
  </g>
 </g>
 <defs>
  <clipPath id="pa4d3fdc455">
   <rect height="357.88" width="500.58" x="52.8975" y="28.76"/>
  </clipPath>
 </defs>
</svg>
