<?xml version="1.0" encoding="utf-8" standalone="no"?>
<!DOCTYPE svg PUBLIC "-//W3C//DTD SVG 1.1//EN"
  "http://www.w3.org/Graphics/SVG/1.1/DTD/svg11.dtd">
<!-- Created with matplotlib (http://matplotlib.org/) -->
<svg height="432pt" version="1.1" viewBox="0 0 576 432" width="576pt" xmlns="http://www.w3.org/2000/svg" xmlns:xlink="http://www.w3.org/1999/xlink">
 <defs>
  <style type="text/css">
*{stroke-linecap:butt;stroke-linejoin:round;stroke-miterlimit:100000;}
  </style>
 </defs>
 <g id="figure_1">
  <g id="patch_1">
   <path d="M 0 432 
L 576 432 
L 576 0 
L 0 0 
z
" style="fill:#ffffff;"/>
  </g>
  <g id="axes_1">
   <g id="patch_2">
    <path d="M 49.58775 389.13525 
L 554.452312 389.13525 
L 554.452312 27.807575 
L 49.58775 27.807575 
z
" style="fill:#ffffff;"/>
   </g>
   <g id="line2d_1">
    <path clip-path="url(#pdbc1c5a573)" d="M 49.58775 387.115047 
L 64.693934 387.115047 
L 65.488996 385.094845 
L 93.316177 385.094845 
L 94.111239 105.873978 
L 186.338466 105.873978 
L 187.133528 91.155358 
L 237.222454 91.155358 
L 238.017516 82.641647 
L 362.047235 82.641647 
L 362.842297 70.231831 
L 421.676908 70.231831 
L 422.47197 63.882622 
L 478.126331 63.882622 
L 478.921394 63.449722 
L 481.306581 63.449722 
L 482.101643 58.399215 
L 518.674509 58.399215 
L 519.469571 38.91869 
L 532.98563 38.91869 
L 533.780693 29.683477 
L 546.501689 29.683477 
L 547.296752 28.673376 
L 549.681939 28.673376 
L 550.477001 27.807575 
L 553.65725 27.807575 
L 553.65725 27.807575 
" style="fill:none;stroke:#0000ff;stroke-linecap:square;"/>
   </g>
   <g id="line2d_2">
    <path clip-path="url(#pdbc1c5a573)" d="M 49.58775 369.221824 
L 63.103809 369.221824 
L 63.898871 357.244908 
L 91.726052 357.244908 
L 92.521114 121.458398 
L 137.044603 121.458398 
L 137.839666 97.071666 
L 239.60764 97.071666 
L 240.402703 85.23905 
L 270.61507 85.23905 
L 271.410133 82.930247 
L 323.884245 82.930247 
L 324.679307 78.745542 
L 399.415163 78.745542 
L 400.210226 78.312641 
L 402.595413 78.312641 
L 403.390475 77.879741 
L 434.397905 77.879741 
L 435.192967 52.482907 
L 477.331269 52.482907 
L 478.126331 38.341489 
L 496.412764 38.341489 
L 497.207827 31.126479 
L 535.370817 31.126479 
L 536.16588 30.260678 
L 538.551066 30.260678 
L 539.346129 29.394877 
L 553.65725 29.394877 
L 553.65725 29.394877 
" style="fill:none;stroke:#0000ff;stroke-dasharray:6.000000,6.000000;stroke-dashoffset:0.0;"/>
   </g>
   <g id="line2d_3">
    <path clip-path="url(#pdbc1c5a573)" d="M 49.58775 387.547948 
L 54.358124 387.547948 
L 55.153186 387.115047 
L 67.079121 387.115047 
L 67.874183 386.970747 
L 70.25937 386.970747 
L 71.054432 386.104946 
L 76.619868 386.104946 
L 77.414931 385.094845 
L 105.242111 385.094845 
L 106.037174 384.661944 
L 111.60261 384.661944 
L 112.397672 383.507543 
L 113.192734 383.507543 
L 113.987797 378.745636 
L 114.782859 375.282432 
L 116.372983 375.282432 
L 117.168046 374.993831 
L 118.75817 374.993831 
L 119.553233 373.83943 
L 120.348295 373.55083 
L 124.323606 373.55083 
L 125.118669 112.656087 
L 203.034775 112.656087 
L 203.829837 109.770083 
L 247.558263 109.770083 
L 248.353326 109.481482 
L 250.738513 109.481482 
L 251.533575 109.192882 
L 255.508887 109.192882 
L 256.303949 106.451178 
L 269.024946 106.451178 
L 269.820008 106.018278 
L 273.795319 106.018278 
L 274.590382 105.873978 
L 275.385444 103.565175 
L 278.565693 103.565175 
L 279.360756 101.833572 
L 280.155818 101.544972 
L 281.745943 101.544972 
L 282.541005 99.95767 
L 330.244743 99.95767 
L 331.039805 99.524769 
L 331.834868 99.524769 
L 332.62993 99.236169 
L 333.424992 99.236169 
L 334.220055 94.329962 
L 338.990428 94.329962 
L 339.785491 91.155358 
L 389.874416 91.155358 
L 390.669478 89.423756 
L 394.64479 89.423756 
L 395.439852 89.135156 
L 397.825039 89.135156 
L 398.620101 86.393452 
L 407.365786 86.393452 
L 408.160849 86.249152 
L 408.955911 86.249152 
L 409.750973 85.671951 
L 431.217656 85.671951 
L 432.012718 83.218848 
L 432.80778 82.641647 
L 494.027577 82.641647 
L 494.82264 82.353047 
L 495.617702 82.353047 
L 496.412764 80.188544 
L 497.207827 79.899943 
L 498.002889 79.899943 
L 498.797951 79.611343 
L 499.593014 79.178443 
L 500.388076 78.889842 
L 501.183138 78.889842 
L 501.9782 73.983636 
L 510.723886 73.983636 
L 511.518948 73.550735 
L 517.879447 73.550735 
L 518.674509 58.399215 
L 540.936253 58.399215 
L 541.731316 48.875403 
L 542.526378 48.875403 
L 543.32144 47.576701 
L 544.116503 47.576701 
L 544.911565 46.8552 
L 545.706627 46.8552 
L 546.501689 38.91869 
L 548.886876 38.91869 
L 549.681939 38.630089 
L 551.272063 38.630089 
L 552.067126 35.744085 
L 552.862188 29.683477 
L 553.65725 28.673376 
L 553.65725 28.673376 
" style="fill:none;stroke:#ff0000;stroke-linecap:square;"/>
   </g>
   <g id="line2d_4">
    <path clip-path="url(#pdbc1c5a573)" d="M 49.58775 372.540728 
L 50.382812 372.540728 
L 51.177875 372.540728 
L 51.972937 368.933223 
L 52.767999 368.933223 
L 54.358124 368.356023 
L 65.488996 368.356023 
L 66.284058 368.067422 
L 67.079121 367.345921 
L 67.874183 366.19152 
L 68.669245 365.614319 
L 70.25937 365.614319 
L 71.054432 365.037118 
L 73.439619 365.037118 
L 74.234681 363.882717 
L 75.824806 363.882717 
L 76.619868 363.594116 
L 78.209993 363.594116 
L 79.005055 362.872615 
L 80.59518 362.872615 
L 81.390242 362.728315 
L 82.185304 362.439715 
L 82.980367 357.244908 
L 110.807547 357.244908 
L 111.60261 352.050101 
L 113.192734 352.050101 
L 113.987797 350.8957 
L 117.168046 350.8957 
L 117.963108 350.174199 
L 120.348295 350.174199 
L 121.143357 209.625814 
L 162.486597 209.625814 
L 163.281659 207.172711 
L 164.871784 207.172711 
L 165.666846 204.863908 
L 167.256971 204.863908 
L 168.052033 203.998107 
L 168.847095 203.565206 
L 169.642158 201.833604 
L 171.232282 201.833604 
L 172.027345 200.390602 
L 213.370584 200.390602 
L 214.165647 199.813401 
L 214.960709 197.071698 
L 215.755771 196.927397 
L 218.140958 196.927397 
L 218.936021 196.638797 
L 219.731083 196.494497 
L 220.526145 196.205896 
L 221.321207 193.608493 
L 224.501457 193.608493 
L 225.296519 193.464193 
L 226.091581 192.886992 
L 227.681706 192.886992 
L 228.476768 192.742692 
L 229.271831 192.309791 
L 230.066893 192.309791 
L 230.861955 187.980786 
L 255.508887 187.980786 
L 257.099011 186.682084 
L 270.61507 186.682084 
L 271.410133 169.510361 
L 272.205195 169.510361 
L 273.000257 164.171254 
L 274.590382 164.171254 
L 275.385444 156.667644 
L 276.180506 156.667644 
L 276.975569 155.946143 
L 277.770631 149.885535 
L 281.745943 149.885535 
L 282.541005 144.257828 
L 284.131129 144.257828 
L 284.926192 143.247727 
L 285.721254 142.959126 
L 286.516316 142.959126 
L 287.311379 139.784522 
L 288.106441 139.495922 
L 288.901503 137.76432 
L 295.262002 137.76432 
L 296.057064 136.609918 
L 296.852126 131.415111 
L 311.95831 131.415111 
L 312.753372 129.827809 
L 314.343497 129.827809 
L 315.138559 127.807606 
L 315.933622 111.213085 
L 316.728684 111.213085 
L 317.523746 103.998075 
L 318.318808 100.10197 
L 319.113871 99.091869 
L 319.908933 84.95045 
L 367.612671 84.95045 
L 368.407734 84.80615 
L 369.202796 82.930247 
L 421.676908 82.930247 
L 422.47197 80.477144 
L 423.267032 78.745542 
L 426.447282 78.745542 
L 427.242344 78.601242 
L 428.037406 77.59114 
L 428.832469 77.15824 
L 431.217656 77.15824 
L 432.012718 76.436739 
L 432.80778 75.138037 
L 438.373216 75.138037 
L 439.168279 71.963433 
L 439.963341 71.819133 
L 440.758403 71.097632 
L 443.14359 71.097632 
L 443.938652 70.664731 
L 451.889275 70.664731 
L 452.684338 70.520431 
L 455.069525 70.520431 
L 455.864587 70.087531 
L 458.249774 70.087531 
L 459.839898 69.51033 
L 460.634961 69.51033 
L 461.430023 66.047125 
L 467.790521 66.047125 
L 468.585584 64.892724 
L 470.970771 64.892724 
L 471.765833 64.315523 
L 473.355958 64.315523 
L 474.15102 63.738322 
L 474.946082 63.738322 
L 475.741144 52.482907 
L 509.928824 52.482907 
L 510.723886 45.989399 
L 513.109073 45.989399 
L 513.904135 44.690697 
L 514.699197 44.690697 
L 515.49426 43.536296 
L 516.289322 43.536296 
L 517.084384 38.341489 
L 521.059696 38.341489 
L 521.854758 38.197189 
L 522.64982 36.898487 
L 525.035007 36.898487 
L 525.83007 36.032686 
L 526.625132 31.126479 
L 545.706627 31.126479 
L 546.501689 30.693579 
L 548.091814 29.394877 
L 553.65725 29.394877 
L 553.65725 29.394877 
" style="fill:none;stroke:#ff0000;stroke-dasharray:6.000000,6.000000;stroke-dashoffset:0.0;"/>
   </g>
   <g id="patch_3">
    <path d="M 49.58775 27.807575 
L 554.452312 27.807575 
" style="fill:none;stroke:#000000;stroke-linecap:square;stroke-linejoin:miter;"/>
   </g>
   <g id="patch_4">
    <path d="M 554.452312 389.13525 
L 554.452312 27.807575 
" style="fill:none;stroke:#000000;stroke-linecap:square;stroke-linejoin:miter;"/>
   </g>
   <g id="patch_5">
    <path d="M 49.58775 389.13525 
L 554.452312 389.13525 
" style="fill:none;stroke:#000000;stroke-linecap:square;stroke-linejoin:miter;"/>
   </g>
   <g id="patch_6">
    <path d="M 49.58775 389.13525 
L 49.58775 27.807575 
" style="fill:none;stroke:#000000;stroke-linecap:square;stroke-linejoin:miter;"/>
   </g>
   <g id="matplotlib.axis_1">
    <g id="xtick_1">
     <g id="line2d_5">
      <path clip-path="url(#pdbc1c5a573)" d="M 49.58775 389.13525 
L 49.58775 27.807575 
" style="fill:none;stroke:#000000;stroke-dasharray:1.000000,3.000000;stroke-dashoffset:0.0;stroke-width:0.5;"/>
     </g>
     <g id="line2d_6">
      <defs>
       <path d="M 0 0 
L 0 -4 
" id="ma82927d4d0" style="stroke:#000000;stroke-width:0.5;"/>
      </defs>
      <g>
       <use style="stroke:#000000;stroke-width:0.5;" x="49.58775" xlink:href="#ma82927d4d0" y="389.13525"/>
      </g>
     </g>
     <g id="line2d_7">
      <defs>
       <path d="M 0 0 
L 0 4 
" id="me9e03f2f63" style="stroke:#000000;stroke-width:0.5;"/>
      </defs>
      <g>
       <use style="stroke:#000000;stroke-width:0.5;" x="49.58775" xlink:href="#me9e03f2f63" y="27.807575"/>
      </g>
     </g>
     <g id="text_1">
      <!-- 0.0 -->
      <defs>
       <path d="M 31.78125 66.40625 
Q 24.171875 66.40625 20.328125 58.90625 
Q 16.5 51.421875 16.5 36.375 
Q 16.5 21.390625 20.328125 13.890625 
Q 24.171875 6.390625 31.78125 6.390625 
Q 39.453125 6.390625 43.28125 13.890625 
Q 47.125 21.390625 47.125 36.375 
Q 47.125 51.421875 43.28125 58.90625 
Q 39.453125 66.40625 31.78125 66.40625 
M 31.78125 74.21875 
Q 44.046875 74.21875 50.515625 64.515625 
Q 56.984375 54.828125 56.984375 36.375 
Q 56.984375 17.96875 50.515625 8.265625 
Q 44.046875 -1.421875 31.78125 -1.421875 
Q 19.53125 -1.421875 13.0625 8.265625 
Q 6.59375 17.96875 6.59375 36.375 
Q 6.59375 54.828125 13.0625 64.515625 
Q 19.53125 74.21875 31.78125 74.21875 
" id="BitstreamVeraSans-Roman-30"/>
       <path d="M 10.6875 12.40625 
L 21 12.40625 
L 21 0 
L 10.6875 0 
z
" id="BitstreamVeraSans-Roman-2e"/>
      </defs>
      <g transform="translate(40.045875 402.253375)scale(0.12 -0.12)">
       <use xlink:href="#BitstreamVeraSans-Roman-30"/>
       <use x="63.623046875" xlink:href="#BitstreamVeraSans-Roman-2e"/>
       <use x="95.41015625" xlink:href="#BitstreamVeraSans-Roman-30"/>
      </g>
     </g>
    </g>
    <g id="xtick_2">
     <g id="line2d_8">
      <path clip-path="url(#pdbc1c5a573)" d="M 150.560663 389.13525 
L 150.560663 27.807575 
" style="fill:none;stroke:#000000;stroke-dasharray:1.000000,3.000000;stroke-dashoffset:0.0;stroke-width:0.5;"/>
     </g>
     <g id="line2d_9">
      <g>
       <use style="stroke:#000000;stroke-width:0.5;" x="150.5606625" xlink:href="#ma82927d4d0" y="389.13525"/>
      </g>
     </g>
     <g id="line2d_10">
      <g>
       <use style="stroke:#000000;stroke-width:0.5;" x="150.5606625" xlink:href="#me9e03f2f63" y="27.807575"/>
      </g>
     </g>
     <g id="text_2">
      <!-- 0.2 -->
      <defs>
       <path d="M 19.1875 8.296875 
L 53.609375 8.296875 
L 53.609375 0 
L 7.328125 0 
L 7.328125 8.296875 
Q 12.9375 14.109375 22.625 23.890625 
Q 32.328125 33.6875 34.8125 36.53125 
Q 39.546875 41.84375 41.421875 45.53125 
Q 43.3125 49.21875 43.3125 52.78125 
Q 43.3125 58.59375 39.234375 62.25 
Q 35.15625 65.921875 28.609375 65.921875 
Q 23.96875 65.921875 18.8125 64.3125 
Q 13.671875 62.703125 7.8125 59.421875 
L 7.8125 69.390625 
Q 13.765625 71.78125 18.9375 73 
Q 24.125 74.21875 28.421875 74.21875 
Q 39.75 74.21875 46.484375 68.546875 
Q 53.21875 62.890625 53.21875 53.421875 
Q 53.21875 48.921875 51.53125 44.890625 
Q 49.859375 40.875 45.40625 35.40625 
Q 44.1875 33.984375 37.640625 27.21875 
Q 31.109375 20.453125 19.1875 8.296875 
" id="BitstreamVeraSans-Roman-32"/>
      </defs>
      <g transform="translate(141.0187875 402.253375)scale(0.12 -0.12)">
       <use xlink:href="#BitstreamVeraSans-Roman-30"/>
       <use x="63.623046875" xlink:href="#BitstreamVeraSans-Roman-2e"/>
       <use x="95.41015625" xlink:href="#BitstreamVeraSans-Roman-32"/>
      </g>
     </g>
    </g>
    <g id="xtick_3">
     <g id="line2d_11">
      <path clip-path="url(#pdbc1c5a573)" d="M 251.533575 389.13525 
L 251.533575 27.807575 
" style="fill:none;stroke:#000000;stroke-dasharray:1.000000,3.000000;stroke-dashoffset:0.0;stroke-width:0.5;"/>
     </g>
     <g id="line2d_12">
      <g>
       <use style="stroke:#000000;stroke-width:0.5;" x="251.533575" xlink:href="#ma82927d4d0" y="389.13525"/>
      </g>
     </g>
     <g id="line2d_13">
      <g>
       <use style="stroke:#000000;stroke-width:0.5;" x="251.533575" xlink:href="#me9e03f2f63" y="27.807575"/>
      </g>
     </g>
     <g id="text_3">
      <!-- 0.4 -->
      <defs>
       <path d="M 37.796875 64.3125 
L 12.890625 25.390625 
L 37.796875 25.390625 
z
M 35.203125 72.90625 
L 47.609375 72.90625 
L 47.609375 25.390625 
L 58.015625 25.390625 
L 58.015625 17.1875 
L 47.609375 17.1875 
L 47.609375 0 
L 37.796875 0 
L 37.796875 17.1875 
L 4.890625 17.1875 
L 4.890625 26.703125 
z
" id="BitstreamVeraSans-Roman-34"/>
      </defs>
      <g transform="translate(241.9917 402.253375)scale(0.12 -0.12)">
       <use xlink:href="#BitstreamVeraSans-Roman-30"/>
       <use x="63.623046875" xlink:href="#BitstreamVeraSans-Roman-2e"/>
       <use x="95.41015625" xlink:href="#BitstreamVeraSans-Roman-34"/>
      </g>
     </g>
    </g>
    <g id="xtick_4">
     <g id="line2d_14">
      <path clip-path="url(#pdbc1c5a573)" d="M 352.506487 389.13525 
L 352.506487 27.807575 
" style="fill:none;stroke:#000000;stroke-dasharray:1.000000,3.000000;stroke-dashoffset:0.0;stroke-width:0.5;"/>
     </g>
     <g id="line2d_15">
      <g>
       <use style="stroke:#000000;stroke-width:0.5;" x="352.5064875" xlink:href="#ma82927d4d0" y="389.13525"/>
      </g>
     </g>
     <g id="line2d_16">
      <g>
       <use style="stroke:#000000;stroke-width:0.5;" x="352.5064875" xlink:href="#me9e03f2f63" y="27.807575"/>
      </g>
     </g>
     <g id="text_4">
      <!-- 0.6 -->
      <defs>
       <path d="M 33.015625 40.375 
Q 26.375 40.375 22.484375 35.828125 
Q 18.609375 31.296875 18.609375 23.390625 
Q 18.609375 15.53125 22.484375 10.953125 
Q 26.375 6.390625 33.015625 6.390625 
Q 39.65625 6.390625 43.53125 10.953125 
Q 47.40625 15.53125 47.40625 23.390625 
Q 47.40625 31.296875 43.53125 35.828125 
Q 39.65625 40.375 33.015625 40.375 
M 52.59375 71.296875 
L 52.59375 62.3125 
Q 48.875 64.0625 45.09375 64.984375 
Q 41.3125 65.921875 37.59375 65.921875 
Q 27.828125 65.921875 22.671875 59.328125 
Q 17.53125 52.734375 16.796875 39.40625 
Q 19.671875 43.65625 24.015625 45.921875 
Q 28.375 48.1875 33.59375 48.1875 
Q 44.578125 48.1875 50.953125 41.515625 
Q 57.328125 34.859375 57.328125 23.390625 
Q 57.328125 12.15625 50.6875 5.359375 
Q 44.046875 -1.421875 33.015625 -1.421875 
Q 20.359375 -1.421875 13.671875 8.265625 
Q 6.984375 17.96875 6.984375 36.375 
Q 6.984375 53.65625 15.1875 63.9375 
Q 23.390625 74.21875 37.203125 74.21875 
Q 40.921875 74.21875 44.703125 73.484375 
Q 48.484375 72.75 52.59375 71.296875 
" id="BitstreamVeraSans-Roman-36"/>
      </defs>
      <g transform="translate(342.9646125 402.253375)scale(0.12 -0.12)">
       <use xlink:href="#BitstreamVeraSans-Roman-30"/>
       <use x="63.623046875" xlink:href="#BitstreamVeraSans-Roman-2e"/>
       <use x="95.41015625" xlink:href="#BitstreamVeraSans-Roman-36"/>
      </g>
     </g>
    </g>
    <g id="xtick_5">
     <g id="line2d_17">
      <path clip-path="url(#pdbc1c5a573)" d="M 453.4794 389.13525 
L 453.4794 27.807575 
" style="fill:none;stroke:#000000;stroke-dasharray:1.000000,3.000000;stroke-dashoffset:0.0;stroke-width:0.5;"/>
     </g>
     <g id="line2d_18">
      <g>
       <use style="stroke:#000000;stroke-width:0.5;" x="453.4794" xlink:href="#ma82927d4d0" y="389.13525"/>
      </g>
     </g>
     <g id="line2d_19">
      <g>
       <use style="stroke:#000000;stroke-width:0.5;" x="453.4794" xlink:href="#me9e03f2f63" y="27.807575"/>
      </g>
     </g>
     <g id="text_5">
      <!-- 0.8 -->
      <defs>
       <path d="M 31.78125 34.625 
Q 24.75 34.625 20.71875 30.859375 
Q 16.703125 27.09375 16.703125 20.515625 
Q 16.703125 13.921875 20.71875 10.15625 
Q 24.75 6.390625 31.78125 6.390625 
Q 38.8125 6.390625 42.859375 10.171875 
Q 46.921875 13.96875 46.921875 20.515625 
Q 46.921875 27.09375 42.890625 30.859375 
Q 38.875 34.625 31.78125 34.625 
M 21.921875 38.8125 
Q 15.578125 40.375 12.03125 44.71875 
Q 8.5 49.078125 8.5 55.328125 
Q 8.5 64.0625 14.71875 69.140625 
Q 20.953125 74.21875 31.78125 74.21875 
Q 42.671875 74.21875 48.875 69.140625 
Q 55.078125 64.0625 55.078125 55.328125 
Q 55.078125 49.078125 51.53125 44.71875 
Q 48 40.375 41.703125 38.8125 
Q 48.828125 37.15625 52.796875 32.3125 
Q 56.78125 27.484375 56.78125 20.515625 
Q 56.78125 9.90625 50.3125 4.234375 
Q 43.84375 -1.421875 31.78125 -1.421875 
Q 19.734375 -1.421875 13.25 4.234375 
Q 6.78125 9.90625 6.78125 20.515625 
Q 6.78125 27.484375 10.78125 32.3125 
Q 14.796875 37.15625 21.921875 38.8125 
M 18.3125 54.390625 
Q 18.3125 48.734375 21.84375 45.5625 
Q 25.390625 42.390625 31.78125 42.390625 
Q 38.140625 42.390625 41.71875 45.5625 
Q 45.3125 48.734375 45.3125 54.390625 
Q 45.3125 60.0625 41.71875 63.234375 
Q 38.140625 66.40625 31.78125 66.40625 
Q 25.390625 66.40625 21.84375 63.234375 
Q 18.3125 60.0625 18.3125 54.390625 
" id="BitstreamVeraSans-Roman-38"/>
      </defs>
      <g transform="translate(443.937525 402.253375)scale(0.12 -0.12)">
       <use xlink:href="#BitstreamVeraSans-Roman-30"/>
       <use x="63.623046875" xlink:href="#BitstreamVeraSans-Roman-2e"/>
       <use x="95.41015625" xlink:href="#BitstreamVeraSans-Roman-38"/>
      </g>
     </g>
    </g>
    <g id="xtick_6">
     <g id="line2d_20">
      <path clip-path="url(#pdbc1c5a573)" d="M 554.452312 389.13525 
L 554.452312 27.807575 
" style="fill:none;stroke:#000000;stroke-dasharray:1.000000,3.000000;stroke-dashoffset:0.0;stroke-width:0.5;"/>
     </g>
     <g id="line2d_21">
      <g>
       <use style="stroke:#000000;stroke-width:0.5;" x="554.4523125" xlink:href="#ma82927d4d0" y="389.13525"/>
      </g>
     </g>
     <g id="line2d_22">
      <g>
       <use style="stroke:#000000;stroke-width:0.5;" x="554.4523125" xlink:href="#me9e03f2f63" y="27.807575"/>
      </g>
     </g>
     <g id="text_6">
      <!-- 1.0 -->
      <defs>
       <path d="M 12.40625 8.296875 
L 28.515625 8.296875 
L 28.515625 63.921875 
L 10.984375 60.40625 
L 10.984375 69.390625 
L 28.421875 72.90625 
L 38.28125 72.90625 
L 38.28125 8.296875 
L 54.390625 8.296875 
L 54.390625 0 
L 12.40625 0 
z
" id="BitstreamVeraSans-Roman-31"/>
      </defs>
      <g transform="translate(544.9104375 402.253375)scale(0.12 -0.12)">
       <use xlink:href="#BitstreamVeraSans-Roman-31"/>
       <use x="63.623046875" xlink:href="#BitstreamVeraSans-Roman-2e"/>
       <use x="95.41015625" xlink:href="#BitstreamVeraSans-Roman-30"/>
      </g>
     </g>
    </g>
    <g id="text_7">
     <!-- Ratio of indirect Callsites -->
     <defs>
      <path id="BitstreamVeraSans-Roman-20"/>
      <path d="M 54.890625 33.015625 
L 54.890625 0 
L 45.90625 0 
L 45.90625 32.71875 
Q 45.90625 40.484375 42.875 44.328125 
Q 39.84375 48.1875 33.796875 48.1875 
Q 26.515625 48.1875 22.3125 43.546875 
Q 18.109375 38.921875 18.109375 30.90625 
L 18.109375 0 
L 9.078125 0 
L 9.078125 54.6875 
L 18.109375 54.6875 
L 18.109375 46.1875 
Q 21.34375 51.125 25.703125 53.5625 
Q 30.078125 56 35.796875 56 
Q 45.21875 56 50.046875 50.171875 
Q 54.890625 44.34375 54.890625 33.015625 
" id="BitstreamVeraSans-Roman-6e"/>
      <path d="M 41.109375 46.296875 
Q 39.59375 47.171875 37.8125 47.578125 
Q 36.03125 48 33.890625 48 
Q 26.265625 48 22.1875 43.046875 
Q 18.109375 38.09375 18.109375 28.8125 
L 18.109375 0 
L 9.078125 0 
L 9.078125 54.6875 
L 18.109375 54.6875 
L 18.109375 46.1875 
Q 20.953125 51.171875 25.484375 53.578125 
Q 30.03125 56 36.53125 56 
Q 37.453125 56 38.578125 55.875 
Q 39.703125 55.765625 41.0625 55.515625 
z
" id="BitstreamVeraSans-Roman-72"/>
      <path d="M 30.609375 48.390625 
Q 23.390625 48.390625 19.1875 42.75 
Q 14.984375 37.109375 14.984375 27.296875 
Q 14.984375 17.484375 19.15625 11.84375 
Q 23.34375 6.203125 30.609375 6.203125 
Q 37.796875 6.203125 41.984375 11.859375 
Q 46.1875 17.53125 46.1875 27.296875 
Q 46.1875 37.015625 41.984375 42.703125 
Q 37.796875 48.390625 30.609375 48.390625 
M 30.609375 56 
Q 42.328125 56 49.015625 48.375 
Q 55.71875 40.765625 55.71875 27.296875 
Q 55.71875 13.875 49.015625 6.21875 
Q 42.328125 -1.421875 30.609375 -1.421875 
Q 18.84375 -1.421875 12.171875 6.21875 
Q 5.515625 13.875 5.515625 27.296875 
Q 5.515625 40.765625 12.171875 48.375 
Q 18.84375 56 30.609375 56 
" id="BitstreamVeraSans-Roman-6f"/>
      <path d="M 64.40625 67.28125 
L 64.40625 56.890625 
Q 59.421875 61.53125 53.78125 63.8125 
Q 48.140625 66.109375 41.796875 66.109375 
Q 29.296875 66.109375 22.65625 58.46875 
Q 16.015625 50.828125 16.015625 36.375 
Q 16.015625 21.96875 22.65625 14.328125 
Q 29.296875 6.6875 41.796875 6.6875 
Q 48.140625 6.6875 53.78125 8.984375 
Q 59.421875 11.28125 64.40625 15.921875 
L 64.40625 5.609375 
Q 59.234375 2.09375 53.4375 0.328125 
Q 47.65625 -1.421875 41.21875 -1.421875 
Q 24.65625 -1.421875 15.125 8.703125 
Q 5.609375 18.84375 5.609375 36.375 
Q 5.609375 53.953125 15.125 64.078125 
Q 24.65625 74.21875 41.21875 74.21875 
Q 47.75 74.21875 53.53125 72.484375 
Q 59.328125 70.75 64.40625 67.28125 
" id="BitstreamVeraSans-Roman-43"/>
      <path d="M 44.390625 34.1875 
Q 47.5625 33.109375 50.5625 29.59375 
Q 53.5625 26.078125 56.59375 19.921875 
L 66.609375 0 
L 56 0 
L 46.6875 18.703125 
Q 43.0625 26.03125 39.671875 28.421875 
Q 36.28125 30.8125 30.421875 30.8125 
L 19.671875 30.8125 
L 19.671875 0 
L 9.8125 0 
L 9.8125 72.90625 
L 32.078125 72.90625 
Q 44.578125 72.90625 50.734375 67.671875 
Q 56.890625 62.453125 56.890625 51.90625 
Q 56.890625 45.015625 53.6875 40.46875 
Q 50.484375 35.9375 44.390625 34.1875 
M 19.671875 64.796875 
L 19.671875 38.921875 
L 32.078125 38.921875 
Q 39.203125 38.921875 42.84375 42.21875 
Q 46.484375 45.515625 46.484375 51.90625 
Q 46.484375 58.296875 42.84375 61.546875 
Q 39.203125 64.796875 32.078125 64.796875 
z
" id="BitstreamVeraSans-Roman-52"/>
      <path d="M 9.421875 54.6875 
L 18.40625 54.6875 
L 18.40625 0 
L 9.421875 0 
z
M 9.421875 75.984375 
L 18.40625 75.984375 
L 18.40625 64.59375 
L 9.421875 64.59375 
z
" id="BitstreamVeraSans-Roman-69"/>
      <path d="M 9.421875 75.984375 
L 18.40625 75.984375 
L 18.40625 0 
L 9.421875 0 
z
" id="BitstreamVeraSans-Roman-6c"/>
      <path d="M 56.203125 29.59375 
L 56.203125 25.203125 
L 14.890625 25.203125 
Q 15.484375 15.921875 20.484375 11.0625 
Q 25.484375 6.203125 34.421875 6.203125 
Q 39.59375 6.203125 44.453125 7.46875 
Q 49.3125 8.734375 54.109375 11.28125 
L 54.109375 2.78125 
Q 49.265625 0.734375 44.1875 -0.34375 
Q 39.109375 -1.421875 33.890625 -1.421875 
Q 20.796875 -1.421875 13.15625 6.1875 
Q 5.515625 13.8125 5.515625 26.8125 
Q 5.515625 40.234375 12.765625 48.109375 
Q 20.015625 56 32.328125 56 
Q 43.359375 56 49.78125 48.890625 
Q 56.203125 41.796875 56.203125 29.59375 
M 47.21875 32.234375 
Q 47.125 39.59375 43.09375 43.984375 
Q 39.0625 48.390625 32.421875 48.390625 
Q 24.90625 48.390625 20.390625 44.140625 
Q 15.875 39.890625 15.1875 32.171875 
z
" id="BitstreamVeraSans-Roman-65"/>
      <path d="M 45.40625 46.390625 
L 45.40625 75.984375 
L 54.390625 75.984375 
L 54.390625 0 
L 45.40625 0 
L 45.40625 8.203125 
Q 42.578125 3.328125 38.25 0.953125 
Q 33.9375 -1.421875 27.875 -1.421875 
Q 17.96875 -1.421875 11.734375 6.484375 
Q 5.515625 14.40625 5.515625 27.296875 
Q 5.515625 40.1875 11.734375 48.09375 
Q 17.96875 56 27.875 56 
Q 33.9375 56 38.25 53.625 
Q 42.578125 51.265625 45.40625 46.390625 
M 14.796875 27.296875 
Q 14.796875 17.390625 18.875 11.75 
Q 22.953125 6.109375 30.078125 6.109375 
Q 37.203125 6.109375 41.296875 11.75 
Q 45.40625 17.390625 45.40625 27.296875 
Q 45.40625 37.203125 41.296875 42.84375 
Q 37.203125 48.484375 30.078125 48.484375 
Q 22.953125 48.484375 18.875 42.84375 
Q 14.796875 37.203125 14.796875 27.296875 
" id="BitstreamVeraSans-Roman-64"/>
      <path d="M 18.3125 70.21875 
L 18.3125 54.6875 
L 36.8125 54.6875 
L 36.8125 47.703125 
L 18.3125 47.703125 
L 18.3125 18.015625 
Q 18.3125 11.328125 20.140625 9.421875 
Q 21.96875 7.515625 27.59375 7.515625 
L 36.8125 7.515625 
L 36.8125 0 
L 27.59375 0 
Q 17.1875 0 13.234375 3.875 
Q 9.28125 7.765625 9.28125 18.015625 
L 9.28125 47.703125 
L 2.6875 47.703125 
L 2.6875 54.6875 
L 9.28125 54.6875 
L 9.28125 70.21875 
z
" id="BitstreamVeraSans-Roman-74"/>
      <path d="M 37.109375 75.984375 
L 37.109375 68.5 
L 28.515625 68.5 
Q 23.6875 68.5 21.796875 66.546875 
Q 19.921875 64.59375 19.921875 59.515625 
L 19.921875 54.6875 
L 34.71875 54.6875 
L 34.71875 47.703125 
L 19.921875 47.703125 
L 19.921875 0 
L 10.890625 0 
L 10.890625 47.703125 
L 2.296875 47.703125 
L 2.296875 54.6875 
L 10.890625 54.6875 
L 10.890625 58.5 
Q 10.890625 67.625 15.140625 71.796875 
Q 19.390625 75.984375 28.609375 75.984375 
z
" id="BitstreamVeraSans-Roman-66"/>
      <path d="M 34.28125 27.484375 
Q 23.390625 27.484375 19.1875 25 
Q 14.984375 22.515625 14.984375 16.5 
Q 14.984375 11.71875 18.140625 8.90625 
Q 21.296875 6.109375 26.703125 6.109375 
Q 34.1875 6.109375 38.703125 11.40625 
Q 43.21875 16.703125 43.21875 25.484375 
L 43.21875 27.484375 
z
M 52.203125 31.203125 
L 52.203125 0 
L 43.21875 0 
L 43.21875 8.296875 
Q 40.140625 3.328125 35.546875 0.953125 
Q 30.953125 -1.421875 24.3125 -1.421875 
Q 15.921875 -1.421875 10.953125 3.296875 
Q 6 8.015625 6 15.921875 
Q 6 25.140625 12.171875 29.828125 
Q 18.359375 34.515625 30.609375 34.515625 
L 43.21875 34.515625 
L 43.21875 35.40625 
Q 43.21875 41.609375 39.140625 45 
Q 35.0625 48.390625 27.6875 48.390625 
Q 23 48.390625 18.546875 47.265625 
Q 14.109375 46.140625 10.015625 43.890625 
L 10.015625 52.203125 
Q 14.9375 54.109375 19.578125 55.046875 
Q 24.21875 56 28.609375 56 
Q 40.484375 56 46.34375 49.84375 
Q 52.203125 43.703125 52.203125 31.203125 
" id="BitstreamVeraSans-Roman-61"/>
      <path d="M 44.28125 53.078125 
L 44.28125 44.578125 
Q 40.484375 46.53125 36.375 47.5 
Q 32.28125 48.484375 27.875 48.484375 
Q 21.1875 48.484375 17.84375 46.4375 
Q 14.5 44.390625 14.5 40.28125 
Q 14.5 37.15625 16.890625 35.375 
Q 19.28125 33.59375 26.515625 31.984375 
L 29.59375 31.296875 
Q 39.15625 29.25 43.1875 25.515625 
Q 47.21875 21.78125 47.21875 15.09375 
Q 47.21875 7.46875 41.1875 3.015625 
Q 35.15625 -1.421875 24.609375 -1.421875 
Q 20.21875 -1.421875 15.453125 -0.5625 
Q 10.6875 0.296875 5.421875 2 
L 5.421875 11.28125 
Q 10.40625 8.6875 15.234375 7.390625 
Q 20.0625 6.109375 24.8125 6.109375 
Q 31.15625 6.109375 34.5625 8.28125 
Q 37.984375 10.453125 37.984375 14.40625 
Q 37.984375 18.0625 35.515625 20.015625 
Q 33.0625 21.96875 24.703125 23.78125 
L 21.578125 24.515625 
Q 13.234375 26.265625 9.515625 29.90625 
Q 5.8125 33.546875 5.8125 39.890625 
Q 5.8125 47.609375 11.28125 51.796875 
Q 16.75 56 26.8125 56 
Q 31.78125 56 36.171875 55.265625 
Q 40.578125 54.546875 44.28125 53.078125 
" id="BitstreamVeraSans-Roman-73"/>
      <path d="M 48.78125 52.59375 
L 48.78125 44.1875 
Q 44.96875 46.296875 41.140625 47.34375 
Q 37.3125 48.390625 33.40625 48.390625 
Q 24.65625 48.390625 19.8125 42.84375 
Q 14.984375 37.3125 14.984375 27.296875 
Q 14.984375 17.28125 19.8125 11.734375 
Q 24.65625 6.203125 33.40625 6.203125 
Q 37.3125 6.203125 41.140625 7.25 
Q 44.96875 8.296875 48.78125 10.40625 
L 48.78125 2.09375 
Q 45.015625 0.34375 40.984375 -0.53125 
Q 36.96875 -1.421875 32.421875 -1.421875 
Q 20.0625 -1.421875 12.78125 6.34375 
Q 5.515625 14.109375 5.515625 27.296875 
Q 5.515625 40.671875 12.859375 48.328125 
Q 20.21875 56 33.015625 56 
Q 37.15625 56 41.109375 55.140625 
Q 45.0625 54.296875 48.78125 52.59375 
" id="BitstreamVeraSans-Roman-63"/>
     </defs>
     <g transform="translate(227.06596875 418.867125)scale(0.12 -0.12)">
      <use xlink:href="#BitstreamVeraSans-Roman-52"/>
      <use x="69.451171875" xlink:href="#BitstreamVeraSans-Roman-61"/>
      <use x="130.73046875" xlink:href="#BitstreamVeraSans-Roman-74"/>
      <use x="169.939453125" xlink:href="#BitstreamVeraSans-Roman-69"/>
      <use x="197.72265625" xlink:href="#BitstreamVeraSans-Roman-6f"/>
      <use x="258.904296875" xlink:href="#BitstreamVeraSans-Roman-20"/>
      <use x="290.69140625" xlink:href="#BitstreamVeraSans-Roman-6f"/>
      <use x="351.873046875" xlink:href="#BitstreamVeraSans-Roman-66"/>
      <use x="387.078125" xlink:href="#BitstreamVeraSans-Roman-20"/>
      <use x="418.865234375" xlink:href="#BitstreamVeraSans-Roman-69"/>
      <use x="446.6484375" xlink:href="#BitstreamVeraSans-Roman-6e"/>
      <use x="510.02734375" xlink:href="#BitstreamVeraSans-Roman-64"/>
      <use x="573.50390625" xlink:href="#BitstreamVeraSans-Roman-69"/>
      <use x="601.287109375" xlink:href="#BitstreamVeraSans-Roman-72"/>
      <use x="642.369140625" xlink:href="#BitstreamVeraSans-Roman-65"/>
      <use x="703.892578125" xlink:href="#BitstreamVeraSans-Roman-63"/>
      <use x="758.873046875" xlink:href="#BitstreamVeraSans-Roman-74"/>
      <use x="798.08203125" xlink:href="#BitstreamVeraSans-Roman-20"/>
      <use x="829.869140625" xlink:href="#BitstreamVeraSans-Roman-43"/>
      <use x="899.693359375" xlink:href="#BitstreamVeraSans-Roman-61"/>
      <use x="960.97265625" xlink:href="#BitstreamVeraSans-Roman-6c"/>
      <use x="988.755859375" xlink:href="#BitstreamVeraSans-Roman-6c"/>
      <use x="1016.5390625" xlink:href="#BitstreamVeraSans-Roman-73"/>
      <use x="1068.63867188" xlink:href="#BitstreamVeraSans-Roman-69"/>
      <use x="1096.421875" xlink:href="#BitstreamVeraSans-Roman-74"/>
      <use x="1135.63085938" xlink:href="#BitstreamVeraSans-Roman-65"/>
      <use x="1197.15429688" xlink:href="#BitstreamVeraSans-Roman-73"/>
     </g>
    </g>
   </g>
   <g id="matplotlib.axis_2">
    <g id="ytick_1">
     <g id="line2d_23">
      <path clip-path="url(#pdbc1c5a573)" d="M 49.58775 389.13525 
L 554.452312 389.13525 
" style="fill:none;stroke:#000000;stroke-dasharray:1.000000,3.000000;stroke-dashoffset:0.0;stroke-width:0.5;"/>
     </g>
     <g id="line2d_24">
      <defs>
       <path d="M 0 0 
L 4 0 
" id="m473288f5d4" style="stroke:#000000;stroke-width:0.5;"/>
      </defs>
      <g>
       <use style="stroke:#000000;stroke-width:0.5;" x="49.58775" xlink:href="#m473288f5d4" y="389.13525"/>
      </g>
     </g>
     <g id="line2d_25">
      <defs>
       <path d="M 0 0 
L -4 0 
" id="m912f5d34d8" style="stroke:#000000;stroke-width:0.5;"/>
      </defs>
      <g>
       <use style="stroke:#000000;stroke-width:0.5;" x="554.4523125" xlink:href="#m912f5d34d8" y="389.13525"/>
      </g>
     </g>
     <g id="text_8">
      <!-- 0.0 -->
      <g transform="translate(26.504 392.4465)scale(0.12 -0.12)">
       <use xlink:href="#BitstreamVeraSans-Roman-30"/>
       <use x="63.623046875" xlink:href="#BitstreamVeraSans-Roman-2e"/>
       <use x="95.41015625" xlink:href="#BitstreamVeraSans-Roman-30"/>
      </g>
     </g>
    </g>
    <g id="ytick_2">
     <g id="line2d_26">
      <path clip-path="url(#pdbc1c5a573)" d="M 49.58775 316.869715 
L 554.452312 316.869715 
" style="fill:none;stroke:#000000;stroke-dasharray:1.000000,3.000000;stroke-dashoffset:0.0;stroke-width:0.5;"/>
     </g>
     <g id="line2d_27">
      <g>
       <use style="stroke:#000000;stroke-width:0.5;" x="49.58775" xlink:href="#m473288f5d4" y="316.869715"/>
      </g>
     </g>
     <g id="line2d_28">
      <g>
       <use style="stroke:#000000;stroke-width:0.5;" x="554.4523125" xlink:href="#m912f5d34d8" y="316.869715"/>
      </g>
     </g>
     <g id="text_9">
      <!-- 0.2 -->
      <g transform="translate(26.504 320.180965)scale(0.12 -0.12)">
       <use xlink:href="#BitstreamVeraSans-Roman-30"/>
       <use x="63.623046875" xlink:href="#BitstreamVeraSans-Roman-2e"/>
       <use x="95.41015625" xlink:href="#BitstreamVeraSans-Roman-32"/>
      </g>
     </g>
    </g>
    <g id="ytick_3">
     <g id="line2d_29">
      <path clip-path="url(#pdbc1c5a573)" d="M 49.58775 244.60418 
L 554.452312 244.60418 
" style="fill:none;stroke:#000000;stroke-dasharray:1.000000,3.000000;stroke-dashoffset:0.0;stroke-width:0.5;"/>
     </g>
     <g id="line2d_30">
      <g>
       <use style="stroke:#000000;stroke-width:0.5;" x="49.58775" xlink:href="#m473288f5d4" y="244.60418"/>
      </g>
     </g>
     <g id="line2d_31">
      <g>
       <use style="stroke:#000000;stroke-width:0.5;" x="554.4523125" xlink:href="#m912f5d34d8" y="244.60418"/>
      </g>
     </g>
     <g id="text_10">
      <!-- 0.4 -->
      <g transform="translate(26.504 247.91543)scale(0.12 -0.12)">
       <use xlink:href="#BitstreamVeraSans-Roman-30"/>
       <use x="63.623046875" xlink:href="#BitstreamVeraSans-Roman-2e"/>
       <use x="95.41015625" xlink:href="#BitstreamVeraSans-Roman-34"/>
      </g>
     </g>
    </g>
    <g id="ytick_4">
     <g id="line2d_32">
      <path clip-path="url(#pdbc1c5a573)" d="M 49.58775 172.338645 
L 554.452312 172.338645 
" style="fill:none;stroke:#000000;stroke-dasharray:1.000000,3.000000;stroke-dashoffset:0.0;stroke-width:0.5;"/>
     </g>
     <g id="line2d_33">
      <g>
       <use style="stroke:#000000;stroke-width:0.5;" x="49.58775" xlink:href="#m473288f5d4" y="172.338645"/>
      </g>
     </g>
     <g id="line2d_34">
      <g>
       <use style="stroke:#000000;stroke-width:0.5;" x="554.4523125" xlink:href="#m912f5d34d8" y="172.338645"/>
      </g>
     </g>
     <g id="text_11">
      <!-- 0.6 -->
      <g transform="translate(26.504 175.649895)scale(0.12 -0.12)">
       <use xlink:href="#BitstreamVeraSans-Roman-30"/>
       <use x="63.623046875" xlink:href="#BitstreamVeraSans-Roman-2e"/>
       <use x="95.41015625" xlink:href="#BitstreamVeraSans-Roman-36"/>
      </g>
     </g>
    </g>
    <g id="ytick_5">
     <g id="line2d_35">
      <path clip-path="url(#pdbc1c5a573)" d="M 49.58775 100.07311 
L 554.452312 100.07311 
" style="fill:none;stroke:#000000;stroke-dasharray:1.000000,3.000000;stroke-dashoffset:0.0;stroke-width:0.5;"/>
     </g>
     <g id="line2d_36">
      <g>
       <use style="stroke:#000000;stroke-width:0.5;" x="49.58775" xlink:href="#m473288f5d4" y="100.07311"/>
      </g>
     </g>
     <g id="line2d_37">
      <g>
       <use style="stroke:#000000;stroke-width:0.5;" x="554.4523125" xlink:href="#m912f5d34d8" y="100.07311"/>
      </g>
     </g>
     <g id="text_12">
      <!-- 0.8 -->
      <g transform="translate(26.504 103.38436)scale(0.12 -0.12)">
       <use xlink:href="#BitstreamVeraSans-Roman-30"/>
       <use x="63.623046875" xlink:href="#BitstreamVeraSans-Roman-2e"/>
       <use x="95.41015625" xlink:href="#BitstreamVeraSans-Roman-38"/>
      </g>
     </g>
    </g>
    <g id="ytick_6">
     <g id="line2d_38">
      <path clip-path="url(#pdbc1c5a573)" d="M 49.58775 27.807575 
L 554.452312 27.807575 
" style="fill:none;stroke:#000000;stroke-dasharray:1.000000,3.000000;stroke-dashoffset:0.0;stroke-width:0.5;"/>
     </g>
     <g id="line2d_39">
      <g>
       <use style="stroke:#000000;stroke-width:0.5;" x="49.58775" xlink:href="#m473288f5d4" y="27.807575"/>
      </g>
     </g>
     <g id="line2d_40">
      <g>
       <use style="stroke:#000000;stroke-width:0.5;" x="554.4523125" xlink:href="#m912f5d34d8" y="27.807575"/>
      </g>
     </g>
     <g id="text_13">
      <!-- 1.0 -->
      <g transform="translate(26.504 31.118825)scale(0.12 -0.12)">
       <use xlink:href="#BitstreamVeraSans-Roman-31"/>
       <use x="63.623046875" xlink:href="#BitstreamVeraSans-Roman-2e"/>
       <use x="95.41015625" xlink:href="#BitstreamVeraSans-Roman-30"/>
      </g>
     </g>
    </g>
    <g id="text_14">
     <!-- Ratio of Calltargets -->
     <defs>
      <path d="M 45.40625 27.984375 
Q 45.40625 37.75 41.375 43.109375 
Q 37.359375 48.484375 30.078125 48.484375 
Q 22.859375 48.484375 18.828125 43.109375 
Q 14.796875 37.75 14.796875 27.984375 
Q 14.796875 18.265625 18.828125 12.890625 
Q 22.859375 7.515625 30.078125 7.515625 
Q 37.359375 7.515625 41.375 12.890625 
Q 45.40625 18.265625 45.40625 27.984375 
M 54.390625 6.78125 
Q 54.390625 -7.171875 48.1875 -13.984375 
Q 42 -20.796875 29.203125 -20.796875 
Q 24.46875 -20.796875 20.265625 -20.09375 
Q 16.0625 -19.390625 12.109375 -17.921875 
L 12.109375 -9.1875 
Q 16.0625 -11.328125 19.921875 -12.34375 
Q 23.78125 -13.375 27.78125 -13.375 
Q 36.625 -13.375 41.015625 -8.765625 
Q 45.40625 -4.15625 45.40625 5.171875 
L 45.40625 9.625 
Q 42.625 4.78125 38.28125 2.390625 
Q 33.9375 0 27.875 0 
Q 17.828125 0 11.671875 7.65625 
Q 5.515625 15.328125 5.515625 27.984375 
Q 5.515625 40.671875 11.671875 48.328125 
Q 17.828125 56 27.875 56 
Q 33.9375 56 38.28125 53.609375 
Q 42.625 51.21875 45.40625 46.390625 
L 45.40625 54.6875 
L 54.390625 54.6875 
z
" id="BitstreamVeraSans-Roman-67"/>
     </defs>
     <g transform="translate(19.008375 266.276725)rotate(-90.0)scale(0.12 -0.12)">
      <use xlink:href="#BitstreamVeraSans-Roman-52"/>
      <use x="69.451171875" xlink:href="#BitstreamVeraSans-Roman-61"/>
      <use x="130.73046875" xlink:href="#BitstreamVeraSans-Roman-74"/>
      <use x="169.939453125" xlink:href="#BitstreamVeraSans-Roman-69"/>
      <use x="197.72265625" xlink:href="#BitstreamVeraSans-Roman-6f"/>
      <use x="258.904296875" xlink:href="#BitstreamVeraSans-Roman-20"/>
      <use x="290.69140625" xlink:href="#BitstreamVeraSans-Roman-6f"/>
      <use x="351.873046875" xlink:href="#BitstreamVeraSans-Roman-66"/>
      <use x="387.078125" xlink:href="#BitstreamVeraSans-Roman-20"/>
      <use x="418.865234375" xlink:href="#BitstreamVeraSans-Roman-43"/>
      <use x="488.689453125" xlink:href="#BitstreamVeraSans-Roman-61"/>
      <use x="549.96875" xlink:href="#BitstreamVeraSans-Roman-6c"/>
      <use x="577.751953125" xlink:href="#BitstreamVeraSans-Roman-6c"/>
      <use x="605.53515625" xlink:href="#BitstreamVeraSans-Roman-74"/>
      <use x="644.744140625" xlink:href="#BitstreamVeraSans-Roman-61"/>
      <use x="706.0234375" xlink:href="#BitstreamVeraSans-Roman-72"/>
      <use x="747.12109375" xlink:href="#BitstreamVeraSans-Roman-67"/>
      <use x="810.59765625" xlink:href="#BitstreamVeraSans-Roman-65"/>
      <use x="872.12109375" xlink:href="#BitstreamVeraSans-Roman-74"/>
      <use x="911.330078125" xlink:href="#BitstreamVeraSans-Roman-73"/>
     </g>
    </g>
   </g>
   <g id="text_15">
    <!-- postgresql O2 -->
    <defs>
     <path d="M 39.40625 66.21875 
Q 28.65625 66.21875 22.328125 58.203125 
Q 16.015625 50.203125 16.015625 36.375 
Q 16.015625 22.609375 22.328125 14.59375 
Q 28.65625 6.59375 39.40625 6.59375 
Q 50.140625 6.59375 56.421875 14.59375 
Q 62.703125 22.609375 62.703125 36.375 
Q 62.703125 50.203125 56.421875 58.203125 
Q 50.140625 66.21875 39.40625 66.21875 
M 39.40625 74.21875 
Q 54.734375 74.21875 63.90625 63.9375 
Q 73.09375 53.65625 73.09375 36.375 
Q 73.09375 19.140625 63.90625 8.859375 
Q 54.734375 -1.421875 39.40625 -1.421875 
Q 24.03125 -1.421875 14.8125 8.828125 
Q 5.609375 19.09375 5.609375 36.375 
Q 5.609375 53.65625 14.8125 63.9375 
Q 24.03125 74.21875 39.40625 74.21875 
" id="BitstreamVeraSans-Roman-4f"/>
     <path d="M 18.109375 8.203125 
L 18.109375 -20.796875 
L 9.078125 -20.796875 
L 9.078125 54.6875 
L 18.109375 54.6875 
L 18.109375 46.390625 
Q 20.953125 51.265625 25.265625 53.625 
Q 29.59375 56 35.59375 56 
Q 45.5625 56 51.78125 48.09375 
Q 58.015625 40.1875 58.015625 27.296875 
Q 58.015625 14.40625 51.78125 6.484375 
Q 45.5625 -1.421875 35.59375 -1.421875 
Q 29.59375 -1.421875 25.265625 0.953125 
Q 20.953125 3.328125 18.109375 8.203125 
M 48.6875 27.296875 
Q 48.6875 37.203125 44.609375 42.84375 
Q 40.53125 48.484375 33.40625 48.484375 
Q 26.265625 48.484375 22.1875 42.84375 
Q 18.109375 37.203125 18.109375 27.296875 
Q 18.109375 17.390625 22.1875 11.75 
Q 26.265625 6.109375 33.40625 6.109375 
Q 40.53125 6.109375 44.609375 11.75 
Q 48.6875 17.390625 48.6875 27.296875 
" id="BitstreamVeraSans-Roman-70"/>
     <path d="M 14.796875 27.296875 
Q 14.796875 17.390625 18.875 11.75 
Q 22.953125 6.109375 30.078125 6.109375 
Q 37.203125 6.109375 41.296875 11.75 
Q 45.40625 17.390625 45.40625 27.296875 
Q 45.40625 37.203125 41.296875 42.84375 
Q 37.203125 48.484375 30.078125 48.484375 
Q 22.953125 48.484375 18.875 42.84375 
Q 14.796875 37.203125 14.796875 27.296875 
M 45.40625 8.203125 
Q 42.578125 3.328125 38.25 0.953125 
Q 33.9375 -1.421875 27.875 -1.421875 
Q 17.96875 -1.421875 11.734375 6.484375 
Q 5.515625 14.40625 5.515625 27.296875 
Q 5.515625 40.1875 11.734375 48.09375 
Q 17.96875 56 27.875 56 
Q 33.9375 56 38.25 53.625 
Q 42.578125 51.265625 45.40625 46.390625 
L 45.40625 54.6875 
L 54.390625 54.6875 
L 54.390625 -20.796875 
L 45.40625 -20.796875 
z
" id="BitstreamVeraSans-Roman-71"/>
    </defs>
    <g transform="translate(251.65265625 22.807575)scale(0.144 -0.144)">
     <use xlink:href="#BitstreamVeraSans-Roman-70"/>
     <use x="63.4765625" xlink:href="#BitstreamVeraSans-Roman-6f"/>
     <use x="124.658203125" xlink:href="#BitstreamVeraSans-Roman-73"/>
     <use x="176.7578125" xlink:href="#BitstreamVeraSans-Roman-74"/>
     <use x="215.966796875" xlink:href="#BitstreamVeraSans-Roman-67"/>
     <use x="279.443359375" xlink:href="#BitstreamVeraSans-Roman-72"/>
     <use x="320.525390625" xlink:href="#BitstreamVeraSans-Roman-65"/>
     <use x="382.048828125" xlink:href="#BitstreamVeraSans-Roman-73"/>
     <use x="434.1484375" xlink:href="#BitstreamVeraSans-Roman-71"/>
     <use x="497.625" xlink:href="#BitstreamVeraSans-Roman-6c"/>
     <use x="525.408203125" xlink:href="#BitstreamVeraSans-Roman-20"/>
     <use x="557.1953125" xlink:href="#BitstreamVeraSans-Roman-4f"/>
     <use x="635.90625" xlink:href="#BitstreamVeraSans-Roman-32"/>
    </g>
   </g>
   <g id="legend_1">
    <g id="patch_7">
     <path d="M 447.586312 381.93525 
L 547.252312 381.93525 
L 547.252312 293.06925 
L 447.586312 293.06925 
z
" style="fill:#ffffff;stroke:#000000;stroke-linejoin:miter;"/>
    </g>
    <g id="line2d_41">
     <path d="M 457.666312 304.731 
L 477.826312 304.731 
" style="fill:none;stroke:#0000ff;stroke-linecap:square;"/>
    </g>
    <g id="line2d_42"/>
    <g id="text_16">
     <!-- count* -->
     <defs>
      <path d="M 47.015625 60.890625 
L 29.5 51.421875 
L 47.015625 41.890625 
L 44.1875 37.109375 
L 27.78125 47.015625 
L 27.78125 28.609375 
L 22.21875 28.609375 
L 22.21875 47.015625 
L 5.8125 37.109375 
L 2.984375 41.890625 
L 20.515625 51.421875 
L 2.984375 60.890625 
L 5.8125 65.71875 
L 22.21875 55.8125 
L 22.21875 74.21875 
L 27.78125 74.21875 
L 27.78125 55.8125 
L 44.1875 65.71875 
z
" id="BitstreamVeraSans-Roman-2a"/>
      <path d="M 8.5 21.578125 
L 8.5 54.6875 
L 17.484375 54.6875 
L 17.484375 21.921875 
Q 17.484375 14.15625 20.5 10.265625 
Q 23.53125 6.390625 29.59375 6.390625 
Q 36.859375 6.390625 41.078125 11.03125 
Q 45.3125 15.671875 45.3125 23.6875 
L 45.3125 54.6875 
L 54.296875 54.6875 
L 54.296875 0 
L 45.3125 0 
L 45.3125 8.40625 
Q 42.046875 3.421875 37.71875 1 
Q 33.40625 -1.421875 27.6875 -1.421875 
Q 18.265625 -1.421875 13.375 4.4375 
Q 8.5 10.296875 8.5 21.578125 
" id="BitstreamVeraSans-Roman-75"/>
     </defs>
     <g transform="translate(493.6663125 309.771)scale(0.144 -0.144)">
      <use xlink:href="#BitstreamVeraSans-Roman-63"/>
      <use x="54.98046875" xlink:href="#BitstreamVeraSans-Roman-6f"/>
      <use x="116.162109375" xlink:href="#BitstreamVeraSans-Roman-75"/>
      <use x="179.541015625" xlink:href="#BitstreamVeraSans-Roman-6e"/>
      <use x="242.919921875" xlink:href="#BitstreamVeraSans-Roman-74"/>
      <use x="282.12890625" xlink:href="#BitstreamVeraSans-Roman-2a"/>
     </g>
    </g>
    <g id="line2d_43">
     <path d="M 457.666312 325.8675 
L 477.826312 325.8675 
" style="fill:none;stroke:#0000ff;stroke-dasharray:6.000000,6.000000;stroke-dashoffset:0.0;"/>
    </g>
    <g id="line2d_44"/>
    <g id="text_17">
     <!-- count -->
     <g transform="translate(493.6663125 330.9075)scale(0.144 -0.144)">
      <use xlink:href="#BitstreamVeraSans-Roman-63"/>
      <use x="54.98046875" xlink:href="#BitstreamVeraSans-Roman-6f"/>
      <use x="116.162109375" xlink:href="#BitstreamVeraSans-Roman-75"/>
      <use x="179.541015625" xlink:href="#BitstreamVeraSans-Roman-6e"/>
      <use x="242.919921875" xlink:href="#BitstreamVeraSans-Roman-74"/>
     </g>
    </g>
    <g id="line2d_45">
     <path d="M 457.666312 347.004 
L 477.826312 347.004 
" style="fill:none;stroke:#ff0000;stroke-linecap:square;"/>
    </g>
    <g id="line2d_46"/>
    <g id="text_18">
     <!-- type* -->
     <defs>
      <path d="M 32.171875 -5.078125 
Q 28.375 -14.84375 24.75 -17.8125 
Q 21.140625 -20.796875 15.09375 -20.796875 
L 7.90625 -20.796875 
L 7.90625 -13.28125 
L 13.1875 -13.28125 
Q 16.890625 -13.28125 18.9375 -11.515625 
Q 21 -9.765625 23.484375 -3.21875 
L 25.09375 0.875 
L 2.984375 54.6875 
L 12.5 54.6875 
L 29.59375 11.921875 
L 46.6875 54.6875 
L 56.203125 54.6875 
z
" id="BitstreamVeraSans-Roman-79"/>
     </defs>
     <g transform="translate(493.6663125 352.044)scale(0.144 -0.144)">
      <use xlink:href="#BitstreamVeraSans-Roman-74"/>
      <use x="39.208984375" xlink:href="#BitstreamVeraSans-Roman-79"/>
      <use x="98.388671875" xlink:href="#BitstreamVeraSans-Roman-70"/>
      <use x="161.865234375" xlink:href="#BitstreamVeraSans-Roman-65"/>
      <use x="223.388671875" xlink:href="#BitstreamVeraSans-Roman-2a"/>
     </g>
    </g>
    <g id="line2d_47">
     <path d="M 457.666312 368.1405 
L 477.826312 368.1405 
" style="fill:none;stroke:#ff0000;stroke-dasharray:6.000000,6.000000;stroke-dashoffset:0.0;"/>
    </g>
    <g id="line2d_48"/>
    <g id="text_19">
     <!-- type -->
     <g transform="translate(493.6663125 373.1805)scale(0.144 -0.144)">
      <use xlink:href="#BitstreamVeraSans-Roman-74"/>
      <use x="39.208984375" xlink:href="#BitstreamVeraSans-Roman-79"/>
      <use x="98.388671875" xlink:href="#BitstreamVeraSans-Roman-70"/>
      <use x="161.865234375" xlink:href="#BitstreamVeraSans-Roman-65"/>
     </g>
    </g>
   </g>
  </g>
 </g>
 <defs>
  <clipPath id="pdbc1c5a573">
   <rect height="361.327675" width="504.8645625" x="49.58775" y="27.807575"/>
  </clipPath>
 </defs>
</svg>
