<?xml version="1.0" encoding="utf-8" standalone="no"?>
<!DOCTYPE svg PUBLIC "-//W3C//DTD SVG 1.1//EN"
  "http://www.w3.org/Graphics/SVG/1.1/DTD/svg11.dtd">
<!-- Created with matplotlib (http://matplotlib.org/) -->
<svg height="432pt" version="1.1" viewBox="0 0 576 432" width="576pt" xmlns="http://www.w3.org/2000/svg" xmlns:xlink="http://www.w3.org/1999/xlink">
 <defs>
  <style type="text/css">
*{stroke-linecap:butt;stroke-linejoin:round;stroke-miterlimit:100000;}
  </style>
 </defs>
 <g id="figure_1">
  <g id="patch_1">
   <path d="M 0 432 
L 576 432 
L 576 0 
L 0 0 
z
" style="fill:#ffffff;"/>
  </g>
  <g id="axes_1">
   <g id="patch_2">
    <path d="M 49.58775 389.13525 
L 554.452312 389.13525 
L 554.452312 27.807575 
L 49.58775 27.807575 
z
" style="fill:#ffffff;"/>
   </g>
   <g id="line2d_1">
    <path clip-path="url(#p748ee7d640)" d="M 49.58775 387.644743 
L 50.212701 387.644743 
L 50.356921 386.34656 
L 50.693433 386.34656 
L 50.837653 304.464853 
L 223.90111 304.464853 
L 224.045329 259.076519 
L 307.356155 259.076519 
L 307.500374 250.614288 
L 321.201231 250.614288 
L 321.345451 218.448191 
L 388.984418 218.448191 
L 389.128638 203.639286 
L 408.742496 203.639286 
L 408.886716 193.109577 
L 415.761181 193.109577 
L 415.905401 191.57099 
L 420.28006 191.57099 
L 420.42428 190.657453 
L 421.193451 190.561292 
L 421.33767 190.368968 
L 421.722256 190.368968 
L 421.866475 133.873956 
L 497.052933 133.873956 
L 497.197152 78.100156 
L 540.607236 78.100156 
L 540.751455 60.310237 
L 545.174188 60.310237 
L 545.318408 47.953456 
L 548.731604 47.953456 
L 548.875823 45.309009 
L 551.904434 45.309009 
L 552.048653 41.895267 
L 553.875434 41.895267 
L 554.067727 41.510621 
L 554.404239 41.510621 
L 554.404239 41.510621 
" style="fill:none;stroke:#0000ff;stroke-linecap:square;"/>
   </g>
   <g id="line2d_2">
    <path clip-path="url(#p748ee7d640)" d="M 49.58775 331.149731 
L 49.635823 331.149731 
L 49.780043 288.11736 
L 50.116555 288.11736 
L 50.260775 282.347656 
L 122.899353 282.347656 
L 123.043573 217.582736 
L 137.129015 217.582736 
L 137.273235 199.071604 
L 186.211735 199.071604 
L 186.355954 153.923675 
L 213.469229 153.923675 
L 213.613449 140.412953 
L 291.492004 140.412953 
L 291.636224 131.229508 
L 300.914348 131.229508 
L 301.058568 128.104252 
L 342.353431 128.104252 
L 342.497651 112.237568 
L 389.657443 112.237568 
L 389.801662 58.819731 
L 436.769162 58.819731 
L 436.913381 42.664561 
L 503.494739 42.664561 
L 503.638959 31.894448 
L 511.66718 31.894448 
L 511.8114 27.807575 
L 554.404239 27.807575 
L 554.404239 27.807575 
" style="fill:none;stroke:#0000ff;stroke-dasharray:6.000000,6.000000;stroke-dashoffset:0.0;"/>
   </g>
   <g id="line2d_3">
    <path clip-path="url(#p748ee7d640)" d="M 49.58775 388.173633 
L 49.876189 388.173633 
L 50.020409 387.644743 
L 50.260775 387.644743 
L 50.404994 387.163935 
L 50.885726 387.163935 
L 51.029945 386.538883 
L 52.279848 386.490803 
L 52.424068 386.394641 
L 54.443141 386.34656 
L 54.587361 386.106156 
L 54.683507 386.106156 
L 55.02002 384.952215 
L 57.615971 384.904134 
L 57.760191 384.807972 
L 57.904411 360.527137 
L 58.865874 360.527137 
L 59.010094 359.950167 
L 59.058167 359.950167 
L 59.298533 359.421278 
L 59.394679 359.421278 
L 59.635045 357.594205 
L 133.138941 357.594205 
L 133.283161 353.747736 
L 191.499785 353.747736 
L 191.644004 353.459251 
L 193.326566 353.363089 
L 193.470785 353.266927 
L 194.14381 353.266927 
L 194.288029 352.449553 
L 196.403249 352.353391 
L 196.547469 351.247531 
L 197.701225 351.19945 
L 197.845445 339.804286 
L 202.652763 339.804286 
L 202.796983 339.323477 
L 202.989275 339.323477 
L 203.133495 338.073375 
L 203.277714 337.881052 
L 209.142643 337.881052 
L 209.190716 337.736809 
L 209.334935 314.129106 
L 283.704149 314.032944 
L 283.896441 312.927084 
L 284.184881 312.927084 
L 284.3291 308.936373 
L 285.146344 308.936373 
L 285.338637 308.167079 
L 285.915515 308.070917 
L 286.059735 307.397785 
L 286.828906 307.397785 
L 286.973125 307.205462 
L 287.550003 307.205462 
L 287.694223 307.061219 
L 343.266822 307.061219 
L 343.411041 306.580411 
L 343.555261 306.484249 
L 344.228285 306.388087 
L 344.372505 305.618793 
L 344.420578 305.618793 
L 344.564798 304.464853 
L 367.736072 304.416772 
L 367.880291 304.176368 
L 369.178267 304.128287 
L 369.322487 303.839802 
L 369.37056 303.839802 
L 369.514779 303.407074 
L 369.610926 303.407074 
L 369.755145 303.262831 
L 369.803219 303.262831 
L 369.947438 303.118589 
L 370.235877 303.118589 
L 370.380097 302.156971 
L 371.245414 302.156971 
L 371.389634 300.041413 
L 371.581926 300.041413 
L 371.774219 299.704847 
L 371.966512 299.704847 
L 372.110731 292.829284 
L 372.158805 292.829284 
L 372.39917 290.665645 
L 372.54339 281.482201 
L 385.859662 281.482201 
L 386.003881 275.85674 
L 390.186248 275.85674 
L 390.330467 273.116131 
L 390.955419 273.116131 
L 391.003492 272.923807 
L 391.147712 271.577543 
L 391.58037 271.481382 
L 391.628443 271.433301 
L 391.676517 270.519764 
L 391.820736 259.076519 
L 394.128249 259.076519 
L 394.224395 258.643792 
L 394.368615 250.614288 
L 408.069472 250.614288 
L 408.261765 249.65267 
L 412.87679 249.556509 
L 413.165229 249.412266 
L 413.261376 249.412266 
L 413.405595 249.171862 
L 414.751644 249.0757 
L 414.895864 241.286601 
L 418.260987 241.286601 
L 418.405206 236.23811 
L 420.328133 236.23811 
L 420.376207 236.093867 
L 420.520426 235.228412 
L 428.164062 235.228412 
L 428.308282 233.785986 
L 431.192673 233.785986 
L 431.336892 233.305178 
L 431.625331 233.209016 
L 431.769551 233.112854 
L 431.91377 232.055075 
L 432.875234 232.055075 
L 433.019454 231.574267 
L 433.259819 231.574267 
L 433.404039 231.381943 
L 433.500185 231.381943 
L 433.644405 231.18962 
L 434.605869 231.18962 
L 434.750088 230.949215 
L 435.038527 230.949215 
L 435.375039 229.987598 
L 454.796605 229.987598 
L 454.940825 229.506789 
L 455.421557 229.506789 
L 455.613849 228.9779 
L 456.094581 228.9779 
L 456.238801 226.477695 
L 460.709607 226.477695 
L 460.853826 225.516078 
L 461.142265 225.516078 
L 461.190338 225.371835 
L 461.334558 223.40052 
L 461.382631 223.40052 
L 461.526851 217.198089 
L 465.661144 217.198089 
L 465.805364 217.005765 
L 465.949584 215.659501 
L 466.622608 215.659501 
L 466.911047 214.890208 
L 467.10334 214.794046 
L 467.199486 214.601722 
L 467.295633 206.860704 
L 467.439852 133.873956 
L 533.348185 133.873956 
L 533.492405 133.441228 
L 533.636624 125.892533 
L 537.674772 125.892533 
L 537.818991 121.757579 
L 537.867065 121.757579 
L 538.011284 121.469093 
L 538.347796 121.469093 
L 538.492016 118.776565 
L 538.828528 118.776565 
L 538.972748 118.584242 
L 539.020821 118.584242 
L 539.16504 78.100156 
L 550.510312 78.100156 
L 550.654531 71.176512 
L 550.846824 71.176512 
L 550.991043 60.310237 
L 551.664068 60.310237 
L 551.808287 57.858114 
L 552.096727 57.858114 
L 552.240946 47.953456 
L 552.385166 47.953456 
L 552.529385 47.376486 
L 552.962044 47.376486 
L 553.106263 45.309009 
L 553.971581 45.309009 
L 554.1158 41.510621 
L 554.404239 41.510621 
L 554.404239 41.510621 
" style="fill:none;stroke:#ff0000;stroke-linecap:square;"/>
   </g>
   <g id="line2d_4">
    <path clip-path="url(#p748ee7d640)" d="M 49.58775 365.912194 
L 49.635823 364.950577 
L 49.73197 364.950577 
L 49.828116 364.950577 
L 49.924262 360.046329 
L 50.068482 337.448324 
L 50.164628 337.448324 
L 50.356921 332.640238 
L 50.453067 332.640238 
L 50.597287 329.226496 
L 63.769339 329.226496 
L 63.913558 328.793769 
L 64.057778 325.716594 
L 64.105851 325.716594 
L 64.250071 325.139623 
L 89.296199 325.091542 
L 89.440418 324.899219 
L 90.353809 324.851138 
L 90.546101 324.274168 
L 91.171053 324.274168 
L 91.315272 324.129925 
L 92.276736 324.033763 
L 92.469029 323.985683 
L 92.853614 323.985683 
L 92.997834 323.360631 
L 93.286273 323.26447 
L 93.430492 323.024065 
L 93.526639 323.024065 
L 93.670858 322.591338 
L 94.007371 322.591338 
L 94.15159 322.206691 
L 94.29581 320.379618 
L 94.824615 320.379618 
L 95.016907 318.600626 
L 95.641859 318.600626 
L 95.786078 318.456383 
L 99.43964 318.360222 
L 99.58386 317.1582 
L 102.804763 317.1582 
L 102.948983 316.965877 
L 103.333568 316.917796 
L 103.477788 316.821634 
L 103.622007 316.821634 
L 103.766227 314.36951 
L 104.198885 314.321429 
L 104.343105 313.936782 
L 108.525472 313.936782 
L 108.669691 299.175958 
L 109.150423 299.175958 
L 109.246569 298.74323 
L 109.438862 292.540799 
L 109.631155 292.540799 
L 109.775374 288.598168 
L 152.127848 288.598168 
L 152.272068 288.11736 
L 152.897019 288.069279 
L 153.041239 286.771096 
L 153.618117 286.771096 
L 153.762336 285.472912 
L 154.002702 285.472912 
L 154.146922 283.69392 
L 154.291141 283.405435 
L 154.435361 283.020788 
L 155.156459 283.020788 
L 155.348751 282.443818 
L 155.492971 280.712907 
L 155.637191 280.616745 
L 156.358288 280.520584 
L 156.742874 279.943613 
L 156.790947 279.943613 
L 156.935166 278.789673 
L 157.175532 278.789673 
L 157.367825 277.731894 
L 157.512045 277.731894 
L 157.656264 277.154923 
L 173.953073 277.154923 
L 174.097293 276.289468 
L 174.145366 276.289468 
L 174.337659 275.424012 
L 175.106829 275.424012 
L 175.251049 274.17391 
L 175.299122 274.17391 
L 175.443342 273.981586 
L 175.491415 273.981586 
L 175.683708 273.164212 
L 175.731781 273.164212 
L 175.924074 270.615926 
L 176.981684 270.615926 
L 177.125903 270.423603 
L 188.567321 270.423603 
L 188.807686 269.558147 
L 189.673004 269.461985 
L 189.865297 269.1735 
L 193.0862 269.1735 
L 193.230419 268.981177 
L 193.470785 268.981177 
L 193.615005 268.500368 
L 202.508543 268.500368 
L 202.652763 268.356126 
L 203.470007 268.356126 
L 203.614227 267.971479 
L 204.57569 267.875317 
L 204.71991 267.202185 
L 205.200642 267.154104 
L 205.392934 266.192487 
L 220.776353 266.192487 
L 220.968646 265.27895 
L 221.064792 265.27895 
L 221.209011 265.086627 
L 221.545524 265.086627 
L 221.689743 264.846223 
L 221.78589 264.846223 
L 221.930109 264.653899 
L 222.218548 264.653899 
L 222.362768 263.355716 
L 223.853037 263.355716 
L 223.997256 262.634503 
L 225.247159 262.634503 
L 225.391378 260.615107 
L 225.439452 259.893894 
L 225.583671 256.095506 
L 226.112476 256.095506 
L 226.304769 247.152466 
L 226.352842 247.152466 
L 226.497062 244.940746 
L 226.641281 243.690644 
L 226.737427 243.690644 
L 226.881647 243.257916 
L 226.92972 243.257916 
L 227.07394 232.920531 
L 236.255918 232.920531 
L 236.400137 232.776288 
L 237.025089 232.680126 
L 237.169308 232.583965 
L 238.034625 232.583965 
L 238.178845 231.141539 
L 239.813333 231.141539 
L 239.957553 230.901134 
L 240.005626 230.901134 
L 240.390211 229.025981 
L 254.812166 229.025981 
L 254.956386 228.737496 
L 255.340971 228.737496 
L 255.389044 228.44901 
L 255.533264 225.08335 
L 255.677483 225.08335 
L 255.821703 224.602542 
L 255.917849 224.602542 
L 256.062069 223.833248 
L 267.118901 223.833248 
L 267.26312 217.582736 
L 280.627465 217.582736 
L 280.867831 215.130612 
L 280.963977 215.130612 
L 281.108197 211.428385 
L 281.15627 211.428385 
L 281.30049 211.236062 
L 281.925441 211.236062 
L 282.069661 210.514849 
L 282.261953 210.514849 
L 282.406173 210.226364 
L 282.454246 210.226364 
L 282.598466 208.303129 
L 287.838442 208.303129 
L 287.982662 206.620299 
L 297.16464 206.620299 
L 297.453079 206.043329 
L 297.549225 206.043329 
L 297.693445 205.658682 
L 300.19325 205.658682 
L 300.33747 205.225954 
L 300.818202 205.129793 
L 300.962421 204.745146 
L 301.298934 204.312418 
L 301.443153 204.216256 
L 301.587373 204.023933 
L 301.875812 203.927771 
L 302.020031 203.350801 
L 302.981495 203.350801 
L 303.173788 202.533426 
L 303.318007 202.533426 
L 303.462227 202.244941 
L 303.798739 202.244941 
L 304.039105 199.98514 
L 306.442764 199.888979 
L 306.68313 199.600494 
L 306.779276 199.600494 
L 306.923496 199.167766 
L 306.971569 199.167766 
L 307.115789 198.013825 
L 319.710962 198.013825 
L 319.855182 197.629178 
L 319.951328 197.581097 
L 320.095548 197.484936 
L 320.672426 197.484936 
L 320.816646 197.244531 
L 321.778109 197.19645 
L 321.970402 196.715642 
L 322.306914 196.715642 
L 322.643427 195.754025 
L 322.883792 195.754025 
L 323.028012 195.369378 
L 324.037549 195.369378 
L 324.085622 195.225135 
L 324.277915 194.023114 
L 324.374061 194.023114 
L 324.566354 192.965335 
L 326.633501 192.869173 
L 326.77772 192.003717 
L 326.873867 192.003717 
L 327.018086 191.763313 
L 327.210379 191.667151 
L 327.546891 191.474828 
L 328.267989 191.474828 
L 328.412208 189.695836 
L 328.508355 189.695836 
L 328.700648 187.964925 
L 329.085233 187.964925 
L 329.229453 187.724521 
L 330.575502 187.724521 
L 330.719721 185.657044 
L 330.912014 185.657044 
L 331.200453 184.839669 
L 334.902088 184.839669 
L 335.046308 180.800877 
L 335.094381 180.800877 
L 335.190527 180.608553 
L 335.334747 178.108348 
L 335.527039 178.108348 
L 335.671259 174.550365 
L 335.719332 174.550365 
L 335.959698 166.520861 
L 336.103918 160.703076 
L 339.61326 160.703076 
L 339.75748 160.510753 
L 340.52665 160.510753 
L 340.67087 156.520042 
L 345.478188 156.42388 
L 345.622408 155.846909 
L 345.670481 155.462263 
L 345.8147 152.000441 
L 345.95892 151.183066 
L 346.006993 150.8465 
L 346.151213 147.913567 
L 361.582704 147.913567 
L 361.726924 147.336597 
L 362.111509 147.336597 
L 362.255729 146.182656 
L 362.303802 146.182656 
L 362.351875 145.509524 
L 362.496095 141.326489 
L 362.640314 141.326489 
L 362.784534 141.134166 
L 363.265266 141.134166 
L 363.457558 139.835983 
L 367.447633 139.835983 
L 367.687999 136.90305 
L 379.273636 136.806888 
L 379.417855 136.085675 
L 379.562075 131.181427 
L 379.610148 131.181427 
L 379.754367 126.998393 
L 381.581148 126.998393 
L 381.917661 114.305045 
L 382.927197 114.305045 
L 383.071417 112.237568 
L 423.59711 112.237568 
L 423.885549 110.747061 
L 423.981695 110.747061 
L 424.125915 109.160393 
L 424.173988 108.487261 
L 424.318208 105.698571 
L 424.366281 105.554328 
L 424.5105 103.775336 
L 439.365114 103.775336 
L 439.509333 103.583013 
L 440.470797 103.583013 
L 440.615016 103.102204 
L 440.66309 103.102204 
L 440.855382 102.33291 
L 440.951529 102.33291 
L 441.095748 100.217353 
L 443.451334 100.217353 
L 443.6917 97.380582 
L 451.431482 97.380582 
L 451.575702 95.986237 
L 451.767995 95.986237 
L 452.056434 95.361186 
L 452.248727 93.630275 
L 452.585239 93.630275 
L 452.729458 89.639563 
L 453.835142 89.639563 
L 454.027434 87.620167 
L 455.661922 87.620167 
L 455.806142 58.819731 
L 471.910658 58.819731 
L 472.054878 58.579326 
L 472.39139 58.579326 
L 472.583683 57.858114 
L 472.920195 57.858114 
L 473.064415 53.386593 
L 476.669903 53.386593 
L 476.814123 52.328814 
L 477.102562 52.328814 
L 477.246781 51.896087 
L 477.294855 51.896087 
L 477.439074 46.847596 
L 477.871733 46.847596 
L 478.015952 45.597494 
L 479.169709 45.597494 
L 479.313928 42.664561 
L 522.291353 42.664561 
L 522.483646 41.702944 
L 522.579793 41.702944 
L 522.724012 40.452842 
L 523.108598 40.452842 
L 523.204744 39.491224 
L 523.348963 31.894448 
L 525.848769 31.798287 
L 525.992988 30.500103 
L 526.233354 30.500103 
L 526.377574 27.807575 
L 554.404239 27.807575 
L 554.404239 27.807575 
" style="fill:none;stroke:#ff0000;stroke-dasharray:6.000000,6.000000;stroke-dashoffset:0.0;"/>
   </g>
   <g id="patch_3">
    <path d="M 49.58775 27.807575 
L 554.452312 27.807575 
" style="fill:none;stroke:#000000;stroke-linecap:square;stroke-linejoin:miter;"/>
   </g>
   <g id="patch_4">
    <path d="M 554.452312 389.13525 
L 554.452312 27.807575 
" style="fill:none;stroke:#000000;stroke-linecap:square;stroke-linejoin:miter;"/>
   </g>
   <g id="patch_5">
    <path d="M 49.58775 389.13525 
L 554.452312 389.13525 
" style="fill:none;stroke:#000000;stroke-linecap:square;stroke-linejoin:miter;"/>
   </g>
   <g id="patch_6">
    <path d="M 49.58775 389.13525 
L 49.58775 27.807575 
" style="fill:none;stroke:#000000;stroke-linecap:square;stroke-linejoin:miter;"/>
   </g>
   <g id="matplotlib.axis_1">
    <g id="xtick_1">
     <g id="line2d_5">
      <path clip-path="url(#p748ee7d640)" d="M 49.58775 389.13525 
L 49.58775 27.807575 
" style="fill:none;stroke:#000000;stroke-dasharray:1.000000,3.000000;stroke-dashoffset:0.0;stroke-width:0.5;"/>
     </g>
     <g id="line2d_6">
      <defs>
       <path d="M 0 0 
L 0 -4 
" id="m97b025db0a" style="stroke:#000000;stroke-width:0.5;"/>
      </defs>
      <g>
       <use style="stroke:#000000;stroke-width:0.5;" x="49.58775" xlink:href="#m97b025db0a" y="389.13525"/>
      </g>
     </g>
     <g id="line2d_7">
      <defs>
       <path d="M 0 0 
L 0 4 
" id="mf2b0cb4b2a" style="stroke:#000000;stroke-width:0.5;"/>
      </defs>
      <g>
       <use style="stroke:#000000;stroke-width:0.5;" x="49.58775" xlink:href="#mf2b0cb4b2a" y="27.807575"/>
      </g>
     </g>
     <g id="text_1">
      <!-- 0.0 -->
      <defs>
       <path d="M 31.78125 66.40625 
Q 24.171875 66.40625 20.328125 58.90625 
Q 16.5 51.421875 16.5 36.375 
Q 16.5 21.390625 20.328125 13.890625 
Q 24.171875 6.390625 31.78125 6.390625 
Q 39.453125 6.390625 43.28125 13.890625 
Q 47.125 21.390625 47.125 36.375 
Q 47.125 51.421875 43.28125 58.90625 
Q 39.453125 66.40625 31.78125 66.40625 
M 31.78125 74.21875 
Q 44.046875 74.21875 50.515625 64.515625 
Q 56.984375 54.828125 56.984375 36.375 
Q 56.984375 17.96875 50.515625 8.265625 
Q 44.046875 -1.421875 31.78125 -1.421875 
Q 19.53125 -1.421875 13.0625 8.265625 
Q 6.59375 17.96875 6.59375 36.375 
Q 6.59375 54.828125 13.0625 64.515625 
Q 19.53125 74.21875 31.78125 74.21875 
" id="BitstreamVeraSans-Roman-30"/>
       <path d="M 10.6875 12.40625 
L 21 12.40625 
L 21 0 
L 10.6875 0 
z
" id="BitstreamVeraSans-Roman-2e"/>
      </defs>
      <g transform="translate(40.045875 402.253375)scale(0.12 -0.12)">
       <use xlink:href="#BitstreamVeraSans-Roman-30"/>
       <use x="63.623046875" xlink:href="#BitstreamVeraSans-Roman-2e"/>
       <use x="95.41015625" xlink:href="#BitstreamVeraSans-Roman-30"/>
      </g>
     </g>
    </g>
    <g id="xtick_2">
     <g id="line2d_8">
      <path clip-path="url(#p748ee7d640)" d="M 150.560663 389.13525 
L 150.560663 27.807575 
" style="fill:none;stroke:#000000;stroke-dasharray:1.000000,3.000000;stroke-dashoffset:0.0;stroke-width:0.5;"/>
     </g>
     <g id="line2d_9">
      <g>
       <use style="stroke:#000000;stroke-width:0.5;" x="150.5606625" xlink:href="#m97b025db0a" y="389.13525"/>
      </g>
     </g>
     <g id="line2d_10">
      <g>
       <use style="stroke:#000000;stroke-width:0.5;" x="150.5606625" xlink:href="#mf2b0cb4b2a" y="27.807575"/>
      </g>
     </g>
     <g id="text_2">
      <!-- 0.2 -->
      <defs>
       <path d="M 19.1875 8.296875 
L 53.609375 8.296875 
L 53.609375 0 
L 7.328125 0 
L 7.328125 8.296875 
Q 12.9375 14.109375 22.625 23.890625 
Q 32.328125 33.6875 34.8125 36.53125 
Q 39.546875 41.84375 41.421875 45.53125 
Q 43.3125 49.21875 43.3125 52.78125 
Q 43.3125 58.59375 39.234375 62.25 
Q 35.15625 65.921875 28.609375 65.921875 
Q 23.96875 65.921875 18.8125 64.3125 
Q 13.671875 62.703125 7.8125 59.421875 
L 7.8125 69.390625 
Q 13.765625 71.78125 18.9375 73 
Q 24.125 74.21875 28.421875 74.21875 
Q 39.75 74.21875 46.484375 68.546875 
Q 53.21875 62.890625 53.21875 53.421875 
Q 53.21875 48.921875 51.53125 44.890625 
Q 49.859375 40.875 45.40625 35.40625 
Q 44.1875 33.984375 37.640625 27.21875 
Q 31.109375 20.453125 19.1875 8.296875 
" id="BitstreamVeraSans-Roman-32"/>
      </defs>
      <g transform="translate(141.0187875 402.253375)scale(0.12 -0.12)">
       <use xlink:href="#BitstreamVeraSans-Roman-30"/>
       <use x="63.623046875" xlink:href="#BitstreamVeraSans-Roman-2e"/>
       <use x="95.41015625" xlink:href="#BitstreamVeraSans-Roman-32"/>
      </g>
     </g>
    </g>
    <g id="xtick_3">
     <g id="line2d_11">
      <path clip-path="url(#p748ee7d640)" d="M 251.533575 389.13525 
L 251.533575 27.807575 
" style="fill:none;stroke:#000000;stroke-dasharray:1.000000,3.000000;stroke-dashoffset:0.0;stroke-width:0.5;"/>
     </g>
     <g id="line2d_12">
      <g>
       <use style="stroke:#000000;stroke-width:0.5;" x="251.533575" xlink:href="#m97b025db0a" y="389.13525"/>
      </g>
     </g>
     <g id="line2d_13">
      <g>
       <use style="stroke:#000000;stroke-width:0.5;" x="251.533575" xlink:href="#mf2b0cb4b2a" y="27.807575"/>
      </g>
     </g>
     <g id="text_3">
      <!-- 0.4 -->
      <defs>
       <path d="M 37.796875 64.3125 
L 12.890625 25.390625 
L 37.796875 25.390625 
z
M 35.203125 72.90625 
L 47.609375 72.90625 
L 47.609375 25.390625 
L 58.015625 25.390625 
L 58.015625 17.1875 
L 47.609375 17.1875 
L 47.609375 0 
L 37.796875 0 
L 37.796875 17.1875 
L 4.890625 17.1875 
L 4.890625 26.703125 
z
" id="BitstreamVeraSans-Roman-34"/>
      </defs>
      <g transform="translate(241.9917 402.253375)scale(0.12 -0.12)">
       <use xlink:href="#BitstreamVeraSans-Roman-30"/>
       <use x="63.623046875" xlink:href="#BitstreamVeraSans-Roman-2e"/>
       <use x="95.41015625" xlink:href="#BitstreamVeraSans-Roman-34"/>
      </g>
     </g>
    </g>
    <g id="xtick_4">
     <g id="line2d_14">
      <path clip-path="url(#p748ee7d640)" d="M 352.506487 389.13525 
L 352.506487 27.807575 
" style="fill:none;stroke:#000000;stroke-dasharray:1.000000,3.000000;stroke-dashoffset:0.0;stroke-width:0.5;"/>
     </g>
     <g id="line2d_15">
      <g>
       <use style="stroke:#000000;stroke-width:0.5;" x="352.5064875" xlink:href="#m97b025db0a" y="389.13525"/>
      </g>
     </g>
     <g id="line2d_16">
      <g>
       <use style="stroke:#000000;stroke-width:0.5;" x="352.5064875" xlink:href="#mf2b0cb4b2a" y="27.807575"/>
      </g>
     </g>
     <g id="text_4">
      <!-- 0.6 -->
      <defs>
       <path d="M 33.015625 40.375 
Q 26.375 40.375 22.484375 35.828125 
Q 18.609375 31.296875 18.609375 23.390625 
Q 18.609375 15.53125 22.484375 10.953125 
Q 26.375 6.390625 33.015625 6.390625 
Q 39.65625 6.390625 43.53125 10.953125 
Q 47.40625 15.53125 47.40625 23.390625 
Q 47.40625 31.296875 43.53125 35.828125 
Q 39.65625 40.375 33.015625 40.375 
M 52.59375 71.296875 
L 52.59375 62.3125 
Q 48.875 64.0625 45.09375 64.984375 
Q 41.3125 65.921875 37.59375 65.921875 
Q 27.828125 65.921875 22.671875 59.328125 
Q 17.53125 52.734375 16.796875 39.40625 
Q 19.671875 43.65625 24.015625 45.921875 
Q 28.375 48.1875 33.59375 48.1875 
Q 44.578125 48.1875 50.953125 41.515625 
Q 57.328125 34.859375 57.328125 23.390625 
Q 57.328125 12.15625 50.6875 5.359375 
Q 44.046875 -1.421875 33.015625 -1.421875 
Q 20.359375 -1.421875 13.671875 8.265625 
Q 6.984375 17.96875 6.984375 36.375 
Q 6.984375 53.65625 15.1875 63.9375 
Q 23.390625 74.21875 37.203125 74.21875 
Q 40.921875 74.21875 44.703125 73.484375 
Q 48.484375 72.75 52.59375 71.296875 
" id="BitstreamVeraSans-Roman-36"/>
      </defs>
      <g transform="translate(342.9646125 402.253375)scale(0.12 -0.12)">
       <use xlink:href="#BitstreamVeraSans-Roman-30"/>
       <use x="63.623046875" xlink:href="#BitstreamVeraSans-Roman-2e"/>
       <use x="95.41015625" xlink:href="#BitstreamVeraSans-Roman-36"/>
      </g>
     </g>
    </g>
    <g id="xtick_5">
     <g id="line2d_17">
      <path clip-path="url(#p748ee7d640)" d="M 453.4794 389.13525 
L 453.4794 27.807575 
" style="fill:none;stroke:#000000;stroke-dasharray:1.000000,3.000000;stroke-dashoffset:0.0;stroke-width:0.5;"/>
     </g>
     <g id="line2d_18">
      <g>
       <use style="stroke:#000000;stroke-width:0.5;" x="453.4794" xlink:href="#m97b025db0a" y="389.13525"/>
      </g>
     </g>
     <g id="line2d_19">
      <g>
       <use style="stroke:#000000;stroke-width:0.5;" x="453.4794" xlink:href="#mf2b0cb4b2a" y="27.807575"/>
      </g>
     </g>
     <g id="text_5">
      <!-- 0.8 -->
      <defs>
       <path d="M 31.78125 34.625 
Q 24.75 34.625 20.71875 30.859375 
Q 16.703125 27.09375 16.703125 20.515625 
Q 16.703125 13.921875 20.71875 10.15625 
Q 24.75 6.390625 31.78125 6.390625 
Q 38.8125 6.390625 42.859375 10.171875 
Q 46.921875 13.96875 46.921875 20.515625 
Q 46.921875 27.09375 42.890625 30.859375 
Q 38.875 34.625 31.78125 34.625 
M 21.921875 38.8125 
Q 15.578125 40.375 12.03125 44.71875 
Q 8.5 49.078125 8.5 55.328125 
Q 8.5 64.0625 14.71875 69.140625 
Q 20.953125 74.21875 31.78125 74.21875 
Q 42.671875 74.21875 48.875 69.140625 
Q 55.078125 64.0625 55.078125 55.328125 
Q 55.078125 49.078125 51.53125 44.71875 
Q 48 40.375 41.703125 38.8125 
Q 48.828125 37.15625 52.796875 32.3125 
Q 56.78125 27.484375 56.78125 20.515625 
Q 56.78125 9.90625 50.3125 4.234375 
Q 43.84375 -1.421875 31.78125 -1.421875 
Q 19.734375 -1.421875 13.25 4.234375 
Q 6.78125 9.90625 6.78125 20.515625 
Q 6.78125 27.484375 10.78125 32.3125 
Q 14.796875 37.15625 21.921875 38.8125 
M 18.3125 54.390625 
Q 18.3125 48.734375 21.84375 45.5625 
Q 25.390625 42.390625 31.78125 42.390625 
Q 38.140625 42.390625 41.71875 45.5625 
Q 45.3125 48.734375 45.3125 54.390625 
Q 45.3125 60.0625 41.71875 63.234375 
Q 38.140625 66.40625 31.78125 66.40625 
Q 25.390625 66.40625 21.84375 63.234375 
Q 18.3125 60.0625 18.3125 54.390625 
" id="BitstreamVeraSans-Roman-38"/>
      </defs>
      <g transform="translate(443.937525 402.253375)scale(0.12 -0.12)">
       <use xlink:href="#BitstreamVeraSans-Roman-30"/>
       <use x="63.623046875" xlink:href="#BitstreamVeraSans-Roman-2e"/>
       <use x="95.41015625" xlink:href="#BitstreamVeraSans-Roman-38"/>
      </g>
     </g>
    </g>
    <g id="xtick_6">
     <g id="line2d_20">
      <path clip-path="url(#p748ee7d640)" d="M 554.452312 389.13525 
L 554.452312 27.807575 
" style="fill:none;stroke:#000000;stroke-dasharray:1.000000,3.000000;stroke-dashoffset:0.0;stroke-width:0.5;"/>
     </g>
     <g id="line2d_21">
      <g>
       <use style="stroke:#000000;stroke-width:0.5;" x="554.4523125" xlink:href="#m97b025db0a" y="389.13525"/>
      </g>
     </g>
     <g id="line2d_22">
      <g>
       <use style="stroke:#000000;stroke-width:0.5;" x="554.4523125" xlink:href="#mf2b0cb4b2a" y="27.807575"/>
      </g>
     </g>
     <g id="text_6">
      <!-- 1.0 -->
      <defs>
       <path d="M 12.40625 8.296875 
L 28.515625 8.296875 
L 28.515625 63.921875 
L 10.984375 60.40625 
L 10.984375 69.390625 
L 28.421875 72.90625 
L 38.28125 72.90625 
L 38.28125 8.296875 
L 54.390625 8.296875 
L 54.390625 0 
L 12.40625 0 
z
" id="BitstreamVeraSans-Roman-31"/>
      </defs>
      <g transform="translate(544.9104375 402.253375)scale(0.12 -0.12)">
       <use xlink:href="#BitstreamVeraSans-Roman-31"/>
       <use x="63.623046875" xlink:href="#BitstreamVeraSans-Roman-2e"/>
       <use x="95.41015625" xlink:href="#BitstreamVeraSans-Roman-30"/>
      </g>
     </g>
    </g>
    <g id="text_7">
     <!-- Ratio of indirect Callsites -->
     <defs>
      <path id="BitstreamVeraSans-Roman-20"/>
      <path d="M 54.890625 33.015625 
L 54.890625 0 
L 45.90625 0 
L 45.90625 32.71875 
Q 45.90625 40.484375 42.875 44.328125 
Q 39.84375 48.1875 33.796875 48.1875 
Q 26.515625 48.1875 22.3125 43.546875 
Q 18.109375 38.921875 18.109375 30.90625 
L 18.109375 0 
L 9.078125 0 
L 9.078125 54.6875 
L 18.109375 54.6875 
L 18.109375 46.1875 
Q 21.34375 51.125 25.703125 53.5625 
Q 30.078125 56 35.796875 56 
Q 45.21875 56 50.046875 50.171875 
Q 54.890625 44.34375 54.890625 33.015625 
" id="BitstreamVeraSans-Roman-6e"/>
      <path d="M 41.109375 46.296875 
Q 39.59375 47.171875 37.8125 47.578125 
Q 36.03125 48 33.890625 48 
Q 26.265625 48 22.1875 43.046875 
Q 18.109375 38.09375 18.109375 28.8125 
L 18.109375 0 
L 9.078125 0 
L 9.078125 54.6875 
L 18.109375 54.6875 
L 18.109375 46.1875 
Q 20.953125 51.171875 25.484375 53.578125 
Q 30.03125 56 36.53125 56 
Q 37.453125 56 38.578125 55.875 
Q 39.703125 55.765625 41.0625 55.515625 
z
" id="BitstreamVeraSans-Roman-72"/>
      <path d="M 30.609375 48.390625 
Q 23.390625 48.390625 19.1875 42.75 
Q 14.984375 37.109375 14.984375 27.296875 
Q 14.984375 17.484375 19.15625 11.84375 
Q 23.34375 6.203125 30.609375 6.203125 
Q 37.796875 6.203125 41.984375 11.859375 
Q 46.1875 17.53125 46.1875 27.296875 
Q 46.1875 37.015625 41.984375 42.703125 
Q 37.796875 48.390625 30.609375 48.390625 
M 30.609375 56 
Q 42.328125 56 49.015625 48.375 
Q 55.71875 40.765625 55.71875 27.296875 
Q 55.71875 13.875 49.015625 6.21875 
Q 42.328125 -1.421875 30.609375 -1.421875 
Q 18.84375 -1.421875 12.171875 6.21875 
Q 5.515625 13.875 5.515625 27.296875 
Q 5.515625 40.765625 12.171875 48.375 
Q 18.84375 56 30.609375 56 
" id="BitstreamVeraSans-Roman-6f"/>
      <path d="M 64.40625 67.28125 
L 64.40625 56.890625 
Q 59.421875 61.53125 53.78125 63.8125 
Q 48.140625 66.109375 41.796875 66.109375 
Q 29.296875 66.109375 22.65625 58.46875 
Q 16.015625 50.828125 16.015625 36.375 
Q 16.015625 21.96875 22.65625 14.328125 
Q 29.296875 6.6875 41.796875 6.6875 
Q 48.140625 6.6875 53.78125 8.984375 
Q 59.421875 11.28125 64.40625 15.921875 
L 64.40625 5.609375 
Q 59.234375 2.09375 53.4375 0.328125 
Q 47.65625 -1.421875 41.21875 -1.421875 
Q 24.65625 -1.421875 15.125 8.703125 
Q 5.609375 18.84375 5.609375 36.375 
Q 5.609375 53.953125 15.125 64.078125 
Q 24.65625 74.21875 41.21875 74.21875 
Q 47.75 74.21875 53.53125 72.484375 
Q 59.328125 70.75 64.40625 67.28125 
" id="BitstreamVeraSans-Roman-43"/>
      <path d="M 44.390625 34.1875 
Q 47.5625 33.109375 50.5625 29.59375 
Q 53.5625 26.078125 56.59375 19.921875 
L 66.609375 0 
L 56 0 
L 46.6875 18.703125 
Q 43.0625 26.03125 39.671875 28.421875 
Q 36.28125 30.8125 30.421875 30.8125 
L 19.671875 30.8125 
L 19.671875 0 
L 9.8125 0 
L 9.8125 72.90625 
L 32.078125 72.90625 
Q 44.578125 72.90625 50.734375 67.671875 
Q 56.890625 62.453125 56.890625 51.90625 
Q 56.890625 45.015625 53.6875 40.46875 
Q 50.484375 35.9375 44.390625 34.1875 
M 19.671875 64.796875 
L 19.671875 38.921875 
L 32.078125 38.921875 
Q 39.203125 38.921875 42.84375 42.21875 
Q 46.484375 45.515625 46.484375 51.90625 
Q 46.484375 58.296875 42.84375 61.546875 
Q 39.203125 64.796875 32.078125 64.796875 
z
" id="BitstreamVeraSans-Roman-52"/>
      <path d="M 9.421875 54.6875 
L 18.40625 54.6875 
L 18.40625 0 
L 9.421875 0 
z
M 9.421875 75.984375 
L 18.40625 75.984375 
L 18.40625 64.59375 
L 9.421875 64.59375 
z
" id="BitstreamVeraSans-Roman-69"/>
      <path d="M 9.421875 75.984375 
L 18.40625 75.984375 
L 18.40625 0 
L 9.421875 0 
z
" id="BitstreamVeraSans-Roman-6c"/>
      <path d="M 56.203125 29.59375 
L 56.203125 25.203125 
L 14.890625 25.203125 
Q 15.484375 15.921875 20.484375 11.0625 
Q 25.484375 6.203125 34.421875 6.203125 
Q 39.59375 6.203125 44.453125 7.46875 
Q 49.3125 8.734375 54.109375 11.28125 
L 54.109375 2.78125 
Q 49.265625 0.734375 44.1875 -0.34375 
Q 39.109375 -1.421875 33.890625 -1.421875 
Q 20.796875 -1.421875 13.15625 6.1875 
Q 5.515625 13.8125 5.515625 26.8125 
Q 5.515625 40.234375 12.765625 48.109375 
Q 20.015625 56 32.328125 56 
Q 43.359375 56 49.78125 48.890625 
Q 56.203125 41.796875 56.203125 29.59375 
M 47.21875 32.234375 
Q 47.125 39.59375 43.09375 43.984375 
Q 39.0625 48.390625 32.421875 48.390625 
Q 24.90625 48.390625 20.390625 44.140625 
Q 15.875 39.890625 15.1875 32.171875 
z
" id="BitstreamVeraSans-Roman-65"/>
      <path d="M 45.40625 46.390625 
L 45.40625 75.984375 
L 54.390625 75.984375 
L 54.390625 0 
L 45.40625 0 
L 45.40625 8.203125 
Q 42.578125 3.328125 38.25 0.953125 
Q 33.9375 -1.421875 27.875 -1.421875 
Q 17.96875 -1.421875 11.734375 6.484375 
Q 5.515625 14.40625 5.515625 27.296875 
Q 5.515625 40.1875 11.734375 48.09375 
Q 17.96875 56 27.875 56 
Q 33.9375 56 38.25 53.625 
Q 42.578125 51.265625 45.40625 46.390625 
M 14.796875 27.296875 
Q 14.796875 17.390625 18.875 11.75 
Q 22.953125 6.109375 30.078125 6.109375 
Q 37.203125 6.109375 41.296875 11.75 
Q 45.40625 17.390625 45.40625 27.296875 
Q 45.40625 37.203125 41.296875 42.84375 
Q 37.203125 48.484375 30.078125 48.484375 
Q 22.953125 48.484375 18.875 42.84375 
Q 14.796875 37.203125 14.796875 27.296875 
" id="BitstreamVeraSans-Roman-64"/>
      <path d="M 18.3125 70.21875 
L 18.3125 54.6875 
L 36.8125 54.6875 
L 36.8125 47.703125 
L 18.3125 47.703125 
L 18.3125 18.015625 
Q 18.3125 11.328125 20.140625 9.421875 
Q 21.96875 7.515625 27.59375 7.515625 
L 36.8125 7.515625 
L 36.8125 0 
L 27.59375 0 
Q 17.1875 0 13.234375 3.875 
Q 9.28125 7.765625 9.28125 18.015625 
L 9.28125 47.703125 
L 2.6875 47.703125 
L 2.6875 54.6875 
L 9.28125 54.6875 
L 9.28125 70.21875 
z
" id="BitstreamVeraSans-Roman-74"/>
      <path d="M 37.109375 75.984375 
L 37.109375 68.5 
L 28.515625 68.5 
Q 23.6875 68.5 21.796875 66.546875 
Q 19.921875 64.59375 19.921875 59.515625 
L 19.921875 54.6875 
L 34.71875 54.6875 
L 34.71875 47.703125 
L 19.921875 47.703125 
L 19.921875 0 
L 10.890625 0 
L 10.890625 47.703125 
L 2.296875 47.703125 
L 2.296875 54.6875 
L 10.890625 54.6875 
L 10.890625 58.5 
Q 10.890625 67.625 15.140625 71.796875 
Q 19.390625 75.984375 28.609375 75.984375 
z
" id="BitstreamVeraSans-Roman-66"/>
      <path d="M 34.28125 27.484375 
Q 23.390625 27.484375 19.1875 25 
Q 14.984375 22.515625 14.984375 16.5 
Q 14.984375 11.71875 18.140625 8.90625 
Q 21.296875 6.109375 26.703125 6.109375 
Q 34.1875 6.109375 38.703125 11.40625 
Q 43.21875 16.703125 43.21875 25.484375 
L 43.21875 27.484375 
z
M 52.203125 31.203125 
L 52.203125 0 
L 43.21875 0 
L 43.21875 8.296875 
Q 40.140625 3.328125 35.546875 0.953125 
Q 30.953125 -1.421875 24.3125 -1.421875 
Q 15.921875 -1.421875 10.953125 3.296875 
Q 6 8.015625 6 15.921875 
Q 6 25.140625 12.171875 29.828125 
Q 18.359375 34.515625 30.609375 34.515625 
L 43.21875 34.515625 
L 43.21875 35.40625 
Q 43.21875 41.609375 39.140625 45 
Q 35.0625 48.390625 27.6875 48.390625 
Q 23 48.390625 18.546875 47.265625 
Q 14.109375 46.140625 10.015625 43.890625 
L 10.015625 52.203125 
Q 14.9375 54.109375 19.578125 55.046875 
Q 24.21875 56 28.609375 56 
Q 40.484375 56 46.34375 49.84375 
Q 52.203125 43.703125 52.203125 31.203125 
" id="BitstreamVeraSans-Roman-61"/>
      <path d="M 44.28125 53.078125 
L 44.28125 44.578125 
Q 40.484375 46.53125 36.375 47.5 
Q 32.28125 48.484375 27.875 48.484375 
Q 21.1875 48.484375 17.84375 46.4375 
Q 14.5 44.390625 14.5 40.28125 
Q 14.5 37.15625 16.890625 35.375 
Q 19.28125 33.59375 26.515625 31.984375 
L 29.59375 31.296875 
Q 39.15625 29.25 43.1875 25.515625 
Q 47.21875 21.78125 47.21875 15.09375 
Q 47.21875 7.46875 41.1875 3.015625 
Q 35.15625 -1.421875 24.609375 -1.421875 
Q 20.21875 -1.421875 15.453125 -0.5625 
Q 10.6875 0.296875 5.421875 2 
L 5.421875 11.28125 
Q 10.40625 8.6875 15.234375 7.390625 
Q 20.0625 6.109375 24.8125 6.109375 
Q 31.15625 6.109375 34.5625 8.28125 
Q 37.984375 10.453125 37.984375 14.40625 
Q 37.984375 18.0625 35.515625 20.015625 
Q 33.0625 21.96875 24.703125 23.78125 
L 21.578125 24.515625 
Q 13.234375 26.265625 9.515625 29.90625 
Q 5.8125 33.546875 5.8125 39.890625 
Q 5.8125 47.609375 11.28125 51.796875 
Q 16.75 56 26.8125 56 
Q 31.78125 56 36.171875 55.265625 
Q 40.578125 54.546875 44.28125 53.078125 
" id="BitstreamVeraSans-Roman-73"/>
      <path d="M 48.78125 52.59375 
L 48.78125 44.1875 
Q 44.96875 46.296875 41.140625 47.34375 
Q 37.3125 48.390625 33.40625 48.390625 
Q 24.65625 48.390625 19.8125 42.84375 
Q 14.984375 37.3125 14.984375 27.296875 
Q 14.984375 17.28125 19.8125 11.734375 
Q 24.65625 6.203125 33.40625 6.203125 
Q 37.3125 6.203125 41.140625 7.25 
Q 44.96875 8.296875 48.78125 10.40625 
L 48.78125 2.09375 
Q 45.015625 0.34375 40.984375 -0.53125 
Q 36.96875 -1.421875 32.421875 -1.421875 
Q 20.0625 -1.421875 12.78125 6.34375 
Q 5.515625 14.109375 5.515625 27.296875 
Q 5.515625 40.671875 12.859375 48.328125 
Q 20.21875 56 33.015625 56 
Q 37.15625 56 41.109375 55.140625 
Q 45.0625 54.296875 48.78125 52.59375 
" id="BitstreamVeraSans-Roman-63"/>
     </defs>
     <g transform="translate(227.06596875 418.867125)scale(0.12 -0.12)">
      <use xlink:href="#BitstreamVeraSans-Roman-52"/>
      <use x="69.451171875" xlink:href="#BitstreamVeraSans-Roman-61"/>
      <use x="130.73046875" xlink:href="#BitstreamVeraSans-Roman-74"/>
      <use x="169.939453125" xlink:href="#BitstreamVeraSans-Roman-69"/>
      <use x="197.72265625" xlink:href="#BitstreamVeraSans-Roman-6f"/>
      <use x="258.904296875" xlink:href="#BitstreamVeraSans-Roman-20"/>
      <use x="290.69140625" xlink:href="#BitstreamVeraSans-Roman-6f"/>
      <use x="351.873046875" xlink:href="#BitstreamVeraSans-Roman-66"/>
      <use x="387.078125" xlink:href="#BitstreamVeraSans-Roman-20"/>
      <use x="418.865234375" xlink:href="#BitstreamVeraSans-Roman-69"/>
      <use x="446.6484375" xlink:href="#BitstreamVeraSans-Roman-6e"/>
      <use x="510.02734375" xlink:href="#BitstreamVeraSans-Roman-64"/>
      <use x="573.50390625" xlink:href="#BitstreamVeraSans-Roman-69"/>
      <use x="601.287109375" xlink:href="#BitstreamVeraSans-Roman-72"/>
      <use x="642.369140625" xlink:href="#BitstreamVeraSans-Roman-65"/>
      <use x="703.892578125" xlink:href="#BitstreamVeraSans-Roman-63"/>
      <use x="758.873046875" xlink:href="#BitstreamVeraSans-Roman-74"/>
      <use x="798.08203125" xlink:href="#BitstreamVeraSans-Roman-20"/>
      <use x="829.869140625" xlink:href="#BitstreamVeraSans-Roman-43"/>
      <use x="899.693359375" xlink:href="#BitstreamVeraSans-Roman-61"/>
      <use x="960.97265625" xlink:href="#BitstreamVeraSans-Roman-6c"/>
      <use x="988.755859375" xlink:href="#BitstreamVeraSans-Roman-6c"/>
      <use x="1016.5390625" xlink:href="#BitstreamVeraSans-Roman-73"/>
      <use x="1068.63867188" xlink:href="#BitstreamVeraSans-Roman-69"/>
      <use x="1096.421875" xlink:href="#BitstreamVeraSans-Roman-74"/>
      <use x="1135.63085938" xlink:href="#BitstreamVeraSans-Roman-65"/>
      <use x="1197.15429688" xlink:href="#BitstreamVeraSans-Roman-73"/>
     </g>
    </g>
   </g>
   <g id="matplotlib.axis_2">
    <g id="ytick_1">
     <g id="line2d_23">
      <path clip-path="url(#p748ee7d640)" d="M 49.58775 389.13525 
L 554.452312 389.13525 
" style="fill:none;stroke:#000000;stroke-dasharray:1.000000,3.000000;stroke-dashoffset:0.0;stroke-width:0.5;"/>
     </g>
     <g id="line2d_24">
      <defs>
       <path d="M 0 0 
L 4 0 
" id="m231b8aea88" style="stroke:#000000;stroke-width:0.5;"/>
      </defs>
      <g>
       <use style="stroke:#000000;stroke-width:0.5;" x="49.58775" xlink:href="#m231b8aea88" y="389.13525"/>
      </g>
     </g>
     <g id="line2d_25">
      <defs>
       <path d="M 0 0 
L -4 0 
" id="m6efa30045b" style="stroke:#000000;stroke-width:0.5;"/>
      </defs>
      <g>
       <use style="stroke:#000000;stroke-width:0.5;" x="554.4523125" xlink:href="#m6efa30045b" y="389.13525"/>
      </g>
     </g>
     <g id="text_8">
      <!-- 0.0 -->
      <g transform="translate(26.504 392.4465)scale(0.12 -0.12)">
       <use xlink:href="#BitstreamVeraSans-Roman-30"/>
       <use x="63.623046875" xlink:href="#BitstreamVeraSans-Roman-2e"/>
       <use x="95.41015625" xlink:href="#BitstreamVeraSans-Roman-30"/>
      </g>
     </g>
    </g>
    <g id="ytick_2">
     <g id="line2d_26">
      <path clip-path="url(#p748ee7d640)" d="M 49.58775 316.869715 
L 554.452312 316.869715 
" style="fill:none;stroke:#000000;stroke-dasharray:1.000000,3.000000;stroke-dashoffset:0.0;stroke-width:0.5;"/>
     </g>
     <g id="line2d_27">
      <g>
       <use style="stroke:#000000;stroke-width:0.5;" x="49.58775" xlink:href="#m231b8aea88" y="316.869715"/>
      </g>
     </g>
     <g id="line2d_28">
      <g>
       <use style="stroke:#000000;stroke-width:0.5;" x="554.4523125" xlink:href="#m6efa30045b" y="316.869715"/>
      </g>
     </g>
     <g id="text_9">
      <!-- 0.2 -->
      <g transform="translate(26.504 320.180965)scale(0.12 -0.12)">
       <use xlink:href="#BitstreamVeraSans-Roman-30"/>
       <use x="63.623046875" xlink:href="#BitstreamVeraSans-Roman-2e"/>
       <use x="95.41015625" xlink:href="#BitstreamVeraSans-Roman-32"/>
      </g>
     </g>
    </g>
    <g id="ytick_3">
     <g id="line2d_29">
      <path clip-path="url(#p748ee7d640)" d="M 49.58775 244.60418 
L 554.452312 244.60418 
" style="fill:none;stroke:#000000;stroke-dasharray:1.000000,3.000000;stroke-dashoffset:0.0;stroke-width:0.5;"/>
     </g>
     <g id="line2d_30">
      <g>
       <use style="stroke:#000000;stroke-width:0.5;" x="49.58775" xlink:href="#m231b8aea88" y="244.60418"/>
      </g>
     </g>
     <g id="line2d_31">
      <g>
       <use style="stroke:#000000;stroke-width:0.5;" x="554.4523125" xlink:href="#m6efa30045b" y="244.60418"/>
      </g>
     </g>
     <g id="text_10">
      <!-- 0.4 -->
      <g transform="translate(26.504 247.91543)scale(0.12 -0.12)">
       <use xlink:href="#BitstreamVeraSans-Roman-30"/>
       <use x="63.623046875" xlink:href="#BitstreamVeraSans-Roman-2e"/>
       <use x="95.41015625" xlink:href="#BitstreamVeraSans-Roman-34"/>
      </g>
     </g>
    </g>
    <g id="ytick_4">
     <g id="line2d_32">
      <path clip-path="url(#p748ee7d640)" d="M 49.58775 172.338645 
L 554.452312 172.338645 
" style="fill:none;stroke:#000000;stroke-dasharray:1.000000,3.000000;stroke-dashoffset:0.0;stroke-width:0.5;"/>
     </g>
     <g id="line2d_33">
      <g>
       <use style="stroke:#000000;stroke-width:0.5;" x="49.58775" xlink:href="#m231b8aea88" y="172.338645"/>
      </g>
     </g>
     <g id="line2d_34">
      <g>
       <use style="stroke:#000000;stroke-width:0.5;" x="554.4523125" xlink:href="#m6efa30045b" y="172.338645"/>
      </g>
     </g>
     <g id="text_11">
      <!-- 0.6 -->
      <g transform="translate(26.504 175.649895)scale(0.12 -0.12)">
       <use xlink:href="#BitstreamVeraSans-Roman-30"/>
       <use x="63.623046875" xlink:href="#BitstreamVeraSans-Roman-2e"/>
       <use x="95.41015625" xlink:href="#BitstreamVeraSans-Roman-36"/>
      </g>
     </g>
    </g>
    <g id="ytick_5">
     <g id="line2d_35">
      <path clip-path="url(#p748ee7d640)" d="M 49.58775 100.07311 
L 554.452312 100.07311 
" style="fill:none;stroke:#000000;stroke-dasharray:1.000000,3.000000;stroke-dashoffset:0.0;stroke-width:0.5;"/>
     </g>
     <g id="line2d_36">
      <g>
       <use style="stroke:#000000;stroke-width:0.5;" x="49.58775" xlink:href="#m231b8aea88" y="100.07311"/>
      </g>
     </g>
     <g id="line2d_37">
      <g>
       <use style="stroke:#000000;stroke-width:0.5;" x="554.4523125" xlink:href="#m6efa30045b" y="100.07311"/>
      </g>
     </g>
     <g id="text_12">
      <!-- 0.8 -->
      <g transform="translate(26.504 103.38436)scale(0.12 -0.12)">
       <use xlink:href="#BitstreamVeraSans-Roman-30"/>
       <use x="63.623046875" xlink:href="#BitstreamVeraSans-Roman-2e"/>
       <use x="95.41015625" xlink:href="#BitstreamVeraSans-Roman-38"/>
      </g>
     </g>
    </g>
    <g id="ytick_6">
     <g id="line2d_38">
      <path clip-path="url(#p748ee7d640)" d="M 49.58775 27.807575 
L 554.452312 27.807575 
" style="fill:none;stroke:#000000;stroke-dasharray:1.000000,3.000000;stroke-dashoffset:0.0;stroke-width:0.5;"/>
     </g>
     <g id="line2d_39">
      <g>
       <use style="stroke:#000000;stroke-width:0.5;" x="49.58775" xlink:href="#m231b8aea88" y="27.807575"/>
      </g>
     </g>
     <g id="line2d_40">
      <g>
       <use style="stroke:#000000;stroke-width:0.5;" x="554.4523125" xlink:href="#m6efa30045b" y="27.807575"/>
      </g>
     </g>
     <g id="text_13">
      <!-- 1.0 -->
      <g transform="translate(26.504 31.118825)scale(0.12 -0.12)">
       <use xlink:href="#BitstreamVeraSans-Roman-31"/>
       <use x="63.623046875" xlink:href="#BitstreamVeraSans-Roman-2e"/>
       <use x="95.41015625" xlink:href="#BitstreamVeraSans-Roman-30"/>
      </g>
     </g>
    </g>
    <g id="text_14">
     <!-- Ratio of Calltargets -->
     <defs>
      <path d="M 45.40625 27.984375 
Q 45.40625 37.75 41.375 43.109375 
Q 37.359375 48.484375 30.078125 48.484375 
Q 22.859375 48.484375 18.828125 43.109375 
Q 14.796875 37.75 14.796875 27.984375 
Q 14.796875 18.265625 18.828125 12.890625 
Q 22.859375 7.515625 30.078125 7.515625 
Q 37.359375 7.515625 41.375 12.890625 
Q 45.40625 18.265625 45.40625 27.984375 
M 54.390625 6.78125 
Q 54.390625 -7.171875 48.1875 -13.984375 
Q 42 -20.796875 29.203125 -20.796875 
Q 24.46875 -20.796875 20.265625 -20.09375 
Q 16.0625 -19.390625 12.109375 -17.921875 
L 12.109375 -9.1875 
Q 16.0625 -11.328125 19.921875 -12.34375 
Q 23.78125 -13.375 27.78125 -13.375 
Q 36.625 -13.375 41.015625 -8.765625 
Q 45.40625 -4.15625 45.40625 5.171875 
L 45.40625 9.625 
Q 42.625 4.78125 38.28125 2.390625 
Q 33.9375 0 27.875 0 
Q 17.828125 0 11.671875 7.65625 
Q 5.515625 15.328125 5.515625 27.984375 
Q 5.515625 40.671875 11.671875 48.328125 
Q 17.828125 56 27.875 56 
Q 33.9375 56 38.28125 53.609375 
Q 42.625 51.21875 45.40625 46.390625 
L 45.40625 54.6875 
L 54.390625 54.6875 
z
" id="BitstreamVeraSans-Roman-67"/>
     </defs>
     <g transform="translate(19.008375 266.276725)rotate(-90.0)scale(0.12 -0.12)">
      <use xlink:href="#BitstreamVeraSans-Roman-52"/>
      <use x="69.451171875" xlink:href="#BitstreamVeraSans-Roman-61"/>
      <use x="130.73046875" xlink:href="#BitstreamVeraSans-Roman-74"/>
      <use x="169.939453125" xlink:href="#BitstreamVeraSans-Roman-69"/>
      <use x="197.72265625" xlink:href="#BitstreamVeraSans-Roman-6f"/>
      <use x="258.904296875" xlink:href="#BitstreamVeraSans-Roman-20"/>
      <use x="290.69140625" xlink:href="#BitstreamVeraSans-Roman-6f"/>
      <use x="351.873046875" xlink:href="#BitstreamVeraSans-Roman-66"/>
      <use x="387.078125" xlink:href="#BitstreamVeraSans-Roman-20"/>
      <use x="418.865234375" xlink:href="#BitstreamVeraSans-Roman-43"/>
      <use x="488.689453125" xlink:href="#BitstreamVeraSans-Roman-61"/>
      <use x="549.96875" xlink:href="#BitstreamVeraSans-Roman-6c"/>
      <use x="577.751953125" xlink:href="#BitstreamVeraSans-Roman-6c"/>
      <use x="605.53515625" xlink:href="#BitstreamVeraSans-Roman-74"/>
      <use x="644.744140625" xlink:href="#BitstreamVeraSans-Roman-61"/>
      <use x="706.0234375" xlink:href="#BitstreamVeraSans-Roman-72"/>
      <use x="747.12109375" xlink:href="#BitstreamVeraSans-Roman-67"/>
      <use x="810.59765625" xlink:href="#BitstreamVeraSans-Roman-65"/>
      <use x="872.12109375" xlink:href="#BitstreamVeraSans-Roman-74"/>
      <use x="911.330078125" xlink:href="#BitstreamVeraSans-Roman-73"/>
     </g>
    </g>
   </g>
   <g id="text_15">
    <!-- node O2 -->
    <defs>
     <path d="M 39.40625 66.21875 
Q 28.65625 66.21875 22.328125 58.203125 
Q 16.015625 50.203125 16.015625 36.375 
Q 16.015625 22.609375 22.328125 14.59375 
Q 28.65625 6.59375 39.40625 6.59375 
Q 50.140625 6.59375 56.421875 14.59375 
Q 62.703125 22.609375 62.703125 36.375 
Q 62.703125 50.203125 56.421875 58.203125 
Q 50.140625 66.21875 39.40625 66.21875 
M 39.40625 74.21875 
Q 54.734375 74.21875 63.90625 63.9375 
Q 73.09375 53.65625 73.09375 36.375 
Q 73.09375 19.140625 63.90625 8.859375 
Q 54.734375 -1.421875 39.40625 -1.421875 
Q 24.03125 -1.421875 14.8125 8.828125 
Q 5.609375 19.09375 5.609375 36.375 
Q 5.609375 53.65625 14.8125 63.9375 
Q 24.03125 74.21875 39.40625 74.21875 
" id="BitstreamVeraSans-Roman-4f"/>
    </defs>
    <g transform="translate(271.51340625 22.807575)scale(0.144 -0.144)">
     <use xlink:href="#BitstreamVeraSans-Roman-6e"/>
     <use x="63.37890625" xlink:href="#BitstreamVeraSans-Roman-6f"/>
     <use x="124.560546875" xlink:href="#BitstreamVeraSans-Roman-64"/>
     <use x="188.037109375" xlink:href="#BitstreamVeraSans-Roman-65"/>
     <use x="249.560546875" xlink:href="#BitstreamVeraSans-Roman-20"/>
     <use x="281.34765625" xlink:href="#BitstreamVeraSans-Roman-4f"/>
     <use x="360.05859375" xlink:href="#BitstreamVeraSans-Roman-32"/>
    </g>
   </g>
   <g id="legend_1">
    <g id="patch_7">
     <path d="M 447.586312 381.93525 
L 547.252312 381.93525 
L 547.252312 293.06925 
L 447.586312 293.06925 
z
" style="fill:#ffffff;stroke:#000000;stroke-linejoin:miter;"/>
    </g>
    <g id="line2d_41">
     <path d="M 457.666312 304.731 
L 477.826312 304.731 
" style="fill:none;stroke:#0000ff;stroke-linecap:square;"/>
    </g>
    <g id="line2d_42"/>
    <g id="text_16">
     <!-- count* -->
     <defs>
      <path d="M 47.015625 60.890625 
L 29.5 51.421875 
L 47.015625 41.890625 
L 44.1875 37.109375 
L 27.78125 47.015625 
L 27.78125 28.609375 
L 22.21875 28.609375 
L 22.21875 47.015625 
L 5.8125 37.109375 
L 2.984375 41.890625 
L 20.515625 51.421875 
L 2.984375 60.890625 
L 5.8125 65.71875 
L 22.21875 55.8125 
L 22.21875 74.21875 
L 27.78125 74.21875 
L 27.78125 55.8125 
L 44.1875 65.71875 
z
" id="BitstreamVeraSans-Roman-2a"/>
      <path d="M 8.5 21.578125 
L 8.5 54.6875 
L 17.484375 54.6875 
L 17.484375 21.921875 
Q 17.484375 14.15625 20.5 10.265625 
Q 23.53125 6.390625 29.59375 6.390625 
Q 36.859375 6.390625 41.078125 11.03125 
Q 45.3125 15.671875 45.3125 23.6875 
L 45.3125 54.6875 
L 54.296875 54.6875 
L 54.296875 0 
L 45.3125 0 
L 45.3125 8.40625 
Q 42.046875 3.421875 37.71875 1 
Q 33.40625 -1.421875 27.6875 -1.421875 
Q 18.265625 -1.421875 13.375 4.4375 
Q 8.5 10.296875 8.5 21.578125 
" id="BitstreamVeraSans-Roman-75"/>
     </defs>
     <g transform="translate(493.6663125 309.771)scale(0.144 -0.144)">
      <use xlink:href="#BitstreamVeraSans-Roman-63"/>
      <use x="54.98046875" xlink:href="#BitstreamVeraSans-Roman-6f"/>
      <use x="116.162109375" xlink:href="#BitstreamVeraSans-Roman-75"/>
      <use x="179.541015625" xlink:href="#BitstreamVeraSans-Roman-6e"/>
      <use x="242.919921875" xlink:href="#BitstreamVeraSans-Roman-74"/>
      <use x="282.12890625" xlink:href="#BitstreamVeraSans-Roman-2a"/>
     </g>
    </g>
    <g id="line2d_43">
     <path d="M 457.666312 325.8675 
L 477.826312 325.8675 
" style="fill:none;stroke:#0000ff;stroke-dasharray:6.000000,6.000000;stroke-dashoffset:0.0;"/>
    </g>
    <g id="line2d_44"/>
    <g id="text_17">
     <!-- count -->
     <g transform="translate(493.6663125 330.9075)scale(0.144 -0.144)">
      <use xlink:href="#BitstreamVeraSans-Roman-63"/>
      <use x="54.98046875" xlink:href="#BitstreamVeraSans-Roman-6f"/>
      <use x="116.162109375" xlink:href="#BitstreamVeraSans-Roman-75"/>
      <use x="179.541015625" xlink:href="#BitstreamVeraSans-Roman-6e"/>
      <use x="242.919921875" xlink:href="#BitstreamVeraSans-Roman-74"/>
     </g>
    </g>
    <g id="line2d_45">
     <path d="M 457.666312 347.004 
L 477.826312 347.004 
" style="fill:none;stroke:#ff0000;stroke-linecap:square;"/>
    </g>
    <g id="line2d_46"/>
    <g id="text_18">
     <!-- type* -->
     <defs>
      <path d="M 18.109375 8.203125 
L 18.109375 -20.796875 
L 9.078125 -20.796875 
L 9.078125 54.6875 
L 18.109375 54.6875 
L 18.109375 46.390625 
Q 20.953125 51.265625 25.265625 53.625 
Q 29.59375 56 35.59375 56 
Q 45.5625 56 51.78125 48.09375 
Q 58.015625 40.1875 58.015625 27.296875 
Q 58.015625 14.40625 51.78125 6.484375 
Q 45.5625 -1.421875 35.59375 -1.421875 
Q 29.59375 -1.421875 25.265625 0.953125 
Q 20.953125 3.328125 18.109375 8.203125 
M 48.6875 27.296875 
Q 48.6875 37.203125 44.609375 42.84375 
Q 40.53125 48.484375 33.40625 48.484375 
Q 26.265625 48.484375 22.1875 42.84375 
Q 18.109375 37.203125 18.109375 27.296875 
Q 18.109375 17.390625 22.1875 11.75 
Q 26.265625 6.109375 33.40625 6.109375 
Q 40.53125 6.109375 44.609375 11.75 
Q 48.6875 17.390625 48.6875 27.296875 
" id="BitstreamVeraSans-Roman-70"/>
      <path d="M 32.171875 -5.078125 
Q 28.375 -14.84375 24.75 -17.8125 
Q 21.140625 -20.796875 15.09375 -20.796875 
L 7.90625 -20.796875 
L 7.90625 -13.28125 
L 13.1875 -13.28125 
Q 16.890625 -13.28125 18.9375 -11.515625 
Q 21 -9.765625 23.484375 -3.21875 
L 25.09375 0.875 
L 2.984375 54.6875 
L 12.5 54.6875 
L 29.59375 11.921875 
L 46.6875 54.6875 
L 56.203125 54.6875 
z
" id="BitstreamVeraSans-Roman-79"/>
     </defs>
     <g transform="translate(493.6663125 352.044)scale(0.144 -0.144)">
      <use xlink:href="#BitstreamVeraSans-Roman-74"/>
      <use x="39.208984375" xlink:href="#BitstreamVeraSans-Roman-79"/>
      <use x="98.388671875" xlink:href="#BitstreamVeraSans-Roman-70"/>
      <use x="161.865234375" xlink:href="#BitstreamVeraSans-Roman-65"/>
      <use x="223.388671875" xlink:href="#BitstreamVeraSans-Roman-2a"/>
     </g>
    </g>
    <g id="line2d_47">
     <path d="M 457.666312 368.1405 
L 477.826312 368.1405 
" style="fill:none;stroke:#ff0000;stroke-dasharray:6.000000,6.000000;stroke-dashoffset:0.0;"/>
    </g>
    <g id="line2d_48"/>
    <g id="text_19">
     <!-- type -->
     <g transform="translate(493.6663125 373.1805)scale(0.144 -0.144)">
      <use xlink:href="#BitstreamVeraSans-Roman-74"/>
      <use x="39.208984375" xlink:href="#BitstreamVeraSans-Roman-79"/>
      <use x="98.388671875" xlink:href="#BitstreamVeraSans-Roman-70"/>
      <use x="161.865234375" xlink:href="#BitstreamVeraSans-Roman-65"/>
     </g>
    </g>
   </g>
  </g>
 </g>
 <defs>
  <clipPath id="p748ee7d640">
   <rect height="361.327675" width="504.8645625" x="49.58775" y="27.807575"/>
  </clipPath>
 </defs>
</svg>
