<?xml version="1.0" encoding="UTF-8"?>
<!DOCTYPE svg PUBLIC "-//W3C//DTD SVG 1.1//EN" "http://www.w3.org/Graphics/SVG/1.1/DTD/svg11.dtd">
<svg width="160mm" height="90mm" viewBox="0 0 16000 9000" version="1.1" baseProfile="tiny" xmlns="http://www.w3.org/2000/svg" stroke-width="28.222" stroke-linejoin="round" xml:space="preserve">
 <path fill="rgb(255,255,255)" stroke="none" d="M 8000,9000 L 0,9000 0,0 16000,0 16000,9000 8000,9000 Z"/>
 <path fill="none" stroke="rgb(179,179,179)" stroke-linejoin="round" d="M 8103,7775 L 1127,7775 1127,380 15079,380 15079,7775 8103,7775 Z"/>
 <path fill="none" stroke="rgb(179,179,179)" stroke-linejoin="round" d="M 15079,7774 L 1127,7774"/>
 <path fill="none" stroke="rgb(179,179,179)" stroke-linejoin="round" d="M 15079,6717 L 1127,6717"/>
 <path fill="none" stroke="rgb(179,179,179)" stroke-linejoin="round" d="M 15079,5660 L 1127,5660"/>
 <path fill="none" stroke="rgb(179,179,179)" stroke-linejoin="round" d="M 15079,4604 L 1127,4604"/>
 <path fill="none" stroke="rgb(179,179,179)" stroke-linejoin="round" d="M 15079,3548 L 1127,3548"/>
 <path fill="none" stroke="rgb(179,179,179)" stroke-linejoin="round" d="M 15079,2492 L 1127,2492"/>
 <path fill="none" stroke="rgb(179,179,179)" stroke-linejoin="round" d="M 15079,1435 L 1127,1435"/>
 <path fill="none" stroke="rgb(179,179,179)" stroke-linejoin="round" d="M 15079,378 L 1127,378"/>
 <path fill="none" stroke="rgb(179,179,179)" stroke-linejoin="round" d="M 1127,7924 L 1127,7774"/>
 <path fill="none" stroke="rgb(179,179,179)" stroke-linejoin="round" d="M 1127,7924 L 1127,7774"/>
 <path fill="none" stroke="rgb(179,179,179)" stroke-linejoin="round" d="M 2289,7924 L 2289,7774"/>
 <path fill="none" stroke="rgb(179,179,179)" stroke-linejoin="round" d="M 2289,7924 L 2289,7774"/>
 <path fill="none" stroke="rgb(179,179,179)" stroke-linejoin="round" d="M 3452,7924 L 3452,7774"/>
 <path fill="none" stroke="rgb(179,179,179)" stroke-linejoin="round" d="M 3452,7924 L 3452,7774"/>
 <path fill="none" stroke="rgb(179,179,179)" stroke-linejoin="round" d="M 4615,7924 L 4615,7774"/>
 <path fill="none" stroke="rgb(179,179,179)" stroke-linejoin="round" d="M 4615,7924 L 4615,7774"/>
 <path fill="none" stroke="rgb(179,179,179)" stroke-linejoin="round" d="M 5778,7924 L 5778,7774"/>
 <path fill="none" stroke="rgb(179,179,179)" stroke-linejoin="round" d="M 5778,7924 L 5778,7774"/>
 <path fill="none" stroke="rgb(179,179,179)" stroke-linejoin="round" d="M 6940,7924 L 6940,7774"/>
 <path fill="none" stroke="rgb(179,179,179)" stroke-linejoin="round" d="M 6940,7924 L 6940,7774"/>
 <path fill="none" stroke="rgb(179,179,179)" stroke-linejoin="round" d="M 8102,7924 L 8102,7774"/>
 <path fill="none" stroke="rgb(179,179,179)" stroke-linejoin="round" d="M 8102,7924 L 8102,7774"/>
 <path fill="none" stroke="rgb(179,179,179)" stroke-linejoin="round" d="M 9265,7924 L 9265,7774"/>
 <path fill="none" stroke="rgb(179,179,179)" stroke-linejoin="round" d="M 9265,7924 L 9265,7774"/>
 <path fill="none" stroke="rgb(179,179,179)" stroke-linejoin="round" d="M 10428,7924 L 10428,7774"/>
 <path fill="none" stroke="rgb(179,179,179)" stroke-linejoin="round" d="M 10428,7924 L 10428,7774"/>
 <path fill="none" stroke="rgb(179,179,179)" stroke-linejoin="round" d="M 11590,7924 L 11590,7774"/>
 <path fill="none" stroke="rgb(179,179,179)" stroke-linejoin="round" d="M 11590,7924 L 11590,7774"/>
 <path fill="none" stroke="rgb(179,179,179)" stroke-linejoin="round" d="M 12753,7924 L 12753,7774"/>
 <path fill="none" stroke="rgb(179,179,179)" stroke-linejoin="round" d="M 12753,7924 L 12753,7774"/>
 <path fill="none" stroke="rgb(179,179,179)" stroke-linejoin="round" d="M 13916,7924 L 13916,7774"/>
 <path fill="none" stroke="rgb(179,179,179)" stroke-linejoin="round" d="M 13916,7924 L 13916,7774"/>
 <path fill="none" stroke="rgb(179,179,179)" stroke-linejoin="round" d="M 15079,7924 L 15079,7774"/>
 <path fill="none" stroke="rgb(179,179,179)" stroke-linejoin="round" d="M 15079,7924 L 15079,7774"/>
 <path fill="none" stroke="rgb(179,179,179)" stroke-linejoin="round" d="M 1127,7774 L 15079,7774"/>
 <path fill="none" stroke="rgb(179,179,179)" stroke-linejoin="round" d="M 977,7774 L 1127,7774"/>
 <path fill="none" stroke="rgb(179,179,179)" stroke-linejoin="round" d="M 977,7774 L 1127,7774"/>
 <path fill="none" stroke="rgb(179,179,179)" stroke-linejoin="round" d="M 977,6717 L 1127,6717"/>
 <path fill="none" stroke="rgb(179,179,179)" stroke-linejoin="round" d="M 977,6717 L 1127,6717"/>
 <path fill="none" stroke="rgb(179,179,179)" stroke-linejoin="round" d="M 977,5660 L 1127,5660"/>
 <path fill="none" stroke="rgb(179,179,179)" stroke-linejoin="round" d="M 977,5660 L 1127,5660"/>
 <path fill="none" stroke="rgb(179,179,179)" stroke-linejoin="round" d="M 977,4604 L 1127,4604"/>
 <path fill="none" stroke="rgb(179,179,179)" stroke-linejoin="round" d="M 977,4604 L 1127,4604"/>
 <path fill="none" stroke="rgb(179,179,179)" stroke-linejoin="round" d="M 977,3548 L 1127,3548"/>
 <path fill="none" stroke="rgb(179,179,179)" stroke-linejoin="round" d="M 977,3548 L 1127,3548"/>
 <path fill="none" stroke="rgb(179,179,179)" stroke-linejoin="round" d="M 977,2492 L 1127,2492"/>
 <path fill="none" stroke="rgb(179,179,179)" stroke-linejoin="round" d="M 977,2492 L 1127,2492"/>
 <path fill="none" stroke="rgb(179,179,179)" stroke-linejoin="round" d="M 977,1435 L 1127,1435"/>
 <path fill="none" stroke="rgb(179,179,179)" stroke-linejoin="round" d="M 977,1435 L 1127,1435"/>
 <path fill="none" stroke="rgb(179,179,179)" stroke-linejoin="round" d="M 977,378 L 1127,378"/>
 <path fill="none" stroke="rgb(179,179,179)" stroke-linejoin="round" d="M 977,378 L 1127,378"/>
 <path fill="none" stroke="rgb(179,179,179)" stroke-linejoin="round" d="M 1127,7774 L 1127,378"/>
 <path fill="rgb(0,69,134)" stroke="none" d="M 14110,7774 L 14497,7774 14497,3098 14110,3098 14110,7774 Z"/>
 <path fill="rgb(0,69,134)" stroke="none" d="M 12947,7774 L 13334,7774 13334,1175 12947,1175 12947,7774 Z"/>
 <path fill="rgb(0,69,134)" stroke="none" d="M 11784,7774 L 12172,7774 12172,1504 11784,1504 11784,7774 Z"/>
 <path fill="rgb(0,69,134)" stroke="none" d="M 10621,7774 L 11009,7774 11009,2078 10621,2078 10621,7774 Z"/>
 <path fill="rgb(0,69,134)" stroke="none" d="M 9459,7774 L 9846,7774 9846,3160 9459,3160 9459,7774 Z"/>
 <path fill="rgb(0,69,134)" stroke="none" d="M 8296,7774 L 8683,7774 8683,2838 8296,2838 8296,7774 Z"/>
 <path fill="rgb(0,69,134)" stroke="none" d="M 7134,7774 L 7522,7774 7522,3625 7134,3625 7134,7774 Z"/>
 <path fill="rgb(0,69,134)" stroke="none" d="M 5971,7774 L 6359,7774 6359,3137 5971,3137 5971,7774 Z"/>
 <path fill="rgb(0,69,134)" stroke="none" d="M 4809,7774 L 5196,7774 5196,3434 4809,3434 4809,7774 Z"/>
 <path fill="rgb(0,69,134)" stroke="none" d="M 3646,7774 L 4033,7774 4033,4640 3646,4640 3646,7774 Z"/>
 <path fill="rgb(0,69,134)" stroke="none" d="M 2483,7774 L 2871,7774 2871,3104 2483,3104 2483,7774 Z"/>
 <path fill="rgb(0,69,134)" stroke="none" d="M 1320,7774 L 1708,7774 1708,4610 1320,4610 1320,7774 Z"/>
 <path fill="rgb(255,66,14)" stroke="none" d="M 14497,7774 L 14885,7774 14885,4104 14497,4104 14497,7774 Z"/>
 <path fill="rgb(255,66,14)" stroke="none" d="M 13334,7774 L 13722,7774 13722,2969 13334,2969 13334,7774 Z"/>
 <path fill="rgb(255,66,14)" stroke="none" d="M 12172,7774 L 12559,7774 12559,3271 12172,3271 12172,7774 Z"/>
 <path fill="rgb(255,66,14)" stroke="none" d="M 11009,7774 L 11396,7774 11396,2333 11009,2333 11009,7774 Z"/>
 <path fill="rgb(255,66,14)" stroke="none" d="M 9846,7774 L 10234,7774 10234,3713 9846,3713 9846,7774 Z"/>
 <path fill="rgb(255,66,14)" stroke="none" d="M 8683,7774 L 9071,7774 9071,2764 8683,2764 8683,7774 Z"/>
 <path fill="rgb(255,66,14)" stroke="none" d="M 7522,7774 L 7909,7774 7909,3626 7522,3626 7522,7774 Z"/>
 <path fill="rgb(255,66,14)" stroke="none" d="M 6359,7774 L 6746,7774 6746,1792 6359,1792 6359,7774 Z"/>
 <path fill="rgb(255,66,14)" stroke="none" d="M 5196,7774 L 5584,7774 5584,1804 5196,1804 5196,7774 Z"/>
 <path fill="rgb(255,66,14)" stroke="none" d="M 4033,7774 L 4421,7774 4421,3422 4033,3422 4033,7774 Z"/>
 <path fill="rgb(255,66,14)" stroke="none" d="M 2871,7774 L 3258,7774 3258,779 2871,779 2871,7774 Z"/>
 <path fill="rgb(255,66,14)" stroke="none" d="M 1708,7774 L 2095,7774 2095,3519 1708,3519 1708,7774 Z"/>
 <text class="TextShape"><tspan class="TextParagraph" font-family="Liberation Sans, sans-serif" font-size="353px" font-weight="400"><tspan class="TextPosition" x="636" y="8740"><tspan fill="rgb(0,0,0)" stroke="none">400.perlbench</tspan></tspan></tspan></text>
 <text class="TextShape"><tspan class="TextParagraph" font-family="Liberation Sans, sans-serif" font-size="353px" font-weight="400"><tspan class="TextPosition" x="2130" y="8342"><tspan fill="rgb(0,0,0)" stroke="none">401.bzip2</tspan></tspan></tspan></text>
 <text class="TextShape"><tspan class="TextParagraph" font-family="Liberation Sans, sans-serif" font-size="353px" font-weight="400"><tspan class="TextPosition" x="3424" y="8740"><tspan fill="rgb(0,0,0)" stroke="none">403.gcc</tspan></tspan></tspan></text>
 <text class="TextShape"><tspan class="TextParagraph" font-family="Liberation Sans, sans-serif" font-size="353px" font-weight="400"><tspan class="TextPosition" x="4587" y="8342"><tspan fill="rgb(0,0,0)" stroke="none">429.mcf</tspan></tspan></tspan></text>
 <text class="TextShape"><tspan class="TextParagraph" font-family="Liberation Sans, sans-serif" font-size="353px" font-weight="400"><tspan class="TextPosition" x="5512" y="8740"><tspan fill="rgb(0,0,0)" stroke="none">445.gobmk</tspan></tspan></tspan></text>
 <text class="TextShape"><tspan class="TextParagraph" font-family="Liberation Sans, sans-serif" font-size="353px" font-weight="400"><tspan class="TextPosition" x="6662" y="8342"><tspan fill="rgb(0,0,0)" stroke="none">456.hmmer</tspan></tspan></tspan></text>
 <text class="TextShape"><tspan class="TextParagraph" font-family="Liberation Sans, sans-serif" font-size="353px" font-weight="400"><tspan class="TextPosition" x="7943" y="8740"><tspan fill="rgb(0,0,0)" stroke="none">458.sjeng</tspan></tspan></tspan></text>
 <text class="TextShape"><tspan class="TextParagraph" font-family="Liberation Sans, sans-serif" font-size="353px" font-weight="400"><tspan class="TextPosition" x="8683" y="8342"><tspan fill="rgb(0,0,0)" stroke="none">462.libquantum</tspan></tspan></tspan></text>
 <text class="TextShape"><tspan class="TextParagraph" font-family="Liberation Sans, sans-serif" font-size="353px" font-weight="400"><tspan class="TextPosition" x="10123" y="8740"><tspan fill="rgb(0,0,0)" stroke="none">464.h264ref</tspan></tspan></tspan></text>
 <text class="TextShape"><tspan class="TextParagraph" font-family="Liberation Sans, sans-serif" font-size="353px" font-weight="400"><tspan class="TextPosition" x="11181" y="8342"><tspan fill="rgb(0,0,0)" stroke="none">471.omnetpp</tspan></tspan></tspan></text>
 <text class="TextShape"><tspan class="TextParagraph" font-family="Liberation Sans, sans-serif" font-size="353px" font-weight="400"><tspan class="TextPosition" x="12620" y="8740"><tspan fill="rgb(0,0,0)" stroke="none">473.astar</tspan></tspan></tspan></text>
 <text class="TextShape"><tspan class="TextParagraph" font-family="Liberation Sans, sans-serif" font-size="353px" font-weight="400"><tspan class="TextPosition" x="13334" y="8342"><tspan fill="rgb(0,0,0)" stroke="none">483.xalancbmk</tspan></tspan></tspan></text>
 <text class="TextShape"><tspan class="TextParagraph" font-family="Liberation Sans, sans-serif" font-size="353px" font-weight="400"><tspan class="TextPosition" x="692" y="7895"><tspan fill="rgb(0,0,0)" stroke="none">0</tspan></tspan></tspan></text>
 <text class="TextShape"><tspan class="TextParagraph" font-family="Liberation Sans, sans-serif" font-size="353px" font-weight="400"><tspan class="TextPosition" x="321" y="6838"><tspan fill="rgb(0,0,0)" stroke="none">100</tspan></tspan></tspan></text>
 <text class="TextShape"><tspan class="TextParagraph" font-family="Liberation Sans, sans-serif" font-size="353px" font-weight="400"><tspan class="TextPosition" x="321" y="5781"><tspan fill="rgb(0,0,0)" stroke="none">200</tspan></tspan></tspan></text>
 <text class="TextShape"><tspan class="TextParagraph" font-family="Liberation Sans, sans-serif" font-size="353px" font-weight="400"><tspan class="TextPosition" x="321" y="4725"><tspan fill="rgb(0,0,0)" stroke="none">300</tspan></tspan></tspan></text>
 <text class="TextShape"><tspan class="TextParagraph" font-family="Liberation Sans, sans-serif" font-size="353px" font-weight="400"><tspan class="TextPosition" x="321" y="3668"><tspan fill="rgb(0,0,0)" stroke="none">400</tspan></tspan></tspan></text>
 <text class="TextShape"><tspan class="TextParagraph" font-family="Liberation Sans, sans-serif" font-size="353px" font-weight="400"><tspan class="TextPosition" x="321" y="2612"><tspan fill="rgb(0,0,0)" stroke="none">500</tspan></tspan></tspan></text>
 <text class="TextShape"><tspan class="TextParagraph" font-family="Liberation Sans, sans-serif" font-size="353px" font-weight="400"><tspan class="TextPosition" x="321" y="1555"><tspan fill="rgb(0,0,0)" stroke="none">600</tspan></tspan></tspan></text>
 <text class="TextShape"><tspan class="TextParagraph" font-family="Liberation Sans, sans-serif" font-size="353px" font-weight="400"><tspan class="TextPosition" x="321" y="498"><tspan fill="rgb(0,0,0)" stroke="none">700</tspan></tspan></tspan></text>
</svg>